{"glyphs":{"0":{"ha":864,"x_min":72,"x_max":789,"o":"m 72 396 q 175 695 72 586 q 432 804 278 804 q 688 699 588 804 q 789 399 789 593 q 685 94 789 207 q 431 -18 582 -18 q 175 91 278 -18 q 72 396 72 200 m 238 400 q 295 203 238 271 q 432 136 353 136 q 567 203 508 136 q 626 393 626 269 q 569 586 626 521 q 431 651 511 651 q 295 587 353 651 q 238 400 238 522 z "},"1":{"ha":618,"x_min":86,"x_max":546,"o":"m 92 125 l 243 125 l 243 579 l 171 538 l 86 660 l 303 786 l 424 786 l 424 125 l 531 125 l 546 0 l 106 0 l 92 125 z "},"2":{"ha":706,"x_min":43,"x_max":647,"o":"m 322 804 q 544 726 482 804 q 607 553 607 647 q 560 400 607 469 q 413 247 514 331 l 281 138 l 624 138 l 647 0 l 43 0 l 43 121 l 315 360 q 419 469 393 428 q 446 553 444 510 q 413 628 446 597 q 319 658 379 658 q 201 621 268 658 q 131 582 135 583 l 53 704 q 158 769 92 735 q 322 804 225 804 z "},"3":{"ha":746,"x_min":29,"x_max":660,"o":"m 351 804 q 570 732 497 804 q 643 563 643 660 q 607 448 643 499 q 531 379 571 397 q 615 312 569 369 q 660 168 660 254 q 571 -26 660 53 q 332 -106 482 -106 q 174 -78 256 -106 q 29 -18 93 -51 l 121 103 q 225 55 176 69 q 335 40 274 40 q 445 74 396 40 q 494 167 494 107 q 445 268 494 231 q 286 306 396 306 l 228 306 l 203 446 l 294 446 q 428 477 379 446 q 478 560 478 508 q 442 629 478 600 q 347 658 407 658 q 231 635 285 658 q 140 586 178 613 l 56 707 q 196 778 124 751 q 351 804 268 804 z "},"4":{"ha":824,"x_min":43,"x_max":779,"o":"m 761 82 l 633 82 l 633 -96 l 451 -96 l 451 82 l 67 82 l 43 231 l 499 793 l 633 793 l 633 231 l 779 231 l 761 82 m 238 231 l 451 231 l 451 504 l 238 231 z "},"5":{"ha":758,"x_min":58,"x_max":700,"o":"m 118 286 l 143 786 l 651 786 l 632 640 l 296 640 l 288 475 q 336 491 310 486 q 390 496 363 496 q 622 408 546 496 q 700 204 699 321 q 608 -19 700 68 q 358 -106 517 -106 q 200 -79 281 -106 q 58 -19 119 -53 l 147 107 q 251 61 203 76 q 363 46 300 46 q 486 88 436 46 q 536 204 536 131 q 497 312 536 272 q 397 351 457 351 q 318 330 349 351 q 278 286 288 308 l 118 286 z "},"6":{"ha":776,"x_min":72,"x_max":732,"o":"m 732 282 q 651 74 732 165 q 436 -18 571 -18 q 178 78 283 -18 q 72 364 72 174 q 186 680 72 517 q 486 881 300 843 l 565 763 q 382 668 461 739 q 265 510 303 597 q 344 548 301 532 q 431 564 388 564 q 649 479 567 564 q 732 282 732 394 m 571 274 q 531 384 571 333 q 422 435 492 435 q 305 396 354 435 q 238 313 256 357 q 295 181 249 232 q 426 131 342 131 q 531 174 492 131 q 571 274 571 218 z "},"7":{"ha":704,"x_min":58,"x_max":675,"o":"m 68 -47 l 449 640 l 81 640 l 58 786 l 622 786 l 675 714 l 236 -96 l 68 -47 z "},"8":{"ha":789,"x_min":72,"x_max":717,"o":"m 717 257 q 631 63 717 144 q 396 -18 546 -18 q 158 63 243 -18 q 72 257 72 144 q 121 390 72 328 q 228 472 169 453 q 142 544 175 496 q 108 650 108 592 q 185 821 108 749 q 396 893 263 893 q 605 821 528 893 q 682 650 682 749 q 648 544 682 592 q 561 472 614 496 q 668 390 619 453 q 717 257 717 328 m 269 650 q 301 574 268 603 q 396 535 333 544 q 488 574 457 544 q 519 650 519 603 q 483 717 519 689 q 393 746 447 746 q 306 717 342 746 q 269 650 269 689 m 394 128 l 396 128 q 506 161 456 128 q 556 254 556 194 q 515 346 556 304 q 396 400 474 388 q 275 346 315 388 q 235 254 235 304 q 284 161 235 194 q 394 128 333 128 z "},"9":{"ha":776,"x_min":43,"x_max":701,"o":"m 43 504 q 127 713 43 621 q 346 804 211 804 q 600 708 499 804 q 701 422 701 613 q 588 106 701 269 q 290 -96 475 -57 l 208 24 q 390 117 313 49 q 507 272 468 186 q 432 236 472 250 q 351 222 392 222 q 128 307 214 222 q 43 504 43 392 m 206 513 q 244 402 206 453 q 351 351 283 351 q 471 390 422 351 q 538 472 519 429 q 480 606 526 556 q 350 656 433 656 q 244 612 283 656 q 206 513 206 568 z "},"\u0000":{"ha":0,"x_min":0,"x_max":0,"o":""},"\r":{"ha":0,"x_min":0,"x_max":0,"o":""}," ":{"ha":328,"x_min":0,"x_max":0,"o":""}," ":{"ha":328,"x_min":0,"x_max":0,"o":""},"‌":{"ha":0,"x_min":-42,"x_max":42,"o":"m -42 1718 l 42 1718 l 42 -94 l -42 -94 l -42 1718 z "},"‍":{"ha":0,"x_min":-157,"x_max":158,"o":"m 103 1833 l 158 1778 l 56 1675 l 158 1572 l 104 1518 l 42 1579 l 42 -94 l -42 -94 l -42 1578 l -103 1518 l -157 1572 l -54 1675 l -157 1778 l -101 1833 l 0 1731 l 103 1833 z "},"◌":{"ha":933,"x_min":69,"x_max":864,"o":"m 465 708 q 433 721 446 708 q 421 753 421 733 q 433 785 421 772 q 465 799 446 799 q 498 785 485 799 q 511 753 511 772 q 498 721 511 733 q 465 708 485 708 m 604 685 q 572 697 585 685 q 560 729 560 710 q 572 762 560 749 q 604 775 585 775 q 637 762 624 775 q 650 729 650 749 q 637 697 650 710 q 604 685 624 685 m 329 775 q 361 762 349 775 q 374 729 374 749 q 361 697 374 710 q 329 685 349 685 q 297 697 310 685 q 283 729 283 710 q 297 762 283 749 q 329 775 310 775 m 722 607 q 690 619 703 607 q 678 651 678 632 q 690 684 678 671 q 722 697 703 697 q 755 684 742 697 q 768 651 768 671 q 755 619 768 632 q 722 607 742 607 m 211 697 q 243 684 231 697 q 256 651 256 671 q 243 619 256 632 q 211 607 231 607 q 178 619 192 607 q 165 651 165 632 q 178 684 165 671 q 211 697 192 697 m 796 485 q 764 497 776 485 q 751 529 751 510 q 764 562 751 549 q 796 575 776 575 q 828 562 815 575 q 842 529 842 549 q 828 497 842 510 q 796 485 815 485 m 138 575 q 169 562 157 575 q 182 529 182 549 q 169 497 182 510 q 138 485 157 485 q 105 497 118 485 q 92 529 92 510 q 105 562 92 549 q 138 575 118 575 m 818 353 q 786 365 799 353 q 774 397 774 378 q 786 430 774 417 q 818 443 799 443 q 851 430 838 443 q 864 397 864 417 q 851 365 864 378 q 818 353 838 353 m 115 443 q 147 430 135 443 q 160 397 160 417 q 147 365 160 378 q 115 353 135 353 q 83 365 96 353 q 69 397 69 378 q 83 430 69 417 q 115 443 96 443 m 796 224 q 764 236 776 224 q 751 268 751 249 q 764 301 751 288 q 796 314 776 314 q 828 301 815 314 q 842 268 842 288 q 828 236 842 249 q 796 224 815 224 m 138 314 q 169 301 157 314 q 182 268 182 288 q 169 236 182 249 q 138 224 157 224 q 105 236 118 224 q 92 268 92 249 q 105 301 92 288 q 138 314 118 314 m 724 100 q 692 113 704 100 q 679 144 679 125 q 692 177 679 164 q 724 190 704 190 q 756 177 743 190 q 769 144 769 164 q 756 113 769 125 q 724 100 743 100 m 210 190 q 242 177 229 190 q 254 144 254 164 q 242 113 254 125 q 210 100 229 100 q 177 113 190 100 q 164 144 164 125 q 177 177 164 164 q 210 190 190 190 m 329 114 q 361 101 349 114 q 374 68 374 88 q 361 36 374 49 q 329 24 349 24 q 297 36 310 24 q 283 68 283 49 q 297 101 283 88 q 329 114 310 114 m 604 24 q 572 36 585 24 q 560 68 560 49 q 572 101 560 88 q 604 114 585 114 q 637 101 624 114 q 650 68 650 88 q 637 36 650 49 q 604 24 624 24 m 465 0 q 433 13 446 0 q 421 44 421 25 q 433 77 421 64 q 465 90 446 90 q 498 77 485 90 q 511 44 511 64 q 498 13 511 25 q 465 0 485 0 z "},"A":{"ha":904,"x_min":8,"x_max":896,"o":"m 449 697 l 325 368 l 575 368 l 449 697 m 529 944 l 896 25 l 715 0 l 631 222 l 272 222 l 189 0 l 8 0 l 376 944 l 529 944 z "},"B":{"ha":904,"x_min":117,"x_max":838,"o":"m 469 944 q 693 884 607 944 q 779 681 779 824 q 755 585 779 628 q 692 513 731 543 q 797 422 756 479 q 838 278 838 365 q 747 74 838 147 q 504 0 656 0 l 117 0 l 117 944 l 469 944 m 443 794 l 296 794 l 296 560 l 429 560 q 547 588 504 560 q 589 678 589 617 q 550 769 589 744 q 443 794 511 794 m 503 414 l 296 414 l 296 149 l 490 149 q 606 182 563 149 q 650 276 650 215 q 610 378 650 343 q 503 414 569 414 z "},"C":{"ha":824,"x_min":79,"x_max":765,"o":"m 701 774 q 601 802 640 792 q 501 813 563 813 q 328 721 389 813 q 267 469 267 629 q 318 232 267 332 q 490 132 369 132 q 602 144 550 132 q 697 175 654 157 l 765 42 q 635 -3 711 14 q 500 -19 558 -19 q 179 122 279 -19 q 79 468 79 264 q 190 825 79 686 q 507 964 300 964 q 622 950 549 964 q 757 903 696 936 l 701 774 z "},"D":{"ha":976,"x_min":117,"x_max":896,"o":"m 461 -1 l 461 0 l 117 0 l 117 944 l 461 944 q 789 813 682 946 q 896 478 896 681 q 782 131 896 258 q 461 -1 668 3 m 468 792 l 296 792 l 296 151 l 458 151 q 641 226 572 151 q 710 478 710 301 q 651 708 710 625 q 468 792 593 792 z "},"E":{"ha":806,"x_min":117,"x_max":778,"o":"m 778 0 l 117 0 l 117 944 l 681 944 l 708 803 l 296 803 l 296 549 l 549 549 l 578 406 l 296 406 l 296 140 l 749 140 l 778 0 z "},"F":{"ha":694,"x_min":117,"x_max":679,"o":"m 563 400 l 296 400 l 296 0 l 117 0 l 117 944 l 651 944 l 679 803 l 296 803 l 296 540 l 536 540 l 563 400 z "},"G":{"ha":911,"x_min":79,"x_max":815,"o":"m 471 517 l 815 517 l 815 50 q 685 1 761 21 q 521 -19 608 -19 q 190 123 300 -19 q 79 468 79 265 q 204 824 79 683 q 543 964 329 964 q 662 950 585 964 q 801 903 739 936 l 744 774 q 645 802 683 792 q 546 813 607 813 q 344 727 421 813 q 267 469 267 642 q 330 223 267 314 q 517 132 393 132 q 596 137 563 132 q 654 147 629 142 l 654 378 l 456 378 l 471 517 z "},"H":{"ha":964,"x_min":117,"x_max":847,"o":"m 296 951 l 296 544 l 668 544 l 668 944 l 847 944 l 847 0 l 668 0 l 668 400 l 296 400 l 296 0 l 117 0 l 117 944 l 296 951 z "},"I":{"ha":413,"x_min":117,"x_max":296,"o":"m 296 944 l 296 0 l 117 0 l 117 944 l 296 944 z "},"J":{"ha":429,"x_min":22,"x_max":313,"o":"m 313 944 l 313 206 q 266 60 313 110 q 94 -31 219 10 l 22 103 q 113 151 96 129 q 131 232 131 174 l 131 944 l 313 944 z "},"K":{"ha":881,"x_min":99,"x_max":881,"o":"m 279 944 l 279 549 l 633 965 l 767 863 l 486 538 l 881 0 l 657 0 l 368 400 l 279 296 l 279 0 l 99 0 l 99 944 l 279 944 z "},"L":{"ha":754,"x_min":117,"x_max":740,"o":"m 740 0 l 117 0 l 117 944 l 296 944 l 296 140 l 713 140 l 740 0 z "},"M":{"ha":1065,"x_min":117,"x_max":950,"o":"m 522 286 l 296 576 l 296 0 l 117 0 l 117 944 l 231 944 l 550 508 l 840 944 l 950 944 l 950 0 l 768 0 l 768 544 l 592 296 l 522 286 z "},"N":{"ha":1031,"x_min":117,"x_max":914,"o":"m 914 944 l 914 0 l 733 0 l 296 632 l 296 0 l 117 0 l 117 944 l 296 944 l 733 314 l 733 944 l 914 944 z "},"O":{"ha":1029,"x_min":79,"x_max":950,"o":"m 79 468 q 193 824 79 686 q 514 967 307 963 q 843 824 736 967 q 950 478 950 681 q 835 122 950 258 q 514 -19 721 -15 q 186 123 293 -19 q 79 468 79 265 m 267 469 q 326 226 267 321 q 513 132 386 132 q 694 217 626 132 q 763 478 763 301 q 703 719 763 625 q 517 814 643 814 q 336 721 406 814 q 267 469 267 628 z "},"P":{"ha":843,"x_min":117,"x_max":786,"o":"m 117 0 l 117 944 l 413 944 q 676 874 567 944 q 786 642 786 804 q 667 405 785 481 q 400 329 550 329 l 296 329 l 296 0 l 117 0 m 407 794 l 296 794 l 296 478 l 410 478 q 540 515 490 478 q 596 631 590 551 q 546 758 596 722 q 407 794 496 794 z "},"Q":{"ha":1029,"x_min":79,"x_max":950,"o":"m 833 -50 l 738 38 q 635 -3 690 11 q 514 -19 579 -18 q 186 123 293 -19 q 79 468 79 265 q 193 824 79 686 q 514 967 307 963 q 843 824 736 967 q 950 478 950 681 q 923 285 950 374 q 846 133 896 197 l 939 43 l 833 -50 m 267 469 q 326 226 267 321 q 513 132 386 132 q 565 138 539 132 q 614 154 592 144 l 499 261 l 621 354 l 721 257 q 751 352 740 297 q 763 478 763 407 q 703 719 763 625 q 517 814 643 814 q 336 721 406 814 q 267 469 267 628 z "},"R":{"ha":871,"x_min":117,"x_max":857,"o":"m 407 794 l 296 794 l 296 506 l 410 506 q 543 538 490 506 q 596 646 596 571 q 546 760 596 725 q 407 794 496 794 m 665 0 l 465 361 q 433 359 450 360 q 400 358 417 358 l 296 358 l 296 0 l 117 0 l 117 944 l 413 944 q 676 874 567 944 q 786 654 786 803 q 741 503 786 567 q 625 406 696 440 l 857 0 l 665 0 z "},"S":{"ha":767,"x_min":57,"x_max":708,"o":"m 115 208 q 225 164 158 186 q 351 142 292 142 q 478 168 436 142 q 521 244 521 194 q 465 328 521 292 q 340 400 408 365 q 149 521 240 451 q 58 714 57 590 q 144 894 60 821 q 383 967 228 967 q 525 944 454 967 q 650 896 596 922 l 590 751 q 497 791 547 772 q 386 810 447 810 q 285 786 326 810 q 244 714 244 763 q 297 626 244 661 q 422 553 350 592 q 616 432 524 501 q 707 242 708 363 q 615 56 706 129 q 354 -18 525 -18 q 201 8 294 -18 q 75 63 107 35 l 115 208 z "},"T":{"ha":808,"x_min":8,"x_max":801,"o":"m 8 944 l 772 944 l 801 803 l 478 803 l 478 0 l 296 0 l 296 803 l 8 803 l 8 944 z "},"U":{"ha":990,"x_min":108,"x_max":881,"o":"m 290 944 l 290 357 q 347 185 290 239 q 494 132 404 132 q 642 188 586 132 q 699 357 699 243 l 699 944 l 881 944 l 881 343 q 776 88 881 190 q 494 -15 672 -14 q 213 87 317 -17 q 110 343 110 190 l 108 944 l 290 944 z "},"V":{"ha":904,"x_min":8,"x_max":896,"o":"m 375 0 l 8 919 l 186 944 l 454 246 l 714 944 l 896 944 l 528 0 l 375 0 z "},"W":{"ha":1438,"x_min":8,"x_max":1431,"o":"m 938 0 l 714 675 l 499 0 l 339 0 l 8 919 l 186 944 l 421 257 l 633 944 l 801 944 l 1028 258 l 1249 944 l 1431 944 l 1099 0 l 938 0 z "},"X":{"ha":921,"x_min":8,"x_max":913,"o":"m 8 13 l 351 478 l 28 918 l 201 944 l 458 594 l 725 944 l 913 944 l 549 471 l 894 0 l 706 0 l 443 356 q 308 170 375 264 q 175 -14 242 76 l 8 13 z "},"Y":{"ha":840,"x_min":8,"x_max":833,"o":"m 325 0 l 325 368 l 8 921 l 194 944 l 414 550 l 643 944 l 833 944 l 506 361 l 506 0 l 325 0 z "},"Z":{"ha":804,"x_min":22,"x_max":782,"o":"m 771 803 l 217 140 l 761 140 l 782 0 l 43 0 l 22 140 l 561 803 l 83 803 l 63 944 l 750 944 l 771 803 z "},"a":{"ha":717,"x_min":67,"x_max":636,"o":"m 221 201 q 244 149 221 172 q 307 126 268 126 q 383 143 344 126 q 456 193 421 160 l 456 296 l 319 296 q 247 267 272 296 q 221 201 221 238 m 310 -17 q 126 44 186 -17 q 67 201 67 104 q 138 361 67 306 q 322 417 208 417 l 454 417 q 424 497 453 468 q 346 525 396 525 q 243 512 299 525 q 150 481 188 499 l 101 631 q 220 674 140 657 q 343 692 300 692 q 550 622 464 692 q 636 443 636 551 l 636 0 l 543 0 l 499 57 q 410 6 461 28 q 310 -17 360 -17 z "},"b":{"ha":807,"x_min":96,"x_max":749,"o":"m 275 981 l 275 653 q 360 688 315 675 q 442 700 406 700 q 669 597 590 700 q 749 342 749 494 q 667 86 749 189 q 442 -17 586 -17 q 336 3 394 -17 q 232 57 278 22 l 188 0 l 96 0 l 96 965 l 275 981 m 394 138 q 525 205 488 138 q 563 342 563 272 q 529 483 563 421 q 394 546 496 546 q 334 535 365 546 q 275 507 303 525 l 275 176 q 334 149 303 160 q 394 138 365 138 z "},"c":{"ha":675,"x_min":58,"x_max":631,"o":"m 407 538 q 288 480 331 538 q 244 336 244 422 q 288 193 244 249 q 407 138 331 138 q 492 149 454 138 q 579 183 531 161 l 631 53 q 516 0 583 17 q 406 -17 449 -17 q 150 79 242 -17 q 58 336 58 175 q 150 594 58 497 q 406 692 242 692 q 515 674 449 692 q 631 621 581 656 l 579 492 q 492 526 531 514 q 407 538 454 538 z "},"d":{"ha":822,"x_min":58,"x_max":728,"o":"m 413 546 q 281 479 318 546 q 244 342 244 413 q 278 200 244 263 q 413 138 311 138 q 480 152 444 138 q 546 186 515 167 l 546 497 q 480 532 515 518 q 413 546 444 546 m 728 981 l 728 0 l 633 0 l 583 65 q 476 5 538 26 q 364 -17 414 -17 q 138 86 217 -17 q 58 342 58 189 q 142 597 58 494 q 372 700 226 700 q 457 687 410 700 q 546 650 504 674 l 546 965 l 728 981 z "},"e":{"ha":757,"x_min":58,"x_max":704,"o":"m 435 -17 q 159 79 260 -17 q 58 336 58 175 q 149 594 58 497 q 397 692 240 692 q 630 587 556 692 q 704 339 704 482 l 704 283 l 250 283 q 311 177 263 217 q 439 138 360 138 q 522 149 485 138 q 607 183 558 161 l 660 53 q 545 0 613 17 q 435 -17 478 -17 m 533 404 q 483 505 519 472 q 393 538 447 538 q 300 503 338 538 q 251 404 263 469 l 533 404 z "},"f":{"ha":517,"x_min":8,"x_max":510,"o":"m 113 724 q 181 908 113 840 q 375 975 250 975 q 447 963 407 975 q 510 932 488 950 l 458 801 q 419 815 438 810 q 383 819 400 819 q 315 785 336 819 q 293 699 293 751 l 293 660 l 421 660 l 478 519 l 293 519 l 293 0 l 113 0 l 113 519 l 8 519 l 8 660 l 113 660 l 113 724 z "},"g":{"ha":822,"x_min":58,"x_max":728,"o":"m 413 546 q 281 479 318 546 q 244 342 244 413 q 278 200 244 263 q 413 138 311 138 q 480 152 444 138 q 546 186 515 167 l 546 497 q 480 532 515 518 q 413 546 444 546 m 728 674 l 728 1 q 645 -203 728 -121 q 383 -286 563 -286 q 258 -266 340 -286 q 122 -210 176 -246 l 176 -82 q 283 -126 239 -112 q 379 -142 328 -140 q 503 -102 460 -140 q 546 3 546 -64 l 546 38 q 454 -2 503 13 q 364 -17 406 -17 q 138 86 217 -17 q 58 342 58 189 q 142 597 58 494 q 372 700 226 700 q 485 678 422 700 q 592 618 547 657 l 633 674 l 728 674 z "},"h":{"ha":813,"x_min":96,"x_max":733,"o":"m 275 629 q 377 682 319 664 q 481 700 435 700 q 676 619 618 700 q 733 422 733 539 l 733 0 l 553 0 l 553 414 q 522 512 553 478 q 432 546 492 546 q 351 526 393 546 q 275 479 310 506 l 275 0 l 96 0 l 96 965 l 275 981 l 275 629 z "},"i":{"ha":356,"x_min":76,"x_max":279,"o":"m 176 972 q 249 943 219 972 q 279 871 279 914 q 249 799 279 828 q 176 769 219 769 q 106 799 135 769 q 76 871 76 828 q 106 943 76 914 q 176 972 135 972 m 267 674 l 267 0 l 86 0 l 86 674 l 267 674 z "},"j":{"ha":386,"x_min":-22,"x_max":304,"o":"m 201 972 q 274 943 244 972 q 304 871 304 914 q 274 799 304 828 q 201 769 244 769 q 129 799 158 769 q 100 871 100 828 q 129 943 100 914 q 201 972 158 972 m 293 674 l 293 -15 q 237 -169 293 -111 q 49 -269 181 -228 l -22 -132 q 81 -69 51 -106 q 111 28 111 -32 l 111 674 l 293 674 z "},"k":{"ha":732,"x_min":96,"x_max":724,"o":"m 275 981 l 275 428 l 564 693 l 665 565 l 476 400 l 724 0 l 517 0 l 347 285 l 275 221 l 275 0 l 96 0 l 96 965 l 275 981 z "},"l":{"ha":369,"x_min":96,"x_max":275,"o":"m 275 981 l 275 0 l 96 0 l 96 965 l 275 981 z "},"m":{"ha":1240,"x_min":86,"x_max":1161,"o":"m 665 594 q 780 672 708 643 q 908 700 851 700 q 1103 619 1046 700 q 1161 422 1161 539 l 1161 0 l 979 0 l 979 414 q 949 512 979 478 q 860 546 918 546 q 778 525 821 546 q 700 478 735 504 q 703 450 701 464 q 704 422 704 436 l 704 0 l 522 0 l 522 414 q 492 512 522 478 q 404 546 461 546 q 334 531 369 546 q 267 494 299 517 l 267 0 l 86 0 l 86 674 l 181 674 l 225 613 q 335 677 271 654 q 451 700 400 700 q 583 672 531 700 q 665 594 636 643 z "},"n":{"ha":806,"x_min":86,"x_max":725,"o":"m 235 601 q 349 674 281 647 q 472 700 418 700 q 667 619 610 700 q 725 422 725 539 l 725 0 l 544 0 l 544 414 q 514 512 544 478 q 425 546 483 546 q 344 526 386 546 q 267 479 301 506 l 267 0 l 86 0 l 86 674 l 181 674 l 235 601 z "},"o":{"ha":819,"x_min":58,"x_max":761,"o":"m 397 -17 q 148 81 238 -15 q 58 339 58 176 q 152 596 58 500 q 408 692 246 692 q 669 592 576 692 q 761 332 761 493 q 661 78 761 171 q 397 -17 561 -15 m 575 332 q 533 483 575 428 q 413 538 490 538 q 289 489 333 538 q 244 340 244 440 q 283 189 244 240 q 400 138 321 138 q 526 184 478 138 q 575 332 575 231 z "},"p":{"ha":807,"x_min":96,"x_max":749,"o":"m 394 138 q 525 205 488 138 q 563 342 563 272 q 529 483 563 421 q 394 546 496 546 q 334 535 365 546 q 275 507 303 525 l 275 176 q 334 149 303 160 q 394 138 365 138 m 96 674 l 188 674 l 226 624 q 333 679 272 658 q 442 700 394 700 q 669 597 590 700 q 749 342 749 494 q 667 86 749 189 q 442 -17 586 -17 q 360 -4 406 -17 q 275 31 315 8 l 275 -290 l 96 -304 l 96 674 z "},"q":{"ha":822,"x_min":58,"x_max":728,"o":"m 728 674 l 728 -290 l 546 -304 l 546 38 q 454 -2 503 13 q 364 -17 406 -17 q 138 86 217 -17 q 58 342 58 189 q 142 597 58 494 q 372 700 226 700 q 485 678 422 700 q 592 618 547 657 l 633 674 l 728 674 m 413 546 q 281 479 318 546 q 244 342 244 413 q 278 200 244 263 q 413 138 311 138 q 480 152 444 138 q 546 186 515 167 l 546 497 q 480 532 515 518 q 413 546 444 546 z "},"r":{"ha":497,"x_min":86,"x_max":492,"o":"m 456 674 l 492 529 q 385 503 446 529 q 267 425 325 476 l 267 0 l 86 0 l 86 674 l 181 674 l 240 575 q 342 642 282 611 q 456 674 401 674 z "},"s":{"ha":600,"x_min":43,"x_max":557,"o":"m 482 492 q 392 526 433 514 q 303 538 350 538 q 249 524 268 538 q 231 488 231 511 q 253 456 231 471 q 328 422 276 440 q 485 337 413 392 q 557 194 557 282 q 485 39 557 94 q 276 -17 414 -17 q 162 0 233 -17 q 43 53 90 17 l 97 183 q 191 149 146 161 q 274 138 236 138 q 350 151 324 138 q 376 188 376 165 q 350 238 376 215 q 267 278 324 260 q 115 353 186 304 q 43 486 43 403 q 114 637 43 582 q 306 692 185 692 q 417 674 349 692 q 536 621 485 656 l 482 492 z "},"t":{"ha":517,"x_min":8,"x_max":503,"o":"m 503 14 q 440 -16 481 -4 q 367 -28 399 -28 q 170 35 242 -28 q 99 215 99 99 l 99 533 l 8 533 l 8 672 l 99 672 l 99 832 l 278 864 l 278 672 l 400 672 l 456 533 l 278 533 l 278 247 q 303 160 278 194 q 376 126 328 126 q 413 131 394 126 q 450 144 431 135 l 503 14 z "},"u":{"ha":799,"x_min":79,"x_max":711,"o":"m 565 67 q 453 -2 519 24 q 332 -28 386 -28 q 137 53 194 -28 q 79 250 79 135 l 79 674 l 261 674 l 261 258 q 292 160 261 194 q 381 126 322 126 q 457 144 417 126 q 531 186 497 163 l 531 674 l 711 674 l 711 0 l 617 0 l 565 67 z "},"v":{"ha":694,"x_min":8,"x_max":688,"o":"m 267 0 l 8 649 l 194 674 l 350 265 l 497 674 l 688 674 l 422 0 l 267 0 z "},"w":{"ha":1049,"x_min":8,"x_max":1040,"o":"m 660 0 l 519 413 l 385 0 l 232 0 l 8 649 l 194 674 l 313 282 l 424 674 l 622 674 l 740 282 l 850 674 l 1040 674 l 811 0 l 660 0 z "},"x":{"ha":753,"x_min":8,"x_max":744,"o":"m 8 0 l 263 342 l 31 647 l 215 674 l 378 457 l 547 674 l 744 674 l 485 315 l 722 0 l 524 0 l 368 201 l 208 0 l 8 0 z "},"y":{"ha":694,"x_min":8,"x_max":688,"o":"m 217 -32 l 249 47 l 8 649 l 194 674 l 350 265 l 497 674 l 688 674 l 422 0 l 386 -89 q 274 -229 354 -171 q 104 -308 193 -287 l 40 -160 q 144 -109 89 -139 q 217 -32 199 -79 z "},"z":{"ha":624,"x_min":22,"x_max":601,"o":"m 588 571 l 263 146 l 588 146 l 601 0 l 46 0 l 22 96 l 343 525 l 74 525 l 39 674 l 578 674 l 588 571 z "},"ﬁ":{"ha":874,"x_min":8,"x_max":796,"o":"m 8 0 m 113 724 q 181 908 113 840 q 375 975 250 975 q 447 963 407 975 q 510 932 488 950 l 458 801 q 419 815 438 810 q 383 819 400 819 q 315 785 336 819 q 293 699 293 751 l 293 660 l 421 660 l 478 519 l 293 519 l 293 0 l 113 0 l 113 519 l 8 519 l 8 660 l 113 660 l 113 724 m 693 972 q 766 943 736 972 q 796 871 796 914 q 766 799 796 828 q 693 769 736 769 q 622 799 651 769 q 593 871 593 828 q 622 943 593 914 q 693 972 651 972 m 783 674 l 783 0 l 603 0 l 603 674 l 783 674 z "},"ﬂ":{"ha":888,"x_min":8,"x_max":792,"o":"m 8 0 m 113 724 q 181 908 113 840 q 375 975 250 975 q 447 963 407 975 q 510 932 488 950 l 458 801 q 419 815 438 810 q 383 819 400 819 q 315 785 336 819 q 293 699 293 751 l 293 660 l 421 660 l 478 519 l 293 519 l 293 0 l 113 0 l 113 519 l 8 519 l 8 660 l 113 660 l 113 724 m 792 981 l 792 0 l 613 0 l 613 965 l 792 981 z "},"`":{"ha":313,"x_min":22,"x_max":292,"o":"m 22 1046 l 208 1046 l 292 818 l 154 818 l 22 1046 z "},"¨":{"ha":490,"x_min":22,"x_max":468,"o":"m 114 1017 q 176 990 151 1017 q 201 926 201 964 q 176 863 201 889 q 114 838 151 838 q 49 863 75 838 q 22 926 22 889 q 49 990 22 964 q 114 1017 75 1017 m 378 1017 q 442 990 417 1017 q 468 926 468 964 q 442 863 468 889 q 378 838 417 838 q 315 863 342 838 q 288 926 288 889 q 315 990 288 964 q 378 1017 342 1017 z "},"¯":{"ha":407,"x_min":22,"x_max":386,"o":"m 22 994 l 386 994 l 386 851 l 22 851 l 22 994 z "},"´":{"ha":313,"x_min":22,"x_max":292,"o":"m 106 1046 l 292 1046 l 160 818 l 22 818 l 106 1046 z "},"ˆ":{"ha":564,"x_min":22,"x_max":543,"o":"m 193 818 l 22 818 l 233 1046 l 332 1046 l 543 818 l 378 818 l 286 908 l 193 818 z "},"ˇ":{"ha":564,"x_min":22,"x_max":543,"o":"m 22 1046 l 193 1046 l 286 956 l 378 1046 l 543 1046 l 332 818 l 233 818 l 22 1046 z "},"˘":{"ha":453,"x_min":22,"x_max":431,"o":"m 431 1046 q 381 889 431 958 q 226 818 331 819 q 72 889 122 819 q 22 1046 22 958 l 146 1046 q 163 978 146 1010 q 226 947 181 947 q 290 978 271 947 q 310 1046 310 1010 l 431 1046 z "},"˙":{"ha":249,"x_min":22,"x_max":225,"o":"m 125 1029 q 197 999 168 1029 q 225 926 225 969 q 197 854 225 883 q 125 825 168 825 q 52 854 82 825 q 22 926 22 883 q 52 999 22 969 q 125 1029 82 1029 z "},"˚":{"ha":342,"x_min":22,"x_max":319,"o":"m 171 1101 q 275 1061 231 1101 q 319 961 319 1021 q 275 863 319 901 q 171 825 231 825 q 67 863 111 825 q 22 961 22 901 q 67 1061 22 1021 q 171 1101 111 1101 m 171 906 q 209 922 193 906 q 225 961 225 939 q 209 999 225 983 q 171 1015 193 1015 q 132 999 149 1015 q 115 961 115 983 q 132 922 115 939 q 171 906 149 906 z "},"˜":{"ha":500,"x_min":24,"x_max":478,"o":"m 143 833 l 24 833 q 70 963 24 926 q 172 1000 117 1000 q 256 976 224 1000 q 328 951 289 951 q 354 965 343 951 q 365 994 365 978 l 478 994 q 431 863 478 900 q 329 826 385 826 q 249 851 278 826 q 182 876 219 876 q 155 862 167 876 q 143 833 143 847 z "},"˝":{"ha":558,"x_min":22,"x_max":538,"o":"m 365 1046 l 538 1046 l 404 818 l 282 818 l 365 1046 m 106 1046 l 276 1046 l 144 818 l 22 818 l 106 1046 z "},"˛":{"ha":347,"x_min":22,"x_max":325,"o":"m 75 7 l 235 7 q 194 -49 215 -11 q 174 -115 174 -86 q 184 -142 174 -131 q 217 -154 194 -154 q 242 -148 225 -154 q 274 -131 258 -142 l 325 -242 q 257 -277 292 -267 q 183 -287 222 -287 q 67 -241 111 -287 q 22 -131 22 -194 q 40 -57 22 -100 q 75 7 57 -14 z "},"¸":{"ha":351,"x_min":22,"x_max":329,"o":"m 128 18 l 257 18 l 232 -40 q 301 -92 274 -57 q 329 -164 329 -128 q 276 -272 329 -237 q 154 -307 222 -307 q 86 -297 128 -307 q 22 -268 44 -286 l 64 -162 q 109 -181 82 -172 q 154 -190 136 -190 q 186 -185 171 -190 q 201 -167 201 -181 q 168 -128 201 -146 q 79 -104 135 -110 l 128 18 z "},"":{"ha":242,"x_min":14,"x_max":219,"o":"m 117 -29 q 190 -64 160 -29 q 219 -154 219 -99 q 172 -297 219 -232 q 58 -394 125 -362 l 19 -310 q 60 -282 38 -303 q 92 -232 82 -261 q 40 -201 67 -232 q 14 -132 14 -171 q 44 -62 14 -94 q 117 -29 74 -29 z "},"Þ":{"ha":843,"x_min":117,"x_max":786,"o":"m 296 944 l 296 786 l 413 786 q 676 717 567 786 q 786 485 786 647 q 667 247 785 322 q 400 171 550 171 l 296 171 l 296 0 l 117 0 l 117 944 l 296 944 m 407 639 l 296 639 l 296 319 l 410 319 q 540 358 490 319 q 596 475 590 396 q 546 602 596 565 q 407 639 496 639 z "},"Ð":{"ha":986,"x_min":25,"x_max":906,"o":"m 471 -1 l 471 0 l 125 0 l 125 404 l 40 404 l 25 544 l 125 544 l 125 944 l 471 944 q 799 813 692 946 q 906 478 906 681 q 792 131 906 258 q 471 -1 678 3 m 410 404 l 307 404 l 307 151 l 468 151 q 651 226 582 151 q 719 478 719 301 q 660 708 719 625 q 476 792 601 792 l 307 792 l 307 544 l 397 544 l 410 404 z "},"Æ":{"ha":1338,"x_min":0,"x_max":1308,"o":"m 0 25 l 629 944 l 1214 944 l 1240 803 l 829 803 l 829 549 l 1081 549 l 1110 406 l 829 406 l 829 140 l 1281 140 l 1308 0 l 647 0 l 647 222 l 325 222 l 172 0 l 0 25 m 422 368 l 647 368 l 647 697 l 422 368 z "},"Đ":{"ha":986,"x_min":25,"x_max":906,"o":"m 471 -1 l 471 0 l 125 0 l 125 404 l 40 404 l 25 544 l 125 544 l 125 944 l 471 944 q 799 813 692 946 q 906 478 906 681 q 792 131 906 258 q 471 -1 678 3 m 410 404 l 307 404 l 307 151 l 468 151 q 651 226 582 151 q 719 478 719 301 q 660 708 719 625 q 476 792 601 792 l 307 792 l 307 544 l 397 544 l 410 404 z "},"Ł":{"ha":772,"x_min":8,"x_max":757,"o":"m 757 0 l 133 0 l 133 300 l 76 257 l 8 383 l 133 478 l 133 944 l 314 944 l 314 614 l 446 714 l 515 588 l 314 438 l 314 140 l 731 140 l 757 0 z "},"Œ":{"ha":1403,"x_min":79,"x_max":1372,"o":"m 714 775 q 618 803 653 793 q 524 813 583 813 q 339 721 411 813 q 267 469 267 629 q 329 232 267 332 q 511 132 392 132 q 620 144 572 132 q 714 175 668 157 l 714 775 m 1372 0 l 714 0 l 714 14 q 615 -10 667 0 q 521 -19 564 -19 q 190 122 300 -19 q 79 468 79 264 q 201 825 79 686 q 529 964 322 964 q 611 955 561 964 q 714 928 661 946 l 714 944 l 1276 944 l 1306 803 l 893 803 l 893 549 l 1146 549 l 1175 406 l 893 406 l 893 140 l 1346 140 l 1372 0 z "},"Ø":{"ha":1029,"x_min":79,"x_max":950,"o":"m 79 468 q 193 824 79 686 q 514 967 307 963 q 843 824 736 967 q 950 478 950 681 q 835 122 950 258 q 514 -19 721 -15 q 186 123 293 -19 q 79 468 79 265 m 517 814 q 336 721 406 814 q 267 469 267 628 q 281 335 267 397 q 324 231 296 274 l 565 810 q 542 813 553 811 q 517 814 531 814 m 474 135 q 493 133 483 133 q 513 132 503 132 q 694 217 626 132 q 763 478 763 301 q 750 602 763 544 q 714 703 738 660 l 474 135 z "},"ß":{"ha":889,"x_min":96,"x_max":833,"o":"m 96 657 q 181 887 96 799 q 422 975 267 975 q 666 907 567 975 q 765 706 765 839 q 733 594 765 650 q 653 517 700 539 q 776 432 718 500 q 833 271 833 364 q 741 73 833 146 q 497 0 649 0 l 358 0 l 358 149 l 485 149 q 596 185 549 149 q 643 276 643 221 q 599 376 643 336 q 497 415 556 415 l 367 415 l 367 560 l 415 560 q 533 599 490 560 q 576 693 576 639 q 533 786 576 753 q 431 819 490 819 q 319 775 363 819 q 275 654 275 731 l 275 0 l 96 0 l 96 657 z "},"ð":{"ha":776,"x_min":43,"x_max":701,"o":"m 563 849 l 511 808 q 648 615 594 726 q 701 367 701 503 q 600 80 701 176 q 346 -17 499 -17 q 127 75 211 -17 q 43 283 43 167 q 128 481 43 397 q 351 565 214 565 q 438 549 394 565 q 517 507 482 532 q 465 619 499 567 q 388 714 431 672 l 238 597 l 168 724 l 267 801 q 202 831 236 818 q 136 850 168 843 l 217 971 q 306 942 261 961 q 396 897 351 924 l 494 975 l 563 849 m 206 276 q 244 176 206 221 q 350 131 283 131 q 480 182 433 131 q 538 314 526 233 q 471 397 519 358 q 351 436 422 436 q 244 386 283 436 q 206 276 206 336 z "},"þ":{"ha":807,"x_min":96,"x_max":749,"o":"m 394 138 q 525 205 488 138 q 563 342 563 272 q 529 483 563 421 q 394 546 496 546 q 334 535 365 546 q 275 507 303 525 l 275 176 q 334 149 303 160 q 394 138 365 138 m 275 981 l 275 653 q 360 688 315 675 q 442 700 406 700 q 669 597 590 700 q 749 342 749 494 q 667 86 749 189 q 442 -17 586 -17 q 360 -4 406 -17 q 275 31 315 8 l 275 -290 l 96 -304 l 96 965 l 275 981 z "},"ƒ":{"ha":517,"x_min":-106,"x_max":510,"o":"m 293 76 q 224 -104 293 -37 q 31 -171 156 -171 q -42 -159 -1 -171 q -106 -129 -83 -147 l -54 0 q -15 -13 -35 -8 q 22 -18 4 -18 q 91 16 69 -18 q 113 101 113 50 l 113 519 l 8 519 l 8 660 l 113 660 l 113 724 q 181 908 113 840 q 375 975 250 975 q 447 963 407 975 q 510 932 488 950 l 458 801 q 419 815 438 810 q 383 819 400 819 q 315 785 336 819 q 293 699 293 751 l 293 660 l 421 660 l 478 519 l 293 519 l 293 76 z "},"æ":{"ha":1150,"x_min":67,"x_max":1099,"o":"m 310 -17 q 126 42 186 -17 q 67 196 67 100 q 138 352 67 300 q 322 404 208 404 l 456 404 l 456 407 q 426 494 456 463 q 346 525 397 525 q 243 512 299 525 q 150 481 188 499 l 101 631 q 220 674 140 657 q 343 692 300 692 q 463 669 407 692 q 558 610 518 647 q 660 670 601 649 q 789 692 718 692 q 1024 587 949 692 q 1099 339 1099 482 l 1099 283 l 643 283 q 703 177 656 217 q 832 138 751 138 q 915 149 879 138 q 1000 183 951 161 l 1054 53 q 939 0 1007 17 q 828 -17 871 -17 q 658 13 732 -17 q 538 94 585 42 q 438 19 503 54 q 310 -17 374 -17 m 925 404 q 876 505 913 472 q 786 538 839 538 q 694 503 732 538 q 643 404 656 469 l 925 404 m 221 196 q 244 147 221 167 q 307 126 268 126 q 390 147 347 126 q 469 208 433 168 q 460 245 464 226 q 453 283 457 264 l 319 283 q 247 258 272 283 q 221 196 221 232 z "},"đ":{"ha":822,"x_min":58,"x_max":801,"o":"m 413 546 q 281 479 318 546 q 244 342 244 413 q 278 200 244 263 q 413 138 311 138 q 480 152 444 138 q 546 186 515 167 l 546 497 q 480 532 515 518 q 413 546 444 546 m 801 757 l 728 757 l 728 0 l 633 0 l 583 65 q 476 5 538 26 q 364 -17 414 -17 q 138 86 217 -17 q 58 342 58 189 q 142 597 58 494 q 372 700 226 700 q 457 687 410 700 q 546 650 504 674 l 546 757 l 439 757 l 422 889 l 546 889 l 546 965 l 728 981 l 728 889 l 786 889 l 801 757 z "},"œ":{"ha":1226,"x_min":58,"x_max":1176,"o":"m 435 -17 q 159 79 260 -17 q 58 336 58 175 q 159 594 58 497 q 435 690 260 690 q 541 676 476 690 q 653 626 606 661 q 749 674 696 657 q 867 692 803 692 q 1101 587 1026 692 q 1176 339 1176 482 l 1176 283 l 721 283 q 781 177 733 217 q 908 138 829 138 q 994 149 957 138 q 1078 183 1031 161 l 1132 53 q 1017 0 1085 17 q 906 -17 949 -17 q 769 1 831 -17 q 660 53 707 19 q 545 0 613 17 q 435 -17 478 -17 m 1003 404 q 953 505 990 472 q 865 538 917 538 q 771 503 808 538 q 722 404 733 469 l 1003 404 m 565 165 q 538 244 547 201 q 529 336 529 288 q 538 429 529 386 q 563 510 546 472 q 503 530 532 522 q 439 538 474 538 q 294 480 343 538 q 244 336 244 422 q 294 193 244 249 q 439 138 343 138 q 504 144 475 138 q 565 165 533 151 z "},"ĺ":{"ha":369,"x_min":96,"x_max":375,"o":"m 188 1163 l 375 1163 l 250 989 l 113 989 l 188 1163 m 275 951 l 275 0 l 96 0 l 96 935 l 275 951 z "},"ł":{"ha":369,"x_min":-69,"x_max":439,"o":"m 439 618 l 275 494 l 275 0 l 96 0 l 96 357 l 0 286 l -69 411 l 96 536 l 96 965 l 275 981 l 275 672 l 368 743 l 439 618 z "},"ı":{"ha":356,"x_min":86,"x_max":267,"o":"m 267 674 l 267 0 l 86 0 l 86 674 l 267 674 z "},"ø":{"ha":819,"x_min":58,"x_max":761,"o":"m 397 -17 q 148 81 238 -15 q 58 339 58 176 q 152 596 58 500 q 408 692 246 692 q 669 592 576 692 q 761 332 761 493 q 661 78 761 171 q 397 -17 561 -15 m 425 538 l 413 538 q 289 489 333 538 q 244 340 244 440 q 248 288 244 313 q 257 242 251 264 l 425 538 m 400 138 q 526 184 478 138 q 575 332 575 231 q 570 385 575 360 q 558 432 565 411 l 388 138 q 393 137 389 136 q 400 138 397 138 z "},"ģ":{"ha":822,"x_min":58,"x_max":728,"o":"m 375 750 q 301 785 332 750 q 271 876 271 821 q 319 1017 271 951 q 432 1117 367 1082 l 471 1031 q 431 1004 453 1025 q 400 954 408 983 q 450 923 422 954 q 478 854 478 892 q 448 783 478 817 q 375 750 418 750 m 413 546 q 281 479 318 546 q 244 342 244 413 q 278 200 244 263 q 413 138 311 138 q 480 152 444 138 q 546 186 515 167 l 546 497 q 480 532 515 518 q 413 546 444 546 m 728 674 l 728 1 q 645 -203 728 -121 q 383 -286 563 -286 q 258 -266 340 -286 q 122 -210 176 -246 l 176 -82 q 283 -126 239 -112 q 379 -142 328 -140 q 503 -102 460 -140 q 546 3 546 -64 l 546 38 q 454 -2 503 13 q 364 -17 406 -17 q 138 86 217 -17 q 58 342 58 189 q 142 597 58 494 q 372 700 226 700 q 485 678 422 700 q 592 618 547 657 l 633 674 l 728 674 z "},"À":{"ha":904,"x_min":8,"x_max":896,"o":"m 299 1254 l 485 1254 l 568 1026 l 431 1026 l 299 1254 m 449 697 l 325 368 l 575 368 l 449 697 m 529 944 l 896 25 l 715 0 l 631 222 l 272 222 l 189 0 l 8 0 l 376 944 l 529 944 z "},"Á":{"ha":904,"x_min":8,"x_max":896,"o":"m 422 1254 l 608 1254 l 476 1026 l 339 1026 l 422 1254 m 449 697 l 325 368 l 575 368 l 449 697 m 529 944 l 896 25 l 715 0 l 631 222 l 272 222 l 189 0 l 8 0 l 376 944 l 529 944 z "},"Â":{"ha":904,"x_min":8,"x_max":896,"o":"m 354 1026 l 183 1026 l 394 1254 l 493 1254 l 704 1026 l 539 1026 l 447 1117 l 354 1026 m 449 697 l 325 368 l 575 368 l 449 697 m 529 944 l 896 25 l 715 0 l 631 222 l 272 222 l 189 0 l 8 0 l 376 944 l 529 944 z "},"Ã":{"ha":904,"x_min":8,"x_max":896,"o":"m 333 1042 l 214 1042 q 260 1172 214 1135 q 363 1208 307 1208 q 447 1184 414 1208 q 518 1160 479 1160 q 544 1173 533 1160 q 556 1203 556 1186 l 668 1203 q 622 1072 668 1108 q 519 1035 575 1035 q 439 1060 468 1035 q 372 1085 410 1085 q 345 1070 357 1085 q 333 1042 333 1056 m 449 697 l 325 368 l 575 368 l 449 697 m 529 944 l 896 25 l 715 0 l 631 222 l 272 222 l 189 0 l 8 0 l 376 944 l 529 944 z "},"Ä":{"ha":904,"x_min":8,"x_max":896,"o":"m 315 1225 q 378 1199 353 1225 q 403 1135 403 1172 q 378 1072 403 1097 q 315 1046 353 1046 q 250 1072 276 1046 q 224 1135 224 1097 q 250 1199 224 1172 q 315 1225 276 1225 m 579 1225 q 644 1199 618 1225 q 669 1135 669 1172 q 644 1072 669 1097 q 579 1046 618 1046 q 516 1072 543 1046 q 489 1135 489 1097 q 516 1199 489 1172 q 579 1225 543 1225 m 449 697 l 325 368 l 575 368 l 449 697 m 529 944 l 896 25 l 715 0 l 631 222 l 272 222 l 189 0 l 8 0 l 376 944 l 529 944 z "},"Å":{"ha":904,"x_min":8,"x_max":896,"o":"m 447 1310 q 551 1269 507 1310 q 596 1169 596 1229 q 551 1072 596 1110 q 447 1033 507 1033 q 343 1072 388 1033 q 299 1169 299 1110 q 343 1269 299 1229 q 447 1310 388 1310 m 447 1114 q 485 1131 469 1114 q 501 1169 501 1147 q 485 1208 501 1192 q 447 1224 469 1224 q 408 1208 425 1224 q 392 1169 392 1192 q 408 1131 392 1147 q 447 1114 425 1114 m 449 697 l 325 368 l 575 368 l 449 697 m 529 944 l 896 25 l 715 0 l 631 222 l 272 222 l 189 0 l 8 0 l 376 944 l 529 944 z "},"Ă":{"ha":904,"x_min":8,"x_max":896,"o":"m 653 1254 q 603 1097 653 1167 q 449 1026 553 1028 q 294 1097 344 1028 q 244 1254 244 1167 l 368 1254 q 385 1187 368 1218 q 449 1156 403 1156 q 513 1187 493 1156 q 532 1254 532 1218 l 653 1254 m 449 697 l 325 368 l 575 368 l 449 697 m 529 944 l 896 25 l 715 0 l 631 222 l 272 222 l 189 0 l 8 0 l 376 944 l 529 944 z "},"Ą":{"ha":904,"x_min":8,"x_max":963,"o":"m 713 7 l 631 222 l 272 222 l 189 0 l 8 0 l 376 944 l 529 944 l 896 25 q 844 -40 876 7 q 811 -115 811 -86 q 822 -142 811 -131 q 854 -154 832 -154 q 879 -148 863 -154 q 911 -131 896 -142 l 963 -242 q 894 -277 929 -267 q 821 -287 860 -287 q 704 -241 749 -287 q 660 -131 660 -194 q 677 -57 660 -100 q 713 7 694 -14 m 449 697 l 325 368 l 575 368 l 449 697 z "},"Ā":{"ha":904,"x_min":8,"x_max":896,"o":"m 261 1203 l 625 1203 l 625 1060 l 261 1060 l 261 1203 m 449 697 l 325 368 l 575 368 l 449 697 m 529 944 l 896 25 l 715 0 l 631 222 l 272 222 l 189 0 l 8 0 l 376 944 l 529 944 z "},"Ç":{"ha":824,"x_min":79,"x_max":765,"o":"m 701 774 q 601 802 640 792 q 501 813 563 813 q 328 721 389 813 q 267 469 267 629 q 318 232 267 332 q 490 132 369 132 q 602 144 550 132 q 697 175 654 157 l 765 42 q 665 5 722 19 q 556 -15 608 -10 l 546 -40 q 615 -92 588 -57 q 643 -164 643 -128 q 590 -272 643 -237 q 468 -307 536 -307 q 400 -297 442 -307 q 336 -268 358 -286 l 378 -162 q 423 -181 396 -172 q 468 -190 450 -190 q 500 -185 485 -190 q 515 -167 515 -181 q 482 -128 515 -146 q 393 -104 449 -110 l 428 -14 q 163 144 246 8 q 79 468 79 281 q 190 825 79 686 q 507 964 300 964 q 622 950 549 964 q 757 903 696 936 l 701 774 z "},"Ć":{"ha":824,"x_min":79,"x_max":765,"o":"m 481 1254 l 667 1254 l 535 1026 l 397 1026 l 481 1254 m 701 774 q 601 802 640 792 q 501 813 563 813 q 328 721 389 813 q 267 469 267 629 q 318 232 267 332 q 490 132 369 132 q 602 144 550 132 q 697 175 654 157 l 765 42 q 635 -3 711 14 q 500 -19 558 -19 q 179 122 279 -19 q 79 468 79 264 q 190 825 79 686 q 507 964 300 964 q 622 950 549 964 q 757 903 696 936 l 701 774 z "},"Č":{"ha":824,"x_min":79,"x_max":765,"o":"m 242 1254 l 413 1254 l 506 1164 l 597 1254 l 763 1254 l 551 1026 l 453 1026 l 242 1254 m 701 774 q 601 802 640 792 q 501 813 563 813 q 328 721 389 813 q 267 469 267 629 q 318 232 267 332 q 490 132 369 132 q 602 144 550 132 q 697 175 654 157 l 765 42 q 635 -3 711 14 q 500 -19 558 -19 q 179 122 279 -19 q 79 468 79 264 q 190 825 79 686 q 507 964 300 964 q 622 950 549 964 q 757 903 696 936 l 701 774 z "},"Ď":{"ha":976,"x_min":117,"x_max":896,"o":"m 182 1254 l 353 1254 l 446 1164 l 538 1254 l 703 1254 l 492 1026 l 393 1026 l 182 1254 m 461 -1 l 461 0 l 117 0 l 117 944 l 461 944 q 789 813 682 946 q 896 478 896 681 q 782 131 896 258 q 461 -1 668 3 m 468 792 l 296 792 l 296 151 l 458 151 q 641 226 572 151 q 710 478 710 301 q 651 708 710 625 q 468 792 593 792 z "},"È":{"ha":806,"x_min":117,"x_max":778,"o":"m 258 1254 l 444 1254 l 528 1026 l 390 1026 l 258 1254 m 778 0 l 117 0 l 117 944 l 681 944 l 708 803 l 296 803 l 296 549 l 549 549 l 578 406 l 296 406 l 296 140 l 749 140 l 778 0 z "},"É":{"ha":806,"x_min":117,"x_max":778,"o":"m 382 1254 l 568 1254 l 436 1026 l 299 1026 l 382 1254 m 778 0 l 117 0 l 117 944 l 681 944 l 708 803 l 296 803 l 296 549 l 549 549 l 578 406 l 296 406 l 296 140 l 749 140 l 778 0 z "},"Ê":{"ha":806,"x_min":117,"x_max":778,"o":"m 314 1026 l 143 1026 l 354 1254 l 453 1254 l 664 1026 l 499 1026 l 407 1117 l 314 1026 m 778 0 l 117 0 l 117 944 l 681 944 l 708 803 l 296 803 l 296 549 l 549 549 l 578 406 l 296 406 l 296 140 l 749 140 l 778 0 z "},"Ë":{"ha":806,"x_min":117,"x_max":778,"o":"m 275 1225 q 338 1199 313 1225 q 363 1135 363 1172 q 338 1072 363 1097 q 275 1046 313 1046 q 210 1072 236 1046 q 183 1135 183 1097 q 210 1199 183 1172 q 275 1225 236 1225 m 539 1225 q 603 1199 578 1225 q 629 1135 629 1172 q 603 1072 629 1097 q 539 1046 578 1046 q 476 1072 503 1046 q 449 1135 449 1097 q 476 1199 449 1172 q 539 1225 503 1225 m 778 0 l 117 0 l 117 944 l 681 944 l 708 803 l 296 803 l 296 549 l 549 549 l 578 406 l 296 406 l 296 140 l 749 140 l 778 0 z "},"Ē":{"ha":806,"x_min":117,"x_max":778,"o":"m 221 1203 l 585 1203 l 585 1060 l 221 1060 l 221 1203 m 778 0 l 117 0 l 117 944 l 681 944 l 708 803 l 296 803 l 296 549 l 549 549 l 578 406 l 296 406 l 296 140 l 749 140 l 778 0 z "},"Ė":{"ha":806,"x_min":117,"x_max":778,"o":"m 407 1238 q 478 1208 450 1238 q 507 1135 507 1178 q 478 1063 507 1092 q 407 1033 450 1033 q 334 1063 364 1033 q 304 1135 304 1092 q 334 1208 304 1178 q 407 1238 364 1238 m 778 0 l 117 0 l 117 944 l 681 944 l 708 803 l 296 803 l 296 549 l 549 549 l 578 406 l 296 406 l 296 140 l 749 140 l 778 0 z "},"Ę":{"ha":806,"x_min":117,"x_max":778,"o":"m 778 0 l 681 0 q 644 -55 663 -21 q 626 -115 626 -89 q 637 -142 626 -131 q 669 -154 647 -154 q 694 -148 678 -154 q 726 -131 711 -142 l 778 -242 q 710 -277 744 -267 q 636 -287 675 -287 q 519 -241 564 -287 q 475 -131 475 -194 q 490 -62 475 -103 q 522 0 504 -22 l 117 0 l 117 944 l 681 944 l 708 803 l 296 803 l 296 549 l 549 549 l 578 406 l 296 406 l 296 140 l 749 140 l 778 0 z "},"Ě":{"ha":806,"x_min":117,"x_max":778,"o":"m 143 1254 l 314 1254 l 407 1164 l 499 1254 l 664 1254 l 453 1026 l 354 1026 l 143 1254 m 778 0 l 117 0 l 117 944 l 681 944 l 708 803 l 296 803 l 296 549 l 549 549 l 578 406 l 296 406 l 296 140 l 749 140 l 778 0 z "},"Ğ":{"ha":911,"x_min":79,"x_max":815,"o":"m 749 1254 q 699 1097 749 1167 q 544 1026 649 1028 q 390 1097 440 1028 q 340 1254 340 1167 l 464 1254 q 481 1187 464 1218 q 544 1156 499 1156 q 608 1187 589 1156 q 628 1254 628 1218 l 749 1254 m 471 517 l 815 517 l 815 50 q 685 1 761 21 q 521 -19 608 -19 q 190 123 300 -19 q 79 468 79 265 q 204 824 79 683 q 543 964 329 964 q 662 950 585 964 q 801 903 739 936 l 744 774 q 645 802 683 792 q 546 813 607 813 q 344 727 421 813 q 267 469 267 642 q 330 223 267 314 q 517 132 393 132 q 596 137 563 132 q 654 147 629 142 l 654 378 l 456 378 l 471 517 z "},"Ì":{"ha":413,"x_min":57,"x_max":326,"o":"m 57 1254 l 243 1254 l 326 1026 l 189 1026 l 57 1254 m 296 944 l 296 0 l 117 0 l 117 944 l 296 944 z "},"Í":{"ha":413,"x_min":97,"x_max":367,"o":"m 181 1254 l 367 1254 l 235 1026 l 97 1026 l 181 1254 m 296 944 l 296 0 l 117 0 l 117 944 l 296 944 z "},"Î":{"ha":413,"x_min":-58,"x_max":463,"o":"m 113 1026 l -58 1026 l 153 1254 l 251 1254 l 463 1026 l 297 1026 l 206 1117 l 113 1026 m 296 944 l 296 0 l 117 0 l 117 944 l 296 944 z "},"Ï":{"ha":413,"x_min":-18,"x_max":428,"o":"m 74 1225 q 136 1199 111 1225 q 161 1135 161 1172 q 136 1072 161 1097 q 74 1046 111 1046 q 8 1072 35 1046 q -18 1135 -18 1097 q 8 1199 -18 1172 q 74 1225 35 1225 m 338 1225 q 402 1199 376 1225 q 428 1135 428 1172 q 402 1072 428 1097 q 338 1046 376 1046 q 274 1072 301 1046 q 247 1135 247 1097 q 274 1199 247 1172 q 338 1225 301 1225 m 296 944 l 296 0 l 117 0 l 117 944 l 296 944 z "},"Ī":{"ha":413,"x_min":19,"x_max":383,"o":"m 19 1203 l 383 1203 l 383 1060 l 19 1060 l 19 1203 m 296 944 l 296 0 l 117 0 l 117 944 l 296 944 z "},"Į":{"ha":413,"x_min":78,"x_max":381,"o":"m 296 944 l 296 0 l 283 0 q 247 -55 265 -21 q 229 -115 229 -89 q 240 -142 229 -131 q 272 -154 250 -154 q 297 -148 281 -154 q 329 -131 314 -142 l 381 -242 q 313 -277 347 -267 q 239 -287 278 -287 q 122 -241 167 -287 q 78 -131 78 -194 q 92 -62 78 -103 q 125 0 107 -22 l 117 0 l 117 944 l 296 944 z "},"İ":{"ha":413,"x_min":103,"x_max":306,"o":"m 206 1238 q 277 1208 249 1238 q 306 1135 306 1178 q 277 1063 306 1092 q 206 1033 249 1033 q 133 1063 163 1033 q 103 1135 103 1092 q 133 1208 103 1178 q 206 1238 163 1238 m 296 944 l 296 0 l 117 0 l 117 944 l 296 944 z "},"Ĺ":{"ha":754,"x_min":117,"x_max":740,"o":"m 219 1254 l 406 1254 l 274 1026 l 136 1026 l 219 1254 m 740 0 l 117 0 l 117 944 l 296 944 l 296 140 l 713 140 l 740 0 z "},"Ľ":{"ha":754,"x_min":117,"x_max":740,"o":"m 567 1031 q 641 997 610 1031 q 672 907 672 963 q 620 744 672 829 q 489 615 568 660 l 450 700 q 509 758 485 731 q 543 829 533 785 q 492 860 519 829 q 465 928 465 890 q 494 997 465 964 q 567 1031 524 1031 m 740 0 l 117 0 l 117 944 l 296 944 l 296 140 l 713 140 l 740 0 z "},"Ñ":{"ha":1031,"x_min":117,"x_max":914,"o":"m 413 1042 l 293 1042 q 340 1172 293 1135 q 442 1208 386 1208 q 526 1184 493 1208 q 597 1160 558 1160 q 624 1173 613 1160 q 635 1203 635 1186 l 747 1203 q 701 1072 747 1108 q 599 1035 654 1035 q 518 1060 547 1035 q 451 1085 489 1085 q 424 1070 436 1085 q 413 1042 413 1056 m 914 944 l 914 0 l 733 0 l 296 632 l 296 0 l 117 0 l 117 944 l 296 944 l 733 314 l 733 944 l 914 944 z "},"Ń":{"ha":1031,"x_min":117,"x_max":914,"o":"m 501 1254 l 688 1254 l 556 1026 l 418 1026 l 501 1254 m 914 944 l 914 0 l 733 0 l 296 632 l 296 0 l 117 0 l 117 944 l 296 944 l 733 314 l 733 944 l 914 944 z "},"Ň":{"ha":1031,"x_min":117,"x_max":914,"o":"m 263 1254 l 433 1254 l 526 1164 l 618 1254 l 783 1254 l 572 1026 l 474 1026 l 263 1254 m 914 944 l 914 0 l 733 0 l 296 632 l 296 0 l 117 0 l 117 944 l 296 944 l 733 314 l 733 944 l 914 944 z "},"Ò":{"ha":1029,"x_min":79,"x_max":950,"o":"m 365 1254 l 551 1254 l 635 1026 l 497 1026 l 365 1254 m 79 468 q 193 824 79 686 q 514 967 307 963 q 843 824 736 967 q 950 478 950 681 q 835 122 950 258 q 514 -19 721 -15 q 186 123 293 -19 q 79 468 79 265 m 267 469 q 326 226 267 321 q 513 132 386 132 q 694 217 626 132 q 763 478 763 301 q 703 719 763 625 q 517 814 643 814 q 336 721 406 814 q 267 469 267 628 z "},"Ó":{"ha":1029,"x_min":79,"x_max":950,"o":"m 489 1254 l 675 1254 l 543 1026 l 406 1026 l 489 1254 m 79 468 q 193 824 79 686 q 514 967 307 963 q 843 824 736 967 q 950 478 950 681 q 835 122 950 258 q 514 -19 721 -15 q 186 123 293 -19 q 79 468 79 265 m 267 469 q 326 226 267 321 q 513 132 386 132 q 694 217 626 132 q 763 478 763 301 q 703 719 763 625 q 517 814 643 814 q 336 721 406 814 q 267 469 267 628 z "},"Ô":{"ha":1029,"x_min":79,"x_max":950,"o":"m 421 1026 l 250 1026 l 461 1254 l 560 1254 l 771 1026 l 606 1026 l 514 1117 l 421 1026 m 79 468 q 193 824 79 686 q 514 967 307 963 q 843 824 736 967 q 950 478 950 681 q 835 122 950 258 q 514 -19 721 -15 q 186 123 293 -19 q 79 468 79 265 m 267 469 q 326 226 267 321 q 513 132 386 132 q 694 217 626 132 q 763 478 763 301 q 703 719 763 625 q 517 814 643 814 q 336 721 406 814 q 267 469 267 628 z "},"Õ":{"ha":1029,"x_min":79,"x_max":950,"o":"m 400 1042 l 281 1042 q 327 1172 281 1135 q 429 1208 374 1208 q 513 1184 481 1208 q 585 1160 546 1160 q 611 1173 600 1160 q 622 1203 622 1186 l 735 1203 q 688 1072 735 1108 q 586 1035 642 1035 q 506 1060 535 1035 q 439 1085 476 1085 q 412 1070 424 1085 q 400 1042 400 1056 m 79 468 q 193 824 79 686 q 514 967 307 963 q 843 824 736 967 q 950 478 950 681 q 835 122 950 258 q 514 -19 721 -15 q 186 123 293 -19 q 79 468 79 265 m 267 469 q 326 226 267 321 q 513 132 386 132 q 694 217 626 132 q 763 478 763 301 q 703 719 763 625 q 517 814 643 814 q 336 721 406 814 q 267 469 267 628 z "},"Ö":{"ha":1029,"x_min":79,"x_max":950,"o":"m 382 1225 q 444 1199 419 1225 q 469 1135 469 1172 q 444 1072 469 1097 q 382 1046 419 1046 q 317 1072 343 1046 q 290 1135 290 1097 q 317 1199 290 1172 q 382 1225 343 1225 m 646 1225 q 710 1199 685 1225 q 736 1135 736 1172 q 710 1072 736 1097 q 646 1046 685 1046 q 583 1072 610 1046 q 556 1135 556 1097 q 583 1199 556 1172 q 646 1225 610 1225 m 79 468 q 193 824 79 686 q 514 967 307 963 q 843 824 736 967 q 950 478 950 681 q 835 122 950 258 q 514 -19 721 -15 q 186 123 293 -19 q 79 468 79 265 m 267 469 q 326 226 267 321 q 513 132 386 132 q 694 217 626 132 q 763 478 763 301 q 703 719 763 625 q 517 814 643 814 q 336 721 406 814 q 267 469 267 628 z "},"Ō":{"ha":1029,"x_min":79,"x_max":950,"o":"m 328 1203 l 692 1203 l 692 1060 l 328 1060 l 328 1203 m 79 468 q 193 824 79 686 q 514 967 307 963 q 843 824 736 967 q 950 478 950 681 q 835 122 950 258 q 514 -19 721 -15 q 186 123 293 -19 q 79 468 79 265 m 267 469 q 326 226 267 321 q 513 132 386 132 q 694 217 626 132 q 763 478 763 301 q 703 719 763 625 q 517 814 643 814 q 336 721 406 814 q 267 469 267 628 z "},"Ő":{"ha":1029,"x_min":79,"x_max":950,"o":"m 663 1254 l 835 1254 l 701 1026 l 579 1026 l 663 1254 m 403 1254 l 574 1254 l 442 1026 l 319 1026 l 403 1254 m 79 468 q 193 824 79 686 q 514 967 307 963 q 843 824 736 967 q 950 478 950 681 q 835 122 950 258 q 514 -19 721 -15 q 186 123 293 -19 q 79 468 79 265 m 267 469 q 326 226 267 321 q 513 132 386 132 q 694 217 626 132 q 763 478 763 301 q 703 719 763 625 q 517 814 643 814 q 336 721 406 814 q 267 469 267 628 z "},"Ŕ":{"ha":871,"x_min":117,"x_max":857,"o":"m 383 1254 l 569 1254 l 438 1026 l 300 1026 l 383 1254 m 407 794 l 296 794 l 296 506 l 410 506 q 543 538 490 506 q 596 646 596 571 q 546 760 596 725 q 407 794 496 794 m 665 0 l 465 361 q 433 359 450 360 q 400 358 417 358 l 296 358 l 296 0 l 117 0 l 117 944 l 413 944 q 676 874 567 944 q 786 654 786 803 q 741 503 786 567 q 625 406 696 440 l 857 0 l 665 0 z "},"Ř":{"ha":871,"x_min":117,"x_max":857,"o":"m 150 1254 l 321 1254 l 414 1164 l 506 1254 l 671 1254 l 460 1026 l 361 1026 l 150 1254 m 407 794 l 296 794 l 296 506 l 410 506 q 543 538 490 506 q 596 646 596 571 q 546 760 596 725 q 407 794 496 794 m 665 0 l 465 361 q 433 359 450 360 q 400 358 417 358 l 296 358 l 296 0 l 117 0 l 117 944 l 413 944 q 676 874 567 944 q 786 654 786 803 q 741 503 786 567 q 625 406 696 440 l 857 0 l 665 0 z "},"Ś":{"ha":767,"x_min":57,"x_max":708,"o":"m 332 1254 l 518 1254 l 386 1026 l 249 1026 l 332 1254 m 115 208 q 225 164 158 186 q 351 142 292 142 q 478 168 436 142 q 521 244 521 194 q 465 328 521 292 q 340 400 408 365 q 149 521 240 451 q 58 714 57 590 q 144 894 60 821 q 383 967 228 967 q 525 944 454 967 q 650 896 596 922 l 590 751 q 497 791 547 772 q 386 810 447 810 q 285 786 326 810 q 244 714 244 763 q 297 626 244 661 q 422 553 350 592 q 616 432 524 501 q 707 242 708 363 q 615 56 706 129 q 354 -18 525 -18 q 201 8 294 -18 q 75 63 107 35 l 115 208 z "},"Š":{"ha":767,"x_min":57,"x_max":708,"o":"m 150 1254 l 321 1254 l 414 1164 l 506 1254 l 671 1254 l 460 1026 l 361 1026 l 150 1254 m 115 208 q 225 164 158 186 q 351 142 292 142 q 478 168 436 142 q 521 244 521 194 q 465 328 521 292 q 340 400 408 365 q 149 521 240 451 q 58 714 57 590 q 144 894 60 821 q 383 967 228 967 q 525 944 454 967 q 650 896 596 922 l 590 751 q 497 791 547 772 q 386 810 447 810 q 285 786 326 810 q 244 714 244 763 q 297 626 244 661 q 422 553 350 592 q 616 432 524 501 q 707 242 708 363 q 615 56 706 129 q 354 -18 525 -18 q 201 8 294 -18 q 75 63 107 35 l 115 208 z "},"Ť":{"ha":808,"x_min":8,"x_max":801,"o":"m 150 1254 l 321 1254 l 414 1164 l 506 1254 l 671 1254 l 460 1026 l 361 1026 l 150 1254 m 8 944 l 772 944 l 801 803 l 478 803 l 478 0 l 296 0 l 296 803 l 8 803 l 8 944 z "},"Ù":{"ha":990,"x_min":108,"x_max":881,"o":"m 360 1254 l 546 1254 l 629 1026 l 492 1026 l 360 1254 m 290 944 l 290 357 q 347 185 290 239 q 494 132 404 132 q 642 188 586 132 q 699 357 699 243 l 699 944 l 881 944 l 881 343 q 776 88 881 190 q 494 -15 672 -14 q 213 87 317 -17 q 110 343 110 190 l 108 944 l 290 944 z "},"Ú":{"ha":990,"x_min":108,"x_max":881,"o":"m 443 1254 l 629 1254 l 497 1026 l 360 1026 l 443 1254 m 290 944 l 290 357 q 347 185 290 239 q 494 132 404 132 q 642 188 586 132 q 699 357 699 243 l 699 944 l 881 944 l 881 343 q 776 88 881 190 q 494 -15 672 -14 q 213 87 317 -17 q 110 343 110 190 l 108 944 l 290 944 z "},"Û":{"ha":990,"x_min":108,"x_max":881,"o":"m 406 1026 l 235 1026 l 446 1254 l 544 1254 l 756 1026 l 590 1026 l 499 1117 l 406 1026 m 290 944 l 290 357 q 347 185 290 239 q 494 132 404 132 q 642 188 586 132 q 699 357 699 243 l 699 944 l 881 944 l 881 343 q 776 88 881 190 q 494 -15 672 -14 q 213 87 317 -17 q 110 343 110 190 l 108 944 l 290 944 z "},"Ü":{"ha":990,"x_min":108,"x_max":881,"o":"m 364 1225 q 426 1199 401 1225 q 451 1135 451 1172 q 426 1072 451 1097 q 364 1046 401 1046 q 299 1072 325 1046 q 272 1135 272 1097 q 299 1199 272 1172 q 364 1225 325 1225 m 628 1225 q 692 1199 667 1225 q 718 1135 718 1172 q 692 1072 718 1097 q 628 1046 667 1046 q 565 1072 592 1046 q 538 1135 538 1097 q 565 1199 538 1172 q 628 1225 592 1225 m 290 944 l 290 357 q 347 185 290 239 q 494 132 404 132 q 642 188 586 132 q 699 357 699 243 l 699 944 l 881 944 l 881 343 q 776 88 881 190 q 494 -15 672 -14 q 213 87 317 -17 q 110 343 110 190 l 108 944 l 290 944 z "},"Ū":{"ha":990,"x_min":108,"x_max":881,"o":"m 313 1203 l 676 1203 l 676 1060 l 313 1060 l 313 1203 m 290 944 l 290 357 q 347 185 290 239 q 494 132 404 132 q 642 188 586 132 q 699 357 699 243 l 699 944 l 881 944 l 881 343 q 776 88 881 190 q 494 -15 672 -14 q 213 87 317 -17 q 110 343 110 190 l 108 944 l 290 944 z "},"Ů":{"ha":990,"x_min":108,"x_max":881,"o":"m 493 1310 q 597 1269 553 1310 q 642 1169 642 1229 q 597 1072 642 1110 q 493 1033 553 1033 q 389 1072 433 1033 q 344 1169 344 1110 q 389 1269 344 1229 q 493 1310 433 1310 m 493 1114 q 531 1131 515 1114 q 547 1169 547 1147 q 531 1208 547 1192 q 493 1224 515 1224 q 454 1208 471 1224 q 438 1169 438 1192 q 454 1131 438 1147 q 493 1114 471 1114 m 290 944 l 290 357 q 347 185 290 239 q 494 132 404 132 q 642 188 586 132 q 699 357 699 243 l 699 944 l 881 944 l 881 343 q 776 88 881 190 q 494 -15 672 -14 q 213 87 317 -17 q 110 343 110 190 l 108 944 l 290 944 z "},"Ű":{"ha":990,"x_min":108,"x_max":881,"o":"m 629 1254 l 801 1254 l 668 1026 l 546 1026 l 629 1254 m 369 1254 l 540 1254 l 408 1026 l 286 1026 l 369 1254 m 290 944 l 290 357 q 347 185 290 239 q 494 132 404 132 q 642 188 586 132 q 699 357 699 243 l 699 944 l 881 944 l 881 343 q 776 88 881 190 q 494 -15 672 -14 q 213 87 317 -17 q 110 343 110 190 l 108 944 l 290 944 z "},"Ų":{"ha":990,"x_min":108,"x_max":881,"o":"m 290 944 l 290 357 q 347 185 290 239 q 494 132 404 132 q 642 188 586 132 q 699 357 699 243 l 699 944 l 881 944 l 881 343 q 815 132 881 222 q 635 6 750 42 q 595 -49 615 -12 q 575 -115 575 -86 q 585 -142 575 -131 q 618 -154 596 -154 q 643 -148 626 -154 q 675 -131 660 -142 l 726 -242 q 658 -277 693 -267 q 585 -287 624 -287 q 468 -241 513 -287 q 424 -131 424 -194 q 435 -73 424 -107 q 460 -14 446 -39 q 204 97 299 -4 q 110 343 110 197 l 108 944 l 290 944 z "},"Ý":{"ha":840,"x_min":8,"x_max":833,"o":"m 368 1254 l 554 1254 l 422 1026 l 285 1026 l 368 1254 m 325 0 l 325 368 l 8 921 l 194 944 l 414 550 l 643 944 l 833 944 l 506 361 l 506 0 l 325 0 z "},"Ÿ":{"ha":840,"x_min":8,"x_max":833,"o":"m 289 1225 q 351 1199 326 1225 q 376 1135 376 1172 q 351 1072 376 1097 q 289 1046 326 1046 q 224 1072 250 1046 q 197 1135 197 1097 q 224 1199 197 1172 q 289 1225 250 1225 m 553 1225 q 617 1199 592 1225 q 643 1135 643 1172 q 617 1072 643 1097 q 553 1046 592 1046 q 490 1072 517 1046 q 463 1135 463 1097 q 490 1199 463 1172 q 553 1225 517 1225 m 325 0 l 325 368 l 8 921 l 194 944 l 414 550 l 643 944 l 833 944 l 506 361 l 506 0 l 325 0 z "},"Ź":{"ha":804,"x_min":22,"x_max":782,"o":"m 350 1254 l 536 1254 l 404 1026 l 267 1026 l 350 1254 m 771 803 l 217 140 l 761 140 l 782 0 l 43 0 l 22 140 l 561 803 l 83 803 l 63 944 l 750 944 l 771 803 z "},"Ż":{"ha":804,"x_min":22,"x_max":782,"o":"m 403 1238 q 474 1208 446 1238 q 503 1135 503 1178 q 474 1063 503 1092 q 403 1033 446 1033 q 330 1063 360 1033 q 300 1135 300 1092 q 330 1208 300 1178 q 403 1238 360 1238 m 771 803 l 217 140 l 761 140 l 782 0 l 43 0 l 22 140 l 561 803 l 83 803 l 63 944 l 750 944 l 771 803 z "},"Ž":{"ha":804,"x_min":22,"x_max":782,"o":"m 142 1254 l 313 1254 l 406 1164 l 497 1254 l 663 1254 l 451 1026 l 353 1026 l 142 1254 m 771 803 l 217 140 l 761 140 l 782 0 l 43 0 l 22 140 l 561 803 l 83 803 l 63 944 l 750 944 l 771 803 z "},"Ş":{"ha":767,"x_min":57,"x_max":708,"o":"m 115 208 q 225 164 158 186 q 351 142 292 142 q 478 168 436 142 q 521 244 521 194 q 465 328 521 292 q 340 400 408 365 q 149 521 240 451 q 58 714 57 590 q 144 894 60 821 q 383 967 228 967 q 525 944 454 967 q 650 896 596 922 l 590 751 q 497 791 547 772 q 386 810 447 810 q 285 786 326 810 q 244 714 244 763 q 297 626 244 661 q 422 553 350 592 q 616 432 524 501 q 707 242 708 363 q 631 68 706 139 q 413 -15 556 -3 l 403 -40 q 470 -92 443 -57 q 497 -164 497 -128 q 444 -272 497 -237 q 324 -307 390 -307 q 255 -297 296 -307 q 192 -268 214 -286 l 232 -162 q 280 -181 251 -172 q 324 -190 308 -190 q 355 -185 340 -190 q 369 -167 369 -181 q 337 -128 369 -146 q 250 -104 304 -110 l 285 -11 q 162 19 225 -1 q 75 63 99 40 l 115 208 z "},"Ģ":{"ha":911,"x_min":79,"x_max":815,"o":"m 471 517 l 815 517 l 815 50 q 713 8 772 26 q 585 -15 653 -10 l 576 -40 q 644 -92 617 -57 q 671 -164 671 -128 q 617 -272 671 -237 q 497 -307 564 -307 q 428 -297 469 -307 q 364 -268 388 -286 l 406 -162 q 452 -181 424 -172 q 497 -190 481 -190 q 528 -185 513 -190 q 543 -167 543 -181 q 510 -128 543 -146 q 422 -104 476 -110 l 456 -15 q 174 143 268 6 q 79 468 79 281 q 204 824 79 683 q 543 964 329 964 q 662 950 585 964 q 801 903 739 936 l 744 774 q 645 802 683 792 q 546 813 607 813 q 344 727 421 813 q 267 469 267 642 q 330 223 267 314 q 517 132 393 132 q 596 137 563 132 q 654 147 629 142 l 654 378 l 456 378 l 471 517 z "},"Ķ":{"ha":881,"x_min":99,"x_max":881,"o":"m 279 944 l 279 549 l 633 965 l 767 863 l 486 538 l 881 0 l 657 0 l 368 400 l 279 296 l 279 0 l 99 0 l 99 944 l 279 944 m 444 -29 q 517 -64 486 -29 q 547 -154 547 -99 q 499 -297 547 -232 q 386 -394 451 -362 l 347 -310 q 388 -282 365 -303 q 419 -232 410 -261 q 368 -201 394 -232 q 342 -132 342 -171 q 372 -62 342 -94 q 444 -29 401 -29 z "},"Ļ":{"ha":754,"x_min":117,"x_max":740,"o":"m 740 0 l 117 0 l 117 944 l 296 944 l 296 140 l 713 140 l 740 0 m 428 -29 q 502 -64 471 -29 q 533 -154 533 -99 q 485 -297 533 -232 q 371 -394 436 -362 l 332 -310 q 372 -282 350 -303 q 404 -232 394 -261 q 353 -201 379 -232 q 326 -132 326 -171 q 356 -62 326 -94 q 428 -29 385 -29 z "},"Ņ":{"ha":1031,"x_min":117,"x_max":914,"o":"m 914 944 l 914 0 l 733 0 l 296 632 l 296 0 l 117 0 l 117 944 l 296 944 l 733 314 l 733 944 l 914 944 m 522 -29 q 597 -64 567 -29 q 626 -154 626 -99 q 578 -297 626 -232 q 465 -394 531 -362 l 426 -310 q 467 -282 444 -303 q 499 -232 489 -261 q 449 -201 475 -232 q 422 -132 422 -171 q 451 -62 422 -94 q 522 -29 479 -29 z "},"Ŗ":{"ha":871,"x_min":117,"x_max":857,"o":"m 407 794 l 296 794 l 296 506 l 410 506 q 543 538 490 506 q 596 646 596 571 q 546 760 596 725 q 407 794 496 794 m 665 0 l 465 361 q 433 359 450 360 q 400 358 417 358 l 296 358 l 296 0 l 117 0 l 117 944 l 413 944 q 676 874 567 944 q 786 654 786 803 q 741 503 786 567 q 625 406 696 440 l 857 0 l 665 0 m 468 -29 q 542 -64 511 -29 q 572 -154 572 -99 q 524 -297 572 -232 q 410 -394 476 -362 l 371 -310 q 413 -282 390 -303 q 446 -232 435 -261 q 393 -201 419 -232 q 367 -132 367 -171 q 396 -62 367 -94 q 468 -29 425 -29 z "},"Ţ":{"ha":808,"x_min":8,"x_max":801,"o":"m 8 944 l 772 944 l 801 803 l 478 803 l 478 0 l 457 0 l 442 -40 q 508 -92 481 -57 q 536 -164 536 -128 q 483 -272 536 -237 q 361 -307 429 -307 q 293 -297 335 -307 q 229 -268 251 -286 l 271 -162 q 317 -181 289 -172 q 361 -190 346 -190 q 392 -185 378 -190 q 407 -167 407 -181 q 374 -128 407 -146 q 286 -104 340 -110 l 328 0 l 296 0 l 296 803 l 8 803 l 8 944 z "},"Ș":{"ha":767,"x_min":57,"x_max":708,"o":"m 115 208 q 225 164 158 186 q 351 142 292 142 q 478 168 436 142 q 521 244 521 194 q 465 328 521 292 q 340 400 408 365 q 149 521 240 451 q 58 714 57 590 q 144 894 60 821 q 383 967 228 967 q 525 944 454 967 q 650 896 596 922 l 590 751 q 497 791 547 772 q 386 810 447 810 q 285 786 326 810 q 244 714 244 763 q 297 626 244 661 q 422 553 350 592 q 616 432 524 501 q 707 242 708 363 q 615 56 706 129 q 354 -18 525 -18 q 201 8 294 -18 q 75 63 107 35 l 115 208 m 353 -29 q 426 -64 396 -29 q 456 -154 456 -99 q 408 -297 456 -232 q 296 -394 361 -362 l 257 -310 q 297 -282 275 -303 q 329 -232 319 -261 q 278 -201 304 -232 q 251 -132 251 -171 q 281 -62 251 -94 q 353 -29 310 -29 z "},"Ț":{"ha":808,"x_min":8,"x_max":801,"o":"m 8 944 l 772 944 l 801 803 l 478 803 l 478 0 l 296 0 l 296 803 l 8 803 l 8 944 m 390 -29 q 464 -64 433 -29 q 494 -154 494 -99 q 447 -297 494 -232 q 332 -394 400 -362 l 294 -310 q 335 -282 313 -303 q 367 -232 357 -261 q 315 -201 342 -232 q 288 -132 288 -171 q 317 -62 288 -94 q 390 -29 347 -29 z "},"à":{"ha":717,"x_min":67,"x_max":636,"o":"m 193 1046 l 379 1046 l 463 818 l 325 818 l 193 1046 m 221 201 q 244 149 221 172 q 307 126 268 126 q 383 143 344 126 q 456 193 421 160 l 456 296 l 319 296 q 247 267 272 296 q 221 201 221 238 m 310 -17 q 126 44 186 -17 q 67 201 67 104 q 138 361 67 306 q 322 417 208 417 l 454 417 q 424 497 453 468 q 346 525 396 525 q 243 512 299 525 q 150 481 188 499 l 101 631 q 220 674 140 657 q 343 692 300 692 q 550 622 464 692 q 636 443 636 551 l 636 0 l 543 0 l 499 57 q 410 6 461 28 q 310 -17 360 -17 z "},"á":{"ha":717,"x_min":67,"x_max":636,"o":"m 318 1046 l 504 1046 l 372 818 l 235 818 l 318 1046 m 221 201 q 244 149 221 172 q 307 126 268 126 q 383 143 344 126 q 456 193 421 160 l 456 296 l 319 296 q 247 267 272 296 q 221 201 221 238 m 310 -17 q 126 44 186 -17 q 67 201 67 104 q 138 361 67 306 q 322 417 208 417 l 454 417 q 424 497 453 468 q 346 525 396 525 q 243 512 299 525 q 150 481 188 499 l 101 631 q 220 674 140 657 q 343 692 300 692 q 550 622 464 692 q 636 443 636 551 l 636 0 l 543 0 l 499 57 q 410 6 461 28 q 310 -17 360 -17 z "},"â":{"ha":717,"x_min":67,"x_max":636,"o":"m 276 818 l 106 818 l 318 1046 l 414 1046 l 626 818 l 461 818 l 369 908 l 276 818 m 221 201 q 244 149 221 172 q 307 126 268 126 q 383 143 344 126 q 456 193 421 160 l 456 296 l 319 296 q 247 267 272 296 q 221 201 221 238 m 310 -17 q 126 44 186 -17 q 67 201 67 104 q 138 361 67 306 q 322 417 208 417 l 454 417 q 424 497 453 468 q 346 525 396 525 q 243 512 299 525 q 150 481 188 499 l 101 631 q 220 674 140 657 q 343 692 300 692 q 550 622 464 692 q 636 443 636 551 l 636 0 l 543 0 l 499 57 q 410 6 461 28 q 310 -17 360 -17 z "},"ã":{"ha":717,"x_min":67,"x_max":636,"o":"m 242 833 l 121 833 q 167 963 121 926 q 272 1000 214 1000 q 356 976 324 1000 q 426 951 388 951 q 453 965 442 951 q 465 994 465 978 l 578 994 q 531 863 578 900 q 428 826 485 826 q 348 851 376 826 q 281 876 319 876 q 253 862 265 876 q 242 833 242 847 m 221 201 q 244 149 221 172 q 307 126 268 126 q 383 143 344 126 q 456 193 421 160 l 456 296 l 319 296 q 247 267 272 296 q 221 201 221 238 m 310 -17 q 126 44 186 -17 q 67 201 67 104 q 138 361 67 306 q 322 417 208 417 l 454 417 q 424 497 453 468 q 346 525 396 525 q 243 512 299 525 q 150 481 188 499 l 101 631 q 220 674 140 657 q 343 692 300 692 q 550 622 464 692 q 636 443 636 551 l 636 0 l 543 0 l 499 57 q 410 6 461 28 q 310 -17 360 -17 z "},"ä":{"ha":717,"x_min":67,"x_max":636,"o":"m 229 1017 q 292 990 267 1017 q 318 926 318 964 q 292 863 318 889 q 229 838 267 838 q 164 863 190 838 q 138 926 138 889 q 164 990 138 964 q 229 1017 190 1017 m 494 1017 q 558 990 533 1017 q 583 926 583 964 q 558 863 583 889 q 494 838 533 838 q 431 863 458 838 q 404 926 404 889 q 431 990 404 964 q 494 1017 458 1017 m 221 201 q 244 149 221 172 q 307 126 268 126 q 383 143 344 126 q 456 193 421 160 l 456 296 l 319 296 q 247 267 272 296 q 221 201 221 238 m 310 -17 q 126 44 186 -17 q 67 201 67 104 q 138 361 67 306 q 322 417 208 417 l 454 417 q 424 497 453 468 q 346 525 396 525 q 243 512 299 525 q 150 481 188 499 l 101 631 q 220 674 140 657 q 343 692 300 692 q 550 622 464 692 q 636 443 636 551 l 636 0 l 543 0 l 499 57 q 410 6 461 28 q 310 -17 360 -17 z "},"å":{"ha":717,"x_min":67,"x_max":636,"o":"m 358 1101 q 463 1061 418 1101 q 508 961 508 1021 q 463 863 508 901 q 358 825 418 825 q 254 863 299 825 q 210 961 210 901 q 254 1061 210 1021 q 358 1101 299 1101 m 358 906 q 397 922 382 906 q 413 961 413 939 q 397 999 413 983 q 358 1015 382 1015 q 320 999 336 1015 q 304 961 304 983 q 320 922 304 939 q 358 906 336 906 m 221 201 q 244 149 221 172 q 307 126 268 126 q 383 143 344 126 q 456 193 421 160 l 456 296 l 319 296 q 247 267 272 296 q 221 201 221 238 m 310 -17 q 126 44 186 -17 q 67 201 67 104 q 138 361 67 306 q 322 417 208 417 l 454 417 q 424 497 453 468 q 346 525 396 525 q 243 512 299 525 q 150 481 188 499 l 101 631 q 220 674 140 657 q 343 692 300 692 q 550 622 464 692 q 636 443 636 551 l 636 0 l 543 0 l 499 57 q 410 6 461 28 q 310 -17 360 -17 z "},"ā":{"ha":717,"x_min":67,"x_max":636,"o":"m 183 994 l 547 994 l 547 851 l 183 851 l 183 994 m 221 201 q 244 149 221 172 q 307 126 268 126 q 383 143 344 126 q 456 193 421 160 l 456 296 l 319 296 q 247 267 272 296 q 221 201 221 238 m 310 -17 q 126 44 186 -17 q 67 201 67 104 q 138 361 67 306 q 322 417 208 417 l 454 417 q 424 497 453 468 q 346 525 396 525 q 243 512 299 525 q 150 481 188 499 l 101 631 q 220 674 140 657 q 343 692 300 692 q 550 622 464 692 q 636 443 636 551 l 636 0 l 543 0 l 499 57 q 410 6 461 28 q 310 -17 360 -17 z "},"ă":{"ha":717,"x_min":67,"x_max":636,"o":"m 563 1046 q 513 889 563 958 q 358 818 463 819 q 203 889 253 819 q 153 1046 153 958 l 276 1046 q 294 978 276 1010 q 358 947 311 947 q 420 978 401 947 q 439 1046 439 1010 l 563 1046 m 221 201 q 244 149 221 172 q 307 126 268 126 q 383 143 344 126 q 456 193 421 160 l 456 296 l 319 296 q 247 267 272 296 q 221 201 221 238 m 310 -17 q 126 44 186 -17 q 67 201 67 104 q 138 361 67 306 q 322 417 208 417 l 454 417 q 424 497 453 468 q 346 525 396 525 q 243 512 299 525 q 150 481 188 499 l 101 631 q 220 674 140 657 q 343 692 300 692 q 550 622 464 692 q 636 443 636 551 l 636 0 l 543 0 l 499 57 q 410 6 461 28 q 310 -17 360 -17 z "},"ą":{"ha":717,"x_min":67,"x_max":733,"o":"m 310 -17 q 126 44 186 -17 q 67 201 67 104 q 138 361 67 306 q 322 417 208 417 l 454 417 q 424 497 453 468 q 346 525 396 525 q 243 512 299 525 q 150 481 188 499 l 101 631 q 220 674 140 657 q 343 692 300 692 q 550 622 464 692 q 636 443 636 551 l 636 0 q 599 -53 617 -21 q 582 -115 582 -85 q 592 -142 582 -131 q 625 -154 601 -154 q 649 -148 633 -154 q 682 -131 665 -142 l 733 -242 q 665 -277 701 -267 q 590 -287 629 -287 q 474 -241 519 -287 q 429 -131 429 -194 q 454 -30 429 -75 q 508 43 479 15 l 499 57 q 410 6 461 28 q 310 -17 360 -17 m 221 201 q 244 149 221 172 q 307 126 268 126 q 383 143 344 126 q 456 193 421 160 l 456 296 l 319 296 q 247 267 272 296 q 221 201 221 238 z "},"ç":{"ha":675,"x_min":58,"x_max":631,"o":"m 407 538 q 288 480 331 538 q 244 336 244 422 q 288 193 244 249 q 407 138 331 138 q 492 149 454 138 q 579 183 531 161 l 631 53 q 552 11 597 26 q 467 -11 507 -4 l 456 -40 q 523 -92 496 -57 q 550 -164 550 -128 q 498 -272 550 -237 q 378 -307 446 -307 q 308 -297 350 -307 q 244 -268 267 -286 l 286 -162 q 332 -181 304 -172 q 378 -190 360 -190 q 408 -185 394 -190 q 422 -167 422 -181 q 390 -128 422 -146 q 303 -104 357 -110 l 339 -11 q 132 99 206 7 q 58 336 58 192 q 150 594 58 497 q 406 692 242 692 q 515 674 449 692 q 631 621 581 656 l 579 492 q 492 526 531 514 q 407 538 454 538 z "},"ć":{"ha":675,"x_min":58,"x_max":631,"o":"m 379 1046 l 565 1046 l 432 818 l 296 818 l 379 1046 m 407 538 q 288 480 331 538 q 244 336 244 422 q 288 193 244 249 q 407 138 331 138 q 492 149 454 138 q 579 183 531 161 l 631 53 q 516 0 583 17 q 406 -17 449 -17 q 150 79 242 -17 q 58 336 58 175 q 150 594 58 497 q 406 692 242 692 q 515 674 449 692 q 631 621 581 656 l 579 492 q 492 526 531 514 q 407 538 454 538 z "},"č":{"ha":675,"x_min":58,"x_max":661,"o":"m 140 1046 l 311 1046 l 404 956 l 497 1046 l 661 1046 l 450 818 l 353 818 l 140 1046 m 407 538 q 288 480 331 538 q 244 336 244 422 q 288 193 244 249 q 407 138 331 138 q 492 149 454 138 q 579 183 531 161 l 631 53 q 516 0 583 17 q 406 -17 449 -17 q 150 79 242 -17 q 58 336 58 175 q 150 594 58 497 q 406 692 242 692 q 515 674 449 692 q 631 621 581 656 l 579 492 q 492 526 531 514 q 407 538 454 538 z "},"ď":{"ha":1065,"x_min":58,"x_max":1051,"o":"m 947 1031 q 1021 997 990 1031 q 1051 907 1051 963 q 1000 744 1051 829 q 867 615 949 660 l 829 700 q 890 758 865 731 q 924 829 914 785 q 871 860 897 829 q 844 928 844 890 q 874 997 844 964 q 947 1031 904 1031 m 413 546 q 281 479 318 546 q 244 342 244 413 q 278 200 244 263 q 413 138 311 138 q 480 152 444 138 q 546 186 515 167 l 546 497 q 480 532 515 518 q 413 546 444 546 m 728 981 l 728 0 l 633 0 l 583 65 q 476 5 538 26 q 364 -17 414 -17 q 138 86 217 -17 q 58 342 58 189 q 142 597 58 494 q 372 700 226 700 q 457 687 410 700 q 546 650 504 674 l 546 965 l 728 981 z "},"è":{"ha":757,"x_min":58,"x_max":704,"o":"m 244 1046 l 429 1046 l 514 818 l 378 818 l 244 1046 m 435 -17 q 159 79 260 -17 q 58 336 58 175 q 149 594 58 497 q 397 692 240 692 q 630 587 556 692 q 704 339 704 482 l 704 283 l 250 283 q 311 177 263 217 q 439 138 360 138 q 522 149 485 138 q 607 183 558 161 l 660 53 q 545 0 613 17 q 435 -17 478 -17 m 533 404 q 483 505 519 472 q 393 538 447 538 q 300 503 338 538 q 251 404 263 469 l 533 404 z "},"é":{"ha":757,"x_min":58,"x_max":704,"o":"m 368 1046 l 556 1046 l 422 818 l 286 818 l 368 1046 m 435 -17 q 159 79 260 -17 q 58 336 58 175 q 149 594 58 497 q 397 692 240 692 q 630 587 556 692 q 704 339 704 482 l 704 283 l 250 283 q 311 177 263 217 q 439 138 360 138 q 522 149 485 138 q 607 183 558 161 l 660 53 q 545 0 613 17 q 435 -17 478 -17 m 533 404 q 483 505 519 472 q 393 538 447 538 q 300 503 338 538 q 251 404 263 469 l 533 404 z "},"ê":{"ha":757,"x_min":58,"x_max":704,"o":"m 313 818 l 142 818 l 354 1046 l 450 1046 l 663 818 l 499 818 l 406 908 l 313 818 m 435 -17 q 159 79 260 -17 q 58 336 58 175 q 149 594 58 497 q 397 692 240 692 q 630 587 556 692 q 704 339 704 482 l 704 283 l 250 283 q 311 177 263 217 q 439 138 360 138 q 522 149 485 138 q 607 183 558 161 l 660 53 q 545 0 613 17 q 435 -17 478 -17 m 533 404 q 483 505 519 472 q 393 538 447 538 q 300 503 338 538 q 251 404 263 469 l 533 404 z "},"ë":{"ha":757,"x_min":58,"x_max":704,"o":"m 261 1017 q 325 990 299 1017 q 351 926 351 964 q 325 863 351 889 q 261 838 299 838 q 197 863 225 838 q 169 926 169 889 q 197 990 169 964 q 261 1017 225 1017 m 528 1017 q 591 990 565 1017 q 617 926 617 964 q 591 863 617 889 q 528 838 565 838 q 464 863 490 838 q 438 926 438 889 q 464 990 438 964 q 528 1017 490 1017 m 435 -17 q 159 79 260 -17 q 58 336 58 175 q 149 594 58 497 q 397 692 240 692 q 630 587 556 692 q 704 339 704 482 l 704 283 l 250 283 q 311 177 263 217 q 439 138 360 138 q 522 149 485 138 q 607 183 558 161 l 660 53 q 545 0 613 17 q 435 -17 478 -17 m 533 404 q 483 505 519 472 q 393 538 447 538 q 300 503 338 538 q 251 404 263 469 l 533 404 z "},"ē":{"ha":757,"x_min":58,"x_max":704,"o":"m 208 994 l 572 994 l 572 851 l 208 851 l 208 994 m 435 -17 q 159 79 260 -17 q 58 336 58 175 q 149 594 58 497 q 397 692 240 692 q 630 587 556 692 q 704 339 704 482 l 704 283 l 250 283 q 311 177 263 217 q 439 138 360 138 q 522 149 485 138 q 607 183 558 161 l 660 53 q 545 0 613 17 q 435 -17 478 -17 m 533 404 q 483 505 519 472 q 393 538 447 538 q 300 503 338 538 q 251 404 263 469 l 533 404 z "},"ė":{"ha":757,"x_min":58,"x_max":704,"o":"m 396 1029 q 466 999 438 1029 q 494 926 494 969 q 466 854 494 883 q 396 825 438 825 q 322 854 353 825 q 292 926 292 883 q 322 999 292 969 q 396 1029 353 1029 m 435 -17 q 159 79 260 -17 q 58 336 58 175 q 149 594 58 497 q 397 692 240 692 q 630 587 556 692 q 704 339 704 482 l 704 283 l 250 283 q 311 177 263 217 q 439 138 360 138 q 522 149 485 138 q 607 183 558 161 l 660 53 q 545 0 613 17 q 435 -17 478 -17 m 533 404 q 483 505 519 472 q 393 538 447 538 q 300 503 338 538 q 251 404 263 469 l 533 404 z "},"ę":{"ha":757,"x_min":58,"x_max":704,"o":"m 383 -14 q 144 94 231 0 q 58 336 58 188 q 149 594 58 497 q 397 692 240 692 q 630 587 556 692 q 704 339 704 482 l 704 283 l 250 283 q 311 177 263 217 q 439 138 360 138 q 522 149 485 138 q 607 183 558 161 l 660 53 q 610 24 638 36 q 556 3 583 11 q 518 -52 536 -17 q 500 -115 500 -87 q 509 -142 500 -131 q 542 -154 518 -154 q 567 -148 551 -154 q 599 -131 583 -142 l 650 -242 q 582 -277 617 -267 q 508 -287 547 -287 q 393 -241 438 -287 q 349 -131 349 -194 q 359 -73 349 -107 q 383 -14 369 -39 m 533 404 q 483 505 519 472 q 393 538 447 538 q 300 503 338 538 q 251 404 263 469 l 533 404 z "},"ě":{"ha":757,"x_min":58,"x_max":704,"o":"m 139 1046 l 310 1046 l 404 956 l 494 1046 l 660 1046 l 449 818 l 351 818 l 139 1046 m 435 -17 q 159 79 260 -17 q 58 336 58 175 q 149 594 58 497 q 397 692 240 692 q 630 587 556 692 q 704 339 704 482 l 704 283 l 250 283 q 311 177 263 217 q 439 138 360 138 q 522 149 485 138 q 607 183 558 161 l 660 53 q 545 0 613 17 q 435 -17 478 -17 m 533 404 q 483 505 519 472 q 393 538 447 538 q 300 503 338 538 q 251 404 263 469 l 533 404 z "},"ğ":{"ha":822,"x_min":58,"x_max":728,"o":"m 611 1046 q 561 889 611 958 q 406 818 511 819 q 251 889 301 819 q 201 1046 201 958 l 325 1046 q 342 978 325 1010 q 406 947 360 947 q 469 978 450 947 q 488 1046 488 1010 l 611 1046 m 413 546 q 281 479 318 546 q 244 342 244 413 q 278 200 244 263 q 413 138 311 138 q 480 152 444 138 q 546 186 515 167 l 546 497 q 480 532 515 518 q 413 546 444 546 m 728 674 l 728 1 q 645 -203 728 -121 q 383 -286 563 -286 q 258 -266 340 -286 q 122 -210 176 -246 l 176 -82 q 283 -126 239 -112 q 379 -142 328 -140 q 503 -102 460 -140 q 546 3 546 -64 l 546 38 q 454 -2 503 13 q 364 -17 406 -17 q 138 86 217 -17 q 58 342 58 189 q 142 597 58 494 q 372 700 226 700 q 485 678 422 700 q 592 618 547 657 l 633 674 l 728 674 z "},"ì":{"ha":356,"x_min":-1,"x_max":267,"o":"m -1 1046 l 186 1046 l 267 818 l 131 818 l -1 1046 m 267 674 l 267 0 l 86 0 l 86 674 l 267 674 z "},"í":{"ha":356,"x_min":86,"x_max":358,"o":"m 171 1046 l 358 1046 l 225 818 l 88 818 l 171 1046 m 267 674 l 267 0 l 86 0 l 86 674 l 267 674 z "},"î":{"ha":356,"x_min":-82,"x_max":439,"o":"m 89 818 l -82 818 l 129 1046 l 225 1046 l 439 818 l 274 818 l 182 908 l 89 818 m 267 674 l 267 0 l 86 0 l 86 674 l 267 674 z "},"ï":{"ha":356,"x_min":-44,"x_max":400,"o":"m 46 1017 q 109 990 83 1017 q 135 926 135 964 q 109 863 135 889 q 46 838 83 838 q -19 863 7 838 q -44 926 -44 889 q -19 990 -44 964 q 46 1017 7 1017 m 311 1017 q 374 990 349 1017 q 400 926 400 964 q 374 863 400 889 q 311 838 349 838 q 247 863 274 838 q 221 926 221 889 q 247 990 221 964 q 311 1017 274 1017 m 267 674 l 267 0 l 86 0 l 86 674 l 267 674 z "},"ī":{"ha":356,"x_min":-6,"x_max":358,"o":"m -6 994 l 358 994 l 358 851 l -6 851 l -6 994 m 267 674 l 267 0 l 86 0 l 86 674 l 267 674 z "},"į":{"ha":356,"x_min":53,"x_max":357,"o":"m 176 972 q 249 943 219 972 q 279 871 279 914 q 249 799 279 828 q 176 769 219 769 q 106 799 135 769 q 76 871 76 828 q 106 943 76 914 q 176 972 135 972 m 267 674 l 267 0 l 260 0 q 224 -55 242 -21 q 206 -115 206 -89 q 215 -142 206 -131 q 249 -154 224 -154 q 273 -148 257 -154 q 304 -131 289 -142 l 357 -242 q 288 -277 324 -267 q 214 -287 253 -287 q 98 -241 143 -287 q 53 -131 53 -194 q 67 -62 53 -103 q 99 0 81 -22 l 86 0 l 86 674 l 267 674 z "},"ľ":{"ha":614,"x_min":96,"x_max":600,"o":"m 494 1031 q 569 997 538 1031 q 600 907 600 963 q 548 744 600 829 q 417 615 496 660 l 378 700 q 437 758 413 731 q 471 829 461 785 q 421 860 447 829 q 394 928 394 890 q 424 997 394 964 q 494 1031 453 1031 m 275 981 l 275 0 l 96 0 l 96 965 l 275 981 z "},"ñ":{"ha":806,"x_min":86,"x_max":725,"o":"m 310 833 l 188 833 q 235 963 188 926 q 339 1000 282 1000 q 422 976 389 1000 q 494 951 456 951 q 521 965 508 951 q 533 994 533 978 l 644 994 q 598 863 644 900 q 494 826 551 826 q 415 851 443 826 q 349 876 388 876 q 321 862 332 876 q 310 833 310 847 m 235 601 q 349 674 281 647 q 472 700 418 700 q 667 619 610 700 q 725 422 725 539 l 725 0 l 544 0 l 544 414 q 514 512 544 478 q 425 546 483 546 q 344 526 386 546 q 267 479 301 506 l 267 0 l 86 0 l 86 674 l 181 674 l 235 601 z "},"ń":{"ha":806,"x_min":86,"x_max":725,"o":"m 378 1046 l 563 1046 l 429 818 l 293 818 l 378 1046 m 235 601 q 349 674 281 647 q 472 700 418 700 q 667 619 610 700 q 725 422 725 539 l 725 0 l 544 0 l 544 414 q 514 512 544 478 q 425 546 483 546 q 344 526 386 546 q 267 479 301 506 l 267 0 l 86 0 l 86 674 l 181 674 l 235 601 z "},"ň":{"ha":806,"x_min":86,"x_max":725,"o":"m 156 1046 l 328 1046 l 421 956 l 514 1046 l 676 1046 l 465 818 l 368 818 l 156 1046 m 235 601 q 349 674 281 647 q 472 700 418 700 q 667 619 610 700 q 725 422 725 539 l 725 0 l 544 0 l 544 414 q 514 512 544 478 q 425 546 483 546 q 344 526 386 546 q 267 479 301 506 l 267 0 l 86 0 l 86 674 l 181 674 l 235 601 z "},"ò":{"ha":819,"x_min":58,"x_max":761,"o":"m 258 1046 l 446 1046 l 528 818 l 390 818 l 258 1046 m 397 -17 q 148 81 238 -15 q 58 339 58 176 q 152 596 58 500 q 408 692 246 692 q 669 592 576 692 q 761 332 761 493 q 661 78 761 171 q 397 -17 561 -15 m 575 332 q 533 483 575 428 q 413 538 490 538 q 289 489 333 538 q 244 340 244 440 q 283 189 244 240 q 400 138 321 138 q 526 184 478 138 q 575 332 575 231 z "},"ó":{"ha":819,"x_min":58,"x_max":761,"o":"m 383 1046 l 568 1046 l 438 818 l 300 818 l 383 1046 m 397 -17 q 148 81 238 -15 q 58 339 58 176 q 152 596 58 500 q 408 692 246 692 q 669 592 576 692 q 761 332 761 493 q 661 78 761 171 q 397 -17 561 -15 m 575 332 q 533 483 575 428 q 413 538 490 538 q 289 489 333 538 q 244 340 244 440 q 283 189 244 240 q 400 138 321 138 q 526 184 478 138 q 575 332 575 231 z "},"ô":{"ha":819,"x_min":58,"x_max":761,"o":"m 315 818 l 144 818 l 357 1046 l 453 1046 l 667 818 l 500 818 l 408 908 l 315 818 m 397 -17 q 148 81 238 -15 q 58 339 58 176 q 152 596 58 500 q 408 692 246 692 q 669 592 576 692 q 761 332 761 493 q 661 78 761 171 q 397 -17 561 -15 m 575 332 q 533 483 575 428 q 413 538 490 538 q 289 489 333 538 q 244 340 244 440 q 283 189 244 240 q 400 138 321 138 q 526 184 478 138 q 575 332 575 231 z "},"õ":{"ha":819,"x_min":58,"x_max":761,"o":"m 296 833 l 174 833 q 221 963 174 926 q 324 1000 268 1000 q 408 976 375 1000 q 478 951 440 951 q 506 965 494 951 q 517 994 517 978 l 631 994 q 584 863 631 900 q 479 826 538 826 q 400 851 429 826 q 332 876 371 876 q 306 862 317 876 q 296 833 296 847 m 397 -17 q 148 81 238 -15 q 58 339 58 176 q 152 596 58 500 q 408 692 246 692 q 669 592 576 692 q 761 332 761 493 q 661 78 761 171 q 397 -17 561 -15 m 575 332 q 533 483 575 428 q 413 538 490 538 q 289 489 333 538 q 244 340 244 440 q 283 189 244 240 q 400 138 321 138 q 526 184 478 138 q 575 332 575 231 z "},"ö":{"ha":819,"x_min":58,"x_max":761,"o":"m 275 1017 q 338 990 313 1017 q 364 926 364 964 q 338 863 364 889 q 275 838 313 838 q 212 863 238 838 q 186 926 186 889 q 212 990 186 964 q 275 1017 238 1017 m 540 1017 q 605 990 579 1017 q 631 926 631 964 q 605 863 631 889 q 540 838 579 838 q 477 863 504 838 q 450 926 450 889 q 477 990 450 964 q 540 1017 504 1017 m 397 -17 q 148 81 238 -15 q 58 339 58 176 q 152 596 58 500 q 408 692 246 692 q 669 592 576 692 q 761 332 761 493 q 661 78 761 171 q 397 -17 561 -15 m 575 332 q 533 483 575 428 q 413 538 490 538 q 289 489 333 538 q 244 340 244 440 q 283 189 244 240 q 400 138 321 138 q 526 184 478 138 q 575 332 575 231 z "},"ō":{"ha":819,"x_min":58,"x_max":761,"o":"m 221 994 l 585 994 l 585 851 l 221 851 l 221 994 m 397 -17 q 148 81 238 -15 q 58 339 58 176 q 152 596 58 500 q 408 692 246 692 q 669 592 576 692 q 761 332 761 493 q 661 78 761 171 q 397 -17 561 -15 m 575 332 q 533 483 575 428 q 413 538 490 538 q 289 489 333 538 q 244 340 244 440 q 283 189 244 240 q 400 138 321 138 q 526 184 478 138 q 575 332 575 231 z "},"ő":{"ha":819,"x_min":58,"x_max":761,"o":"m 557 1046 l 728 1046 l 594 818 l 471 818 l 557 1046 m 296 1046 l 468 1046 l 335 818 l 213 818 l 296 1046 m 397 -17 q 148 81 238 -15 q 58 339 58 176 q 152 596 58 500 q 408 692 246 692 q 669 592 576 692 q 761 332 761 493 q 661 78 761 171 q 397 -17 561 -15 m 575 332 q 533 483 575 428 q 413 538 490 538 q 289 489 333 538 q 244 340 244 440 q 283 189 244 240 q 400 138 321 138 q 526 184 478 138 q 575 332 575 231 z "},"ŕ":{"ha":497,"x_min":86,"x_max":492,"o":"m 231 1046 l 415 1046 l 283 818 l 146 818 l 231 1046 m 456 674 l 492 529 q 385 503 446 529 q 267 425 325 476 l 267 0 l 86 0 l 86 674 l 181 674 l 240 575 q 342 642 282 611 q 456 674 401 674 z "},"ř":{"ha":497,"x_min":-11,"x_max":510,"o":"m -11 1046 l 160 1046 l 253 956 l 344 1046 l 510 1046 l 296 818 l 201 818 l -11 1046 m 456 674 l 492 529 q 385 503 446 529 q 267 425 325 476 l 267 0 l 86 0 l 86 674 l 181 674 l 240 575 q 342 642 282 611 q 456 674 401 674 z "},"ś":{"ha":600,"x_min":43,"x_max":557,"o":"m 281 1046 l 468 1046 l 335 818 l 197 818 l 281 1046 m 482 492 q 392 526 433 514 q 303 538 350 538 q 249 524 268 538 q 231 488 231 511 q 253 456 231 471 q 328 422 276 440 q 485 337 413 392 q 557 194 557 282 q 485 39 557 94 q 276 -17 414 -17 q 162 0 233 -17 q 43 53 90 17 l 97 183 q 191 149 146 161 q 274 138 236 138 q 350 151 324 138 q 376 188 376 165 q 350 238 376 215 q 267 278 324 260 q 115 353 186 304 q 43 486 43 403 q 114 637 43 582 q 306 692 185 692 q 417 674 349 692 q 536 621 485 656 l 482 492 z "},"š":{"ha":600,"x_min":42,"x_max":563,"o":"m 42 1046 l 214 1046 l 307 956 l 400 1046 l 563 1046 l 351 818 l 254 818 l 42 1046 m 482 492 q 392 526 433 514 q 303 538 350 538 q 249 524 268 538 q 231 488 231 511 q 253 456 231 471 q 328 422 276 440 q 485 337 413 392 q 557 194 557 282 q 485 39 557 94 q 276 -17 414 -17 q 162 0 233 -17 q 43 53 90 17 l 97 183 q 191 149 146 161 q 274 138 236 138 q 350 151 324 138 q 376 188 376 165 q 350 238 376 215 q 267 278 324 260 q 115 353 186 304 q 43 486 43 403 q 114 637 43 582 q 306 692 185 692 q 417 674 349 692 q 536 621 485 656 l 482 492 z "},"ť":{"ha":763,"x_min":8,"x_max":747,"o":"m 643 1031 q 717 997 686 1031 q 747 907 747 963 q 695 744 747 829 q 564 615 643 660 l 525 700 q 585 758 560 731 q 621 829 610 785 q 567 860 594 829 q 540 928 540 890 q 570 997 540 964 q 643 1031 600 1031 m 503 14 q 440 -16 481 -4 q 367 -28 399 -28 q 170 35 242 -28 q 99 215 99 99 l 99 533 l 8 533 l 8 672 l 99 672 l 99 832 l 278 864 l 278 672 l 400 672 l 456 533 l 278 533 l 278 247 q 303 160 278 194 q 376 126 328 126 q 413 131 394 126 q 450 144 431 135 l 503 14 z "},"ù":{"ha":799,"x_min":79,"x_max":711,"o":"m 225 1046 l 411 1046 l 494 818 l 358 818 l 225 1046 m 565 67 q 453 -2 519 24 q 332 -28 386 -28 q 137 53 194 -28 q 79 250 79 135 l 79 674 l 261 674 l 261 258 q 292 160 261 194 q 381 126 322 126 q 457 144 417 126 q 531 186 497 163 l 531 674 l 711 674 l 711 0 l 617 0 l 565 67 z "},"ú":{"ha":799,"x_min":79,"x_max":711,"o":"m 379 1046 l 565 1046 l 432 818 l 296 818 l 379 1046 m 565 67 q 453 -2 519 24 q 332 -28 386 -28 q 137 53 194 -28 q 79 250 79 135 l 79 674 l 261 674 l 261 258 q 292 160 261 194 q 381 126 322 126 q 457 144 417 126 q 531 186 497 163 l 531 674 l 711 674 l 711 0 l 617 0 l 565 67 z "},"û":{"ha":799,"x_min":79,"x_max":711,"o":"m 313 818 l 140 818 l 354 1046 l 450 1046 l 663 818 l 497 818 l 406 908 l 313 818 m 565 67 q 453 -2 519 24 q 332 -28 386 -28 q 137 53 194 -28 q 79 250 79 135 l 79 674 l 261 674 l 261 258 q 292 160 261 194 q 381 126 322 126 q 457 144 417 126 q 531 186 497 163 l 531 674 l 711 674 l 711 0 l 617 0 l 565 67 z "},"ü":{"ha":799,"x_min":79,"x_max":711,"o":"m 272 1017 q 335 990 310 1017 q 360 926 360 964 q 335 863 360 889 q 272 838 310 838 q 208 863 235 838 q 181 926 181 889 q 208 990 181 964 q 272 1017 235 1017 m 538 1017 q 601 990 575 1017 q 626 926 626 964 q 601 863 626 889 q 538 838 575 838 q 474 863 500 838 q 447 926 447 889 q 474 990 447 964 q 538 1017 500 1017 m 565 67 q 453 -2 519 24 q 332 -28 386 -28 q 137 53 194 -28 q 79 250 79 135 l 79 674 l 261 674 l 261 258 q 292 160 261 194 q 381 126 322 126 q 457 144 417 126 q 531 186 497 163 l 531 674 l 711 674 l 711 0 l 617 0 l 565 67 z "},"ū":{"ha":799,"x_min":79,"x_max":711,"o":"m 217 994 l 582 994 l 582 851 l 217 851 l 217 994 m 565 67 q 453 -2 519 24 q 332 -28 386 -28 q 137 53 194 -28 q 79 250 79 135 l 79 674 l 261 674 l 261 258 q 292 160 261 194 q 381 126 322 126 q 457 144 417 126 q 531 186 497 163 l 531 674 l 711 674 l 711 0 l 617 0 l 565 67 z "},"ů":{"ha":799,"x_min":79,"x_max":711,"o":"m 404 1101 q 508 1061 464 1101 q 553 961 553 1021 q 508 863 553 901 q 404 825 464 825 q 299 863 343 825 q 254 961 254 901 q 299 1061 254 1021 q 404 1101 343 1101 m 404 906 q 442 922 426 906 q 457 961 457 939 q 442 999 457 983 q 404 1015 426 1015 q 365 999 382 1015 q 349 961 349 983 q 365 922 349 939 q 404 906 382 906 m 565 67 q 453 -2 519 24 q 332 -28 386 -28 q 137 53 194 -28 q 79 250 79 135 l 79 674 l 261 674 l 261 258 q 292 160 261 194 q 381 126 322 126 q 457 144 417 126 q 531 186 497 163 l 531 674 l 711 674 l 711 0 l 617 0 l 565 67 z "},"ű":{"ha":799,"x_min":79,"x_max":724,"o":"m 553 1046 l 724 1046 l 592 818 l 468 818 l 553 1046 m 293 1046 l 464 1046 l 332 818 l 208 818 l 293 1046 m 565 67 q 453 -2 519 24 q 332 -28 386 -28 q 137 53 194 -28 q 79 250 79 135 l 79 674 l 261 674 l 261 258 q 292 160 261 194 q 381 126 322 126 q 457 144 417 126 q 531 186 497 163 l 531 674 l 711 674 l 711 0 l 617 0 l 565 67 z "},"ų":{"ha":799,"x_min":79,"x_max":807,"o":"m 565 67 q 453 -2 519 24 q 332 -28 386 -28 q 137 53 194 -28 q 79 250 79 135 l 79 674 l 261 674 l 261 258 q 292 160 261 194 q 381 126 322 126 q 457 144 417 126 q 531 186 497 163 l 531 674 l 711 674 l 711 0 q 674 -53 692 -21 q 656 -115 656 -85 q 666 -142 656 -131 q 699 -154 676 -154 q 724 -148 708 -154 q 756 -131 740 -142 l 807 -242 q 739 -277 774 -267 q 665 -287 704 -287 q 549 -241 593 -287 q 504 -131 504 -194 q 530 -30 504 -75 q 583 43 556 15 l 565 67 z "},"ý":{"ha":694,"x_min":8,"x_max":688,"o":"m 325 1046 l 513 1046 l 379 818 l 242 818 l 325 1046 m 217 -32 l 249 47 l 8 649 l 194 674 l 350 265 l 497 674 l 688 674 l 422 0 l 386 -89 q 274 -229 354 -171 q 104 -308 193 -287 l 40 -160 q 144 -109 89 -139 q 217 -32 199 -79 z "},"ÿ":{"ha":694,"x_min":8,"x_max":688,"o":"m 485 1017 q 547 990 522 1017 q 572 926 572 964 q 547 863 572 889 q 485 838 522 838 q 419 863 446 838 q 393 926 393 889 q 419 990 393 964 q 485 1017 446 1017 m 217 1017 q 281 990 254 1017 q 307 926 307 964 q 281 863 307 889 q 217 838 254 838 q 153 863 181 838 q 126 926 126 889 q 153 990 126 964 q 217 1017 181 1017 m 217 -32 l 249 47 l 8 649 l 194 674 l 350 265 l 497 674 l 688 674 l 422 0 l 386 -89 q 274 -229 354 -171 q 104 -308 193 -287 l 40 -160 q 144 -109 89 -139 q 217 -32 199 -79 z "},"ź":{"ha":624,"x_min":22,"x_max":601,"o":"m 325 1046 l 511 1046 l 378 818 l 240 818 l 325 1046 m 588 586 l 263 146 l 588 146 l 601 0 l 46 0 l 22 96 l 343 540 l 74 540 l 39 689 l 578 689 l 588 586 z "},"ż":{"ha":624,"x_min":22,"x_max":601,"o":"m 343 1029 q 416 999 386 1029 q 446 926 446 969 q 416 854 446 883 q 343 825 386 825 q 270 854 300 825 q 240 926 240 883 q 270 999 240 969 q 343 1029 300 1029 m 588 586 l 263 146 l 588 146 l 601 0 l 46 0 l 22 96 l 343 540 l 74 540 l 39 689 l 578 689 l 588 586 z "},"ž":{"ha":624,"x_min":22,"x_max":601,"o":"m 71 1046 l 242 1046 l 335 956 l 428 1046 l 593 1046 l 381 818 l 283 818 l 71 1046 m 588 586 l 263 146 l 588 146 l 601 0 l 46 0 l 22 96 l 343 540 l 74 540 l 39 689 l 578 689 l 588 586 z "},"ş":{"ha":600,"x_min":43,"x_max":557,"o":"m 482 492 q 392 526 433 514 q 303 538 350 538 q 249 524 268 538 q 231 488 231 511 q 253 456 231 471 q 328 422 276 440 q 485 337 413 392 q 557 194 557 282 q 501 52 557 107 q 338 -14 446 -3 l 326 -40 q 394 -92 367 -57 q 422 -164 422 -128 q 369 -272 422 -237 q 249 -307 315 -307 q 179 -297 221 -307 q 115 -268 138 -286 l 157 -162 q 203 -181 175 -172 q 249 -190 231 -190 q 279 -185 264 -190 q 294 -167 294 -181 q 261 -128 294 -146 q 172 -104 228 -110 l 210 -10 q 121 13 167 -3 q 43 53 75 28 l 97 183 q 191 149 146 161 q 274 138 236 138 q 350 151 324 138 q 376 188 376 165 q 350 238 376 215 q 267 278 324 260 q 115 353 186 304 q 43 486 43 403 q 114 637 43 582 q 306 692 185 692 q 417 674 349 692 q 536 621 485 656 l 482 492 z "},"ķ":{"ha":732,"x_min":96,"x_max":724,"o":"m 275 981 l 275 428 l 564 693 l 665 565 l 476 400 l 724 0 l 517 0 l 347 285 l 275 221 l 275 0 l 96 0 l 96 965 l 275 981 m 378 -29 q 452 -64 421 -29 q 483 -154 483 -99 q 435 -297 483 -232 q 321 -394 386 -362 l 282 -310 q 322 -282 300 -303 q 354 -232 344 -261 q 303 -201 331 -232 q 276 -132 276 -171 q 306 -62 276 -94 q 378 -29 335 -29 z "},"ļ":{"ha":369,"x_min":90,"x_max":296,"o":"m 275 981 l 275 0 l 96 0 l 96 965 l 275 981 m 193 -29 q 266 -64 236 -29 q 296 -154 296 -99 q 248 -297 296 -232 q 135 -394 200 -362 l 96 -310 q 136 -282 114 -303 q 168 -232 158 -261 q 117 -201 143 -232 q 90 -132 90 -171 q 120 -62 90 -94 q 193 -29 150 -29 z "},"ņ":{"ha":806,"x_min":86,"x_max":725,"o":"m 235 601 q 349 674 281 647 q 472 700 418 700 q 667 619 610 700 q 725 422 725 539 l 725 0 l 544 0 l 544 414 q 514 512 544 478 q 425 546 483 546 q 344 526 386 546 q 267 479 301 506 l 267 0 l 86 0 l 86 674 l 181 674 l 235 601 m 404 -29 q 477 -64 447 -29 q 507 -154 507 -99 q 459 -297 507 -232 q 346 -394 411 -362 l 307 -310 q 347 -282 325 -303 q 379 -232 369 -261 q 329 -201 356 -232 q 303 -132 303 -171 q 332 -62 303 -94 q 404 -29 361 -29 z "},"ŗ":{"ha":497,"x_min":81,"x_max":492,"o":"m 456 674 l 492 529 q 385 503 446 529 q 267 425 325 476 l 267 0 l 86 0 l 86 674 l 181 674 l 240 575 q 342 642 282 611 q 456 674 401 674 m 183 -29 q 256 -64 226 -29 q 286 -154 286 -99 q 239 -297 286 -232 q 125 -394 192 -362 l 86 -310 q 127 -282 104 -303 q 160 -232 150 -261 q 107 -201 133 -232 q 81 -132 81 -171 q 110 -62 81 -94 q 183 -29 140 -29 z "},"ţ":{"ha":517,"x_min":8,"x_max":503,"o":"m 450 144 l 503 14 q 448 -14 482 -3 q 383 -26 414 -25 l 378 -40 q 446 -92 418 -57 q 474 -164 474 -128 q 421 -272 474 -237 q 300 -307 368 -307 q 231 -297 272 -307 q 167 -268 189 -286 l 208 -162 q 254 -181 226 -172 q 300 -190 282 -190 q 331 -185 317 -190 q 346 -167 346 -181 q 313 -128 346 -146 q 225 -104 279 -110 l 261 -14 q 142 67 185 8 q 99 215 99 125 l 99 533 l 8 533 l 8 672 l 99 672 l 99 832 l 278 864 l 278 672 l 400 672 l 456 533 l 278 533 l 278 247 q 303 160 278 194 q 376 126 328 126 q 413 131 394 126 q 450 144 431 135 z "},"ș":{"ha":600,"x_min":43,"x_max":557,"o":"m 482 492 q 392 526 433 514 q 303 538 350 538 q 249 524 268 538 q 231 488 231 511 q 253 456 231 471 q 328 422 276 440 q 485 337 413 392 q 557 194 557 282 q 485 39 557 94 q 276 -17 414 -17 q 162 0 233 -17 q 43 53 90 17 l 97 183 q 191 149 146 161 q 274 138 236 138 q 350 151 324 138 q 376 188 376 165 q 350 238 376 215 q 267 278 324 260 q 115 353 186 304 q 43 486 43 403 q 114 637 43 582 q 306 692 185 692 q 417 674 349 692 q 536 621 485 656 l 482 492 m 288 -29 q 362 -64 331 -29 q 393 -154 393 -99 q 345 -297 393 -232 q 232 -394 297 -362 l 193 -310 q 233 -282 211 -303 q 264 -232 256 -261 q 213 -201 240 -232 q 186 -132 186 -171 q 216 -62 186 -94 q 288 -29 246 -29 z "},"ț":{"ha":517,"x_min":8,"x_max":503,"o":"m 503 14 q 440 -16 481 -4 q 367 -28 399 -28 q 170 35 242 -28 q 99 215 99 99 l 99 533 l 8 533 l 8 672 l 99 672 l 99 832 l 278 864 l 278 672 l 400 672 l 456 533 l 278 533 l 278 247 q 303 160 278 194 q 376 126 328 126 q 413 131 394 126 q 450 144 431 135 l 503 14 m 328 -29 q 400 -64 369 -29 q 431 -154 431 -99 q 383 -297 431 -232 q 269 -394 336 -362 l 231 -310 q 272 -282 249 -303 q 304 -232 294 -261 q 252 -201 279 -232 q 225 -132 225 -171 q 255 -62 225 -94 q 328 -29 285 -29 z "},"­":{"ha":182,"x_min":0,"x_max":0,"o":""},"µ":{"ha":813,"x_min":96,"x_max":725,"o":"m 582 67 q 468 -2 535 24 q 347 -28 401 -28 q 308 -26 326 -28 q 275 -21 290 -24 l 275 -290 l 96 -304 l 96 674 l 275 674 l 275 258 q 306 160 275 194 q 396 126 336 126 q 472 144 432 126 q 544 186 511 163 l 544 674 l 725 674 l 725 0 l 631 0 l 582 67 z "},"ˉ":{"ha":407,"x_min":22,"x_max":386,"o":"m 22 994 l 386 994 l 386 851 l 22 851 l 22 994 z "},"ℓ":{"ha":599,"x_min":35,"x_max":556,"o":"m 351 975 q 496 921 436 975 q 556 771 556 867 q 484 569 556 674 q 313 378 413 465 l 313 249 q 326 172 313 203 q 378 140 340 140 q 415 144 390 140 q 469 174 439 149 l 531 58 q 444 4 489 22 q 358 -14 399 -14 q 182 54 233 -14 q 131 232 131 122 l 131 242 q 106 226 119 235 q 79 213 93 218 l 35 376 q 82 406 57 390 q 131 440 107 422 l 131 763 q 197 919 131 863 q 351 975 263 975 m 313 753 l 313 601 q 360 678 343 638 q 378 761 378 718 q 366 806 378 793 q 344 818 354 818 q 322 803 331 817 q 313 753 313 789 z "},"Ω":{"ha":1029,"x_min":72,"x_max":957,"o":"m 763 478 q 694 724 763 635 q 514 814 626 814 q 335 724 403 814 q 267 478 267 635 q 305 273 267 365 q 413 146 343 181 l 413 0 l 79 0 l 72 146 l 192 146 q 108 297 136 204 q 79 483 79 390 q 193 832 79 701 q 514 967 307 963 q 835 832 721 963 q 950 483 950 701 q 922 297 950 390 q 838 146 893 204 l 957 146 l 949 0 l 617 0 l 617 146 q 725 273 688 181 q 763 478 763 365 z "},"∆":{"ha":904,"x_min":8,"x_max":896,"o":"m 529 944 l 896 25 l 715 0 l 8 0 l 376 944 l 529 944 m 449 697 l 242 144 l 660 144 l 449 697 z "},"∕":{"ha":618,"x_min":8,"x_max":611,"o":"m 611 981 l 196 -6 l 8 0 l 422 986 l 611 981 z "},"∙":{"ha":388,"x_min":43,"x_max":344,"o":"m 193 310 q 87 353 131 310 q 43 458 43 396 q 87 564 43 519 q 193 608 131 608 q 300 564 256 608 q 344 458 344 519 q 300 353 344 396 q 193 310 256 310 z "},"₺":{"ha":804,"x_min":29,"x_max":760,"o":"m 329 981 l 329 833 l 538 906 l 563 767 l 329 685 l 329 628 l 538 700 l 563 561 l 329 478 l 329 171 q 507 246 438 171 q 575 438 576 321 l 760 438 q 637 120 760 240 q 329 0 514 0 l 149 0 l 149 414 l 56 382 l 29 521 l 149 563 l 149 621 l 56 586 l 29 726 l 149 768 l 149 965 l 329 981 z "},"₽":{"ha":908,"x_min":86,"x_max":850,"o":"m 713 164 l 361 164 l 361 0 l 182 0 l 182 164 l 101 164 l 86 306 l 182 306 l 182 372 l 88 372 l 88 519 l 182 519 l 182 944 l 478 944 q 741 885 632 944 q 850 663 850 825 q 732 437 849 501 q 465 372 615 372 l 361 372 l 361 306 l 697 306 l 713 164 m 472 794 l 361 794 l 361 519 l 475 519 q 606 547 557 519 q 661 653 654 574 q 611 769 661 744 q 472 794 561 794 z "},"¢":{"ha":675,"x_min":58,"x_max":631,"o":"m 496 849 l 496 676 q 567 656 531 671 q 631 621 603 640 l 579 492 q 492 526 531 514 q 407 538 454 538 q 288 480 331 538 q 244 336 244 422 q 288 193 244 249 q 407 138 331 138 q 492 149 454 138 q 579 183 531 161 l 631 53 q 569 17 604 31 q 499 -6 533 3 l 499 -160 l 318 -146 l 318 -8 q 126 106 194 15 q 58 336 58 197 q 126 565 58 474 q 315 682 193 657 l 315 849 l 496 849 z "},"£":{"ha":714,"x_min":72,"x_max":699,"o":"m 72 542 l 176 542 l 176 699 q 246 883 176 815 q 440 950 315 950 q 514 938 474 950 q 576 906 554 925 l 524 778 q 485 790 504 786 q 449 794 465 794 q 379 760 400 794 q 358 675 358 726 l 358 542 l 522 542 l 582 404 l 358 404 l 358 278 q 351 203 358 239 q 329 140 344 168 l 671 140 l 699 0 l 89 0 l 89 140 l 94 140 q 158 175 139 142 q 176 260 176 208 l 176 404 l 72 404 l 72 542 z "},"¤":{"ha":949,"x_min":29,"x_max":919,"o":"m 661 29 q 575 -5 621 7 q 478 -18 529 -17 q 377 -3 425 -17 q 288 32 329 10 l 140 -118 l 29 15 l 165 154 q 131 238 143 193 q 118 335 118 283 q 131 433 118 386 q 167 517 144 481 l 29 657 l 140 790 l 288 642 q 377 677 329 664 q 478 692 425 690 q 575 678 529 690 q 661 643 621 665 l 808 790 l 919 657 l 786 522 q 823 436 810 483 q 838 338 836 389 q 823 236 836 283 q 786 150 810 189 l 919 15 l 808 -118 l 661 29 m 651 336 q 597 465 650 413 q 475 517 544 517 q 356 463 407 515 q 304 336 306 411 q 356 208 306 261 q 475 154 407 156 q 597 208 544 154 q 651 336 650 261 z "},"¥":{"ha":840,"x_min":8,"x_max":833,"o":"m 728 92 l 506 92 l 506 0 l 325 0 l 325 92 l 108 92 l 93 225 l 325 225 l 325 303 l 108 303 l 93 436 l 286 436 l 8 921 l 194 944 l 414 550 l 643 944 l 833 944 l 547 436 l 714 436 l 728 303 l 506 303 l 506 225 l 714 225 l 728 92 z "},"€":{"ha":881,"x_min":58,"x_max":853,"o":"m 692 281 l 385 281 q 462 174 411 215 q 592 132 513 132 q 698 144 653 132 q 786 175 743 157 l 853 42 q 726 -3 800 14 q 594 -19 653 -19 q 338 66 429 -19 q 213 281 246 151 l 75 281 l 58 414 l 192 414 q 190 441 190 428 q 189 468 189 454 q 190 497 189 482 q 193 526 192 513 l 75 526 l 58 660 l 214 660 q 349 879 251 794 q 603 964 446 964 q 714 950 644 964 q 844 903 783 936 l 789 774 q 697 802 728 792 q 604 813 665 813 q 472 772 526 813 q 386 660 417 732 l 678 660 l 692 526 l 357 526 q 355 499 356 513 q 354 469 354 485 q 355 442 354 456 q 357 414 356 428 l 678 414 l 692 281 z "},"$":{"ha":767,"x_min":57,"x_max":708,"o":"m 214 -178 l 214 4 q 131 33 169 17 q 75 63 93 49 l 115 208 q 225 164 158 186 q 351 142 292 142 q 478 168 436 142 q 521 244 521 194 q 465 328 521 292 q 340 400 408 365 q 149 521 240 451 q 58 714 57 590 q 99 845 58 786 q 214 935 140 904 l 214 1122 l 336 1117 l 336 964 q 360 966 347 965 q 383 967 372 967 q 400 966 393 967 q 415 964 407 965 l 415 1122 l 539 1122 l 539 939 q 597 919 569 931 q 650 896 625 907 l 590 751 q 497 791 547 772 q 386 810 447 810 q 285 786 326 810 q 244 714 244 763 q 297 626 244 661 q 422 553 350 592 q 616 432 524 501 q 707 242 708 363 q 663 106 706 167 q 539 13 619 46 l 539 -178 l 415 -165 l 415 -15 q 385 -17 401 -17 q 354 -18 369 -18 l 336 -18 l 336 -178 l 214 -178 z "},",":{"ha":260,"x_min":14,"x_max":238,"o":"m 132 203 q 206 168 175 203 q 238 78 238 133 q 185 -84 238 1 q 54 -214 133 -169 l 14 -128 q 74 -71 50 -97 q 108 0 99 -44 q 58 31 85 0 q 32 100 32 63 q 61 170 32 138 q 132 203 90 203 z "},".":{"ha":232,"x_min":14,"x_max":217,"o":"m 117 203 q 188 174 160 203 q 217 101 217 144 q 188 29 217 58 q 117 0 160 0 q 44 29 74 0 q 14 101 14 58 q 44 174 14 144 q 117 203 74 203 z "},"!":{"ha":350,"x_min":72,"x_max":276,"o":"m 103 339 l 79 975 l 268 975 l 247 272 l 103 339 m 174 203 q 247 174 217 203 q 276 101 276 144 q 247 29 276 58 q 174 0 217 0 q 102 29 132 0 q 72 101 72 58 q 102 174 72 144 q 174 203 132 203 z "},"¡":{"ha":350,"x_min":72,"x_max":276,"o":"m 174 771 q 102 801 132 771 q 72 874 72 831 q 102 945 72 915 q 174 975 132 975 q 247 945 217 975 q 276 874 276 915 q 247 801 276 831 q 174 771 217 771 m 247 636 l 267 0 l 79 0 l 101 701 l 247 636 z "},":":{"ha":232,"x_min":14,"x_max":217,"o":"m 117 658 q 188 628 160 658 q 217 557 217 599 q 188 484 217 514 q 117 454 160 454 q 44 484 74 454 q 14 557 14 514 q 44 628 14 599 q 117 658 74 658 m 117 203 q 188 174 160 203 q 217 101 217 144 q 188 29 217 58 q 117 0 160 0 q 44 29 74 0 q 14 101 14 58 q 44 174 14 144 q 117 203 74 203 z "},";":{"ha":261,"x_min":14,"x_max":239,"o":"m 138 658 q 210 628 181 658 q 239 557 239 599 q 210 484 239 514 q 138 454 181 454 q 64 484 94 454 q 33 557 33 514 q 64 628 33 599 q 138 658 94 658 m 132 203 q 206 168 175 203 q 238 78 238 133 q 185 -84 238 1 q 54 -214 133 -169 l 14 -128 q 74 -71 50 -97 q 108 0 99 -44 q 58 31 85 0 q 32 100 32 63 q 61 170 32 138 q 132 203 90 203 z "},"?":{"ha":578,"x_min":8,"x_max":557,"o":"m 278 974 q 487 905 417 974 q 557 725 557 836 q 491 570 557 650 q 328 439 425 490 l 304 249 l 176 303 l 165 532 q 328 615 264 564 q 392 722 392 665 q 358 797 392 769 q 274 824 324 824 q 166 803 231 824 q 32 735 101 782 l 8 896 q 138 955 72 936 q 278 974 203 974 m 231 203 q 303 174 274 203 q 332 101 332 144 q 303 29 332 58 q 231 0 274 0 q 158 29 188 0 q 128 101 128 58 q 158 174 128 144 q 231 203 188 203 z "},"¿":{"ha":636,"x_min":58,"x_max":606,"o":"m 383 718 q 311 748 340 718 q 282 821 282 778 q 311 892 282 863 q 383 922 340 922 q 456 892 426 922 q 486 821 486 863 q 456 748 486 778 q 383 718 426 718 m 335 -51 q 128 18 197 -51 q 58 197 58 88 q 124 353 58 274 q 286 485 190 432 l 310 674 l 438 621 l 450 392 q 286 308 350 360 q 222 199 222 257 q 256 126 222 153 q 340 99 290 99 q 449 119 385 99 q 582 189 513 139 l 606 26 q 476 -33 542 -14 q 335 -51 411 -51 z "},"*":{"ha":526,"x_min":8,"x_max":519,"o":"m 336 928 l 478 958 l 519 832 l 379 804 l 475 668 l 367 583 l 264 721 l 163 583 l 53 668 l 149 803 q 79 819 114 813 q 8 832 44 826 l 50 958 l 190 928 q 191 994 190 961 q 193 1065 192 1028 l 335 1065 l 336 928 z "},"\"":{"ha":500,"x_min":8,"x_max":486,"o":"m 383 1031 q 456 997 426 1031 q 486 907 486 963 q 435 744 486 829 q 304 615 383 660 l 264 700 q 324 758 299 731 q 358 829 349 785 q 307 860 333 829 q 281 928 281 890 q 310 997 281 964 q 383 1031 340 1031 m 125 1031 q 199 997 168 1031 q 231 907 231 963 q 178 744 231 829 q 47 615 126 660 l 8 700 q 67 758 43 731 q 101 829 92 785 q 51 860 78 829 q 24 928 24 890 q 53 997 24 964 q 125 1031 82 1031 z "},"'":{"ha":244,"x_min":8,"x_max":231,"o":"m 125 1031 q 199 997 168 1031 q 231 907 231 963 q 178 744 231 829 q 47 615 126 660 l 8 700 q 67 758 43 731 q 101 829 92 785 q 51 860 78 829 q 24 928 24 890 q 53 997 24 964 q 125 1031 82 1031 z "},"‘":{"ha":244,"x_min":14,"x_max":238,"o":"m 118 615 q 44 651 75 615 q 14 740 14 686 q 66 903 14 818 q 197 1031 118 988 l 238 947 q 177 890 201 917 q 143 818 153 864 q 193 788 167 818 q 219 718 219 757 q 190 649 219 682 q 118 615 161 615 z "},"’":{"ha":244,"x_min":8,"x_max":231,"o":"m 125 1031 q 199 997 168 1031 q 231 907 231 963 q 178 744 231 829 q 47 615 126 660 l 8 700 q 67 758 43 731 q 101 829 92 785 q 51 860 78 829 q 24 928 24 890 q 53 997 24 964 q 125 1031 82 1031 z "},"‚":{"ha":244,"x_min":8,"x_max":231,"o":"m 125 203 q 199 168 168 203 q 231 78 231 133 q 178 -84 231 1 q 47 -214 126 -169 l 8 -128 q 67 -71 43 -97 q 101 0 92 -44 q 51 31 78 0 q 24 100 24 63 q 53 170 24 138 q 125 203 82 203 z "},"“":{"ha":500,"x_min":14,"x_max":494,"o":"m 118 615 q 44 651 75 615 q 14 740 14 686 q 66 903 14 818 q 197 1031 118 988 l 238 947 q 177 890 201 917 q 143 818 153 864 q 193 788 167 818 q 219 718 219 757 q 190 649 219 682 q 118 615 161 615 m 375 615 q 301 651 332 615 q 271 740 271 686 q 323 903 271 818 q 453 1031 375 988 l 494 947 q 434 890 458 917 q 400 818 410 864 q 450 788 422 818 q 478 718 478 757 q 448 649 478 682 q 375 615 418 615 z "},"”":{"ha":500,"x_min":8,"x_max":486,"o":"m 383 1031 q 456 997 426 1031 q 486 907 486 963 q 435 744 486 829 q 304 615 383 660 l 264 700 q 324 758 299 731 q 358 829 349 785 q 307 860 333 829 q 281 928 281 890 q 310 997 281 964 q 383 1031 340 1031 m 125 1031 q 199 997 168 1031 q 231 907 231 963 q 178 744 231 829 q 47 615 126 660 l 8 700 q 67 758 43 731 q 101 829 92 785 q 51 860 78 829 q 24 928 24 890 q 53 997 24 964 q 125 1031 82 1031 z "},"„":{"ha":500,"x_min":8,"x_max":486,"o":"m 383 203 q 456 168 426 203 q 486 78 486 133 q 435 -84 486 1 q 304 -214 383 -169 l 264 -128 q 324 -71 299 -97 q 358 0 349 -44 q 307 31 333 0 q 281 100 281 63 q 310 170 281 138 q 383 203 340 203 m 125 203 q 199 168 168 203 q 231 78 231 133 q 178 -84 231 1 q 47 -214 126 -169 l 8 -128 q 67 -71 43 -97 q 101 0 92 -44 q 51 31 78 0 q 24 100 24 63 q 53 170 24 138 q 125 203 82 203 z "},"·":{"ha":232,"x_min":14,"x_max":217,"o":"m 117 465 q 188 436 160 465 q 217 364 217 407 q 188 292 217 321 q 117 263 160 263 q 44 292 74 263 q 14 364 14 321 q 44 436 14 407 q 117 465 74 465 z "},"(":{"ha":397,"x_min":58,"x_max":375,"o":"m 235 -54 q 106 181 153 54 q 58 446 58 308 q 104 703 58 581 q 235 947 150 826 l 375 896 q 270 683 315 814 q 225 447 225 551 q 269 206 225 340 q 374 -1 314 71 l 235 -54 z "},")":{"ha":397,"x_min":22,"x_max":339,"o":"m 163 947 q 291 711 243 839 q 339 446 339 583 q 292 190 339 313 q 161 -54 244 67 l 22 -3 q 126 210 82 79 q 169 446 169 342 q 126 687 169 551 q 24 893 83 822 l 163 947 z "},"[":{"ha":453,"x_min":96,"x_max":446,"o":"m 275 825 l 275 18 l 418 18 l 446 -122 l 96 -122 l 96 967 l 446 967 l 418 825 l 275 825 z "},"]":{"ha":453,"x_min":8,"x_max":358,"o":"m 176 18 l 176 825 l 33 825 l 8 967 l 358 967 l 358 -122 l 8 -122 l 33 18 l 176 18 z "},"{":{"ha":403,"x_min":43,"x_max":396,"o":"m 267 739 q 291 657 267 700 q 315 567 315 614 q 304 486 315 519 q 267 429 293 453 q 303 369 292 404 q 315 290 315 333 q 291 201 315 246 q 267 118 267 156 q 280 94 267 107 q 319 81 293 81 l 378 81 l 396 -58 l 315 -58 q 165 -10 213 -58 q 118 118 118 39 q 126 172 118 139 q 146 236 133 206 q 158 274 151 256 q 164 307 164 293 q 146 351 164 335 q 106 368 128 368 l 43 368 l 43 488 l 106 488 q 146 504 128 488 q 164 549 164 521 q 158 583 164 563 q 143 629 151 604 l 143 628 q 126 686 133 656 q 118 740 118 717 q 165 867 118 819 q 315 915 213 915 l 396 915 l 378 776 l 319 776 q 280 763 293 776 q 267 739 267 750 z "},"}":{"ha":403,"x_min":8,"x_max":358,"o":"m 133 118 q 110 200 133 157 q 86 290 86 243 q 97 371 86 336 q 135 428 108 406 q 98 488 110 453 q 86 567 86 524 q 110 656 86 611 q 133 739 133 701 q 121 763 133 750 q 82 776 108 776 l 24 776 l 8 915 l 86 915 q 237 867 188 915 q 286 740 286 819 q 277 685 286 718 q 257 621 268 651 q 245 582 251 601 q 239 549 239 563 q 256 505 239 522 q 296 488 274 488 l 358 488 l 358 369 l 296 369 q 256 353 274 369 q 239 307 239 336 q 245 273 239 293 q 260 228 251 253 l 260 229 q 277 172 268 203 q 286 118 286 140 q 237 -10 286 39 q 86 -58 188 -58 l 8 -58 l 24 81 l 82 81 q 121 94 108 81 q 133 118 133 107 z "},"/":{"ha":618,"x_min":8,"x_max":611,"o":"m 611 981 l 196 -6 l 8 0 l 422 986 l 611 981 z "},"\\":{"ha":618,"x_min":8,"x_max":611,"o":"m 422 -6 l 8 981 l 196 986 l 611 0 l 422 -6 z "},"|":{"ha":369,"x_min":96,"x_max":275,"o":"m 275 976 l 275 -14 l 96 0 l 96 990 l 275 976 z "},"¦":{"ha":369,"x_min":96,"x_max":275,"o":"m 275 976 l 275 564 l 96 579 l 96 990 l 275 976 m 275 400 l 275 -14 l 96 0 l 96 413 l 275 400 z "},"«":{"ha":533,"x_min":29,"x_max":517,"o":"m 488 115 l 264 307 l 264 374 l 488 567 l 517 446 l 400 340 l 517 235 l 488 115 m 251 115 l 29 307 l 29 374 l 251 567 l 283 446 l 165 340 l 283 235 l 251 115 z "},"»":{"ha":533,"x_min":14,"x_max":504,"o":"m 46 567 l 267 374 l 267 307 l 46 115 l 14 235 l 132 340 l 14 446 l 46 567 m 281 567 l 504 374 l 504 307 l 281 115 l 250 235 l 368 340 l 250 446 l 281 567 z "},"π":{"ha":1001,"x_min":51,"x_max":951,"o":"m 639 0 l 639 533 l 363 533 l 363 0 l 183 0 l 183 533 l 51 533 l 51 674 l 951 674 l 951 533 l 819 533 l 819 0 l 639 0 z "},"†":{"ha":594,"x_min":29,"x_max":565,"o":"m 397 1083 l 397 868 l 540 868 l 565 699 l 397 699 l 382 -6 l 217 0 l 203 699 l 56 699 l 29 868 l 203 868 l 203 1088 l 397 1083 z "},"‡":{"ha":643,"x_min":43,"x_max":597,"o":"m 214 -8 l 221 214 l 69 214 l 43 383 l 217 383 l 221 699 l 69 699 l 43 868 l 224 868 l 217 1088 l 428 1083 l 422 868 l 572 868 l 597 699 l 422 699 l 422 383 l 572 383 l 597 214 l 418 214 l 425 1 l 214 -8 z "},"•":{"ha":388,"x_min":43,"x_max":344,"o":"m 193 310 q 87 353 131 310 q 43 458 43 396 q 87 564 43 519 q 193 608 131 608 q 300 564 256 608 q 344 458 344 519 q 300 353 344 396 q 193 310 256 310 z "},"…":{"ha":694,"x_min":14,"x_max":679,"o":"m 586 186 q 652 158 625 186 q 679 92 679 131 q 652 26 679 53 q 586 0 625 0 q 522 26 549 0 q 494 92 494 53 q 522 158 494 131 q 586 186 549 186 m 350 186 q 415 158 388 186 q 442 92 442 131 q 415 26 442 53 q 350 0 388 0 q 283 26 310 0 q 256 92 256 53 q 283 158 256 131 q 350 186 310 186 m 108 186 q 174 158 147 186 q 201 92 201 131 q 174 26 201 53 q 108 0 147 0 q 42 26 69 0 q 14 92 14 53 q 42 158 14 131 q 108 186 69 186 z "},"‹":{"ha":304,"x_min":29,"x_max":283,"o":"m 251 115 l 29 307 l 29 374 l 251 567 l 283 439 l 171 340 l 283 242 l 251 115 z "},"›":{"ha":304,"x_min":22,"x_max":275,"o":"m 53 567 l 275 374 l 275 307 l 53 115 l 22 242 l 131 340 l 22 439 l 53 567 z "},"-":{"ha":422,"x_min":22,"x_max":400,"o":"m 400 310 l 38 310 l 22 451 l 386 451 l 400 310 z "},"_":{"ha":575,"x_min":22,"x_max":553,"o":"m 553 0 l 38 0 l 22 140 l 539 140 l 553 0 z "},"–":{"ha":575,"x_min":22,"x_max":553,"o":"m 553 310 l 38 310 l 22 451 l 539 451 l 553 310 z "},"—":{"ha":722,"x_min":22,"x_max":701,"o":"m 701 310 l 38 310 l 22 451 l 689 451 l 701 310 z "},"#":{"ha":786,"x_min":29,"x_max":757,"o":"m 715 718 l 682 567 l 743 567 l 757 432 l 651 432 l 615 276 l 743 276 l 757 143 l 585 143 l 549 -21 l 394 -14 l 429 143 l 263 143 l 225 -21 l 72 -14 l 107 143 l 44 143 l 29 276 l 138 276 l 172 432 l 44 432 l 29 567 l 204 567 l 240 722 l 394 718 l 358 567 l 525 567 l 560 722 l 715 718 m 329 432 l 294 276 l 458 276 l 494 432 l 329 432 z "},"%":{"ha":1314,"x_min":43,"x_max":1268,"o":"m 950 981 l 536 -6 l 354 0 l 768 986 l 950 981 m 43 740 q 115 912 43 849 q 274 975 186 975 q 433 913 363 975 q 504 740 504 851 q 433 568 504 632 q 274 504 361 504 q 115 567 186 504 q 43 740 43 629 m 194 742 q 217 660 194 686 q 274 633 239 633 q 329 660 304 633 q 354 739 354 688 q 331 817 354 790 q 274 844 307 844 q 219 818 243 844 q 194 742 194 792 m 810 235 q 881 408 810 346 q 1040 469 953 469 q 1198 409 1128 469 q 1268 236 1268 349 q 1197 64 1268 128 q 1040 0 1126 0 q 881 62 953 0 q 810 235 810 124 m 960 238 q 983 155 960 182 q 1040 128 1006 128 q 1095 156 1071 128 q 1119 235 1119 183 q 1096 313 1119 286 q 1040 340 1072 340 q 985 314 1010 340 q 960 238 960 288 z "},"+":{"ha":707,"x_min":22,"x_max":686,"o":"m 686 313 l 446 313 l 446 6 l 276 11 l 276 313 l 33 313 l 22 450 l 276 450 l 276 742 l 446 738 l 446 450 l 672 450 l 686 313 z "},"÷":{"ha":668,"x_min":22,"x_max":646,"o":"m 332 500 q 256 531 288 500 q 225 606 225 563 q 256 683 225 651 q 332 714 288 714 q 408 683 376 714 q 440 606 440 651 q 408 531 440 563 q 332 500 376 500 m 646 310 l 35 310 l 22 451 l 631 451 l 646 310 m 332 33 q 256 65 288 33 q 225 140 225 97 q 256 217 225 186 q 332 249 288 249 q 408 217 376 249 q 440 140 440 186 q 408 65 440 97 q 332 33 376 33 z "},"×":{"ha":765,"x_min":29,"x_max":736,"o":"m 29 63 l 274 358 l 39 650 l 208 675 l 378 465 l 550 672 l 736 672 l 468 349 l 565 225 q 642 130 596 185 q 714 40 688 75 l 529 40 l 365 242 l 276 135 l 194 35 l 29 63 z "},"±":{"ha":628,"x_min":29,"x_max":597,"o":"m 597 414 l 394 414 l 394 194 l 240 201 l 240 414 l 43 414 l 29 538 l 240 538 l 240 742 l 394 738 l 394 538 l 585 538 l 597 414 m 597 0 l 43 0 l 33 125 l 592 125 l 597 0 z "},"<":{"ha":478,"x_min":22,"x_max":436,"o":"m 404 26 l 22 300 l 22 381 l 404 653 l 436 504 l 203 340 l 436 176 l 404 26 z "},"=":{"ha":692,"x_min":29,"x_max":663,"o":"m 663 432 l 44 432 l 29 567 l 650 567 l 663 432 m 663 143 l 44 143 l 29 276 l 650 276 l 663 143 z "},">":{"ha":478,"x_min":43,"x_max":457,"o":"m 75 653 l 457 381 l 457 300 l 75 26 l 43 176 l 276 340 l 43 504 l 75 653 z "},"°":{"ha":349,"x_min":8,"x_max":340,"o":"m 175 1006 q 290 959 240 1006 q 340 847 340 913 q 290 735 340 779 q 175 690 240 690 q 58 735 107 690 q 8 847 8 779 q 58 959 8 913 q 175 1006 107 1006 m 229 843 q 213 883 229 865 q 175 900 197 900 q 137 883 153 900 q 121 847 121 867 q 137 807 121 825 q 175 789 153 789 q 213 806 197 789 q 229 843 229 822 z "},"¹":{"ha":540,"x_min":86,"x_max":468,"o":"m 90 592 l 206 592 l 206 879 l 150 849 l 86 964 l 263 1060 l 369 1060 l 369 592 l 456 592 l 468 468 l 101 468 l 90 592 z "},"²":{"ha":557,"x_min":43,"x_max":497,"o":"m 251 1071 q 425 1010 369 1071 q 481 883 481 949 q 447 769 481 821 q 336 653 413 717 l 263 593 l 478 593 l 497 468 l 43 468 l 43 582 l 233 738 q 292 802 272 769 q 313 883 313 835 q 294 921 313 904 q 242 938 275 938 q 160 910 203 938 q 115 881 117 883 l 54 997 q 130 1045 82 1019 q 251 1071 178 1071 z "},"³":{"ha":590,"x_min":29,"x_max":503,"o":"m 271 1071 q 437 1016 382 1071 q 492 888 492 961 q 464 801 492 840 q 406 750 436 763 q 469 700 436 743 q 503 593 503 657 q 436 447 503 507 q 257 388 369 388 q 138 409 199 388 q 29 453 76 431 l 99 568 q 169 531 140 543 q 238 519 199 519 q 309 540 283 519 q 335 592 335 561 q 306 661 335 638 q 221 685 276 685 l 178 685 l 160 810 l 228 810 q 308 836 292 810 q 324 886 324 863 q 308 918 324 900 q 246 936 293 936 q 172 920 201 936 q 115 883 142 904 l 50 996 q 154 1050 101 1029 q 271 1071 207 1071 z "},"¼":{"ha":1289,"x_min":86,"x_max":1246,"o":"m 90 592 l 206 592 l 206 879 l 150 849 l 86 964 l 263 1060 l 369 1060 l 369 592 l 456 592 l 468 468 l 101 468 l 90 592 m 903 692 l 504 -6 l 310 0 l 706 696 l 903 692 m 1231 -112 l 1119 -112 l 1119 -229 l 954 -229 l 954 -112 l 679 -112 l 663 21 l 1006 447 l 1119 447 l 1119 21 l 1246 21 l 1231 -112 m 831 21 l 954 21 l 954 169 l 831 21 z "},"½":{"ha":1347,"x_min":86,"x_max":1288,"o":"m 90 592 l 206 592 l 206 879 l 150 849 l 86 964 l 263 1060 l 369 1060 l 369 592 l 456 592 l 468 468 l 101 468 l 90 592 m 903 692 l 504 -6 l 310 0 l 706 696 l 903 692 m 1040 450 q 1215 390 1160 450 q 1269 263 1269 329 q 1236 149 1269 200 q 1126 33 1203 97 l 1053 -28 l 1268 -28 l 1288 -153 l 833 -153 l 833 -37 l 1024 118 q 1083 183 1063 150 q 1104 263 1104 215 q 1085 301 1104 283 q 1032 318 1065 318 q 949 290 993 318 q 904 261 906 263 l 844 378 q 920 425 872 400 q 1040 450 968 450 z "},"¾":{"ha":1296,"x_min":29,"x_max":1253,"o":"m 911 692 l 514 -6 l 315 0 l 714 696 l 911 692 m 271 1071 q 437 1016 382 1071 q 492 888 492 961 q 464 801 492 840 q 406 750 436 763 q 469 700 436 743 q 503 593 503 657 q 436 447 503 507 q 257 388 369 388 q 138 409 199 388 q 29 453 76 431 l 99 568 q 169 531 140 543 q 238 519 199 519 q 309 540 283 519 q 335 592 335 561 q 306 661 335 638 q 221 685 276 685 l 178 685 l 160 810 l 228 810 q 308 836 292 810 q 324 886 324 863 q 308 918 324 900 q 246 936 293 936 q 172 920 201 936 q 115 883 142 904 l 50 996 q 154 1050 101 1029 q 271 1071 207 1071 m 1239 -112 l 1128 -112 l 1128 -229 l 963 -229 l 963 -112 l 688 -112 l 669 21 l 1014 447 l 1128 447 l 1128 21 l 1253 21 l 1239 -112 m 836 21 l 963 21 l 963 169 l 836 21 z "},"℮":{"ha":721,"x_min":29,"x_max":675,"o":"m 406 -17 q 129 79 229 -17 q 29 336 29 175 q 121 594 29 497 q 367 692 213 692 q 601 587 528 692 q 675 339 675 482 l 675 283 l 221 283 q 282 177 235 217 q 407 138 329 138 q 492 149 454 138 q 579 183 531 161 l 631 53 q 516 0 583 17 q 406 -17 449 -17 m 501 404 q 454 505 490 472 q 364 538 418 538 q 272 503 308 538 q 222 404 235 469 l 501 404 z "},"∂":{"ha":776,"x_min":43,"x_max":701,"o":"m 701 383 q 600 96 701 192 q 346 0 499 0 q 127 92 211 0 q 43 300 43 183 q 128 501 43 413 q 351 590 214 590 q 429 578 392 590 q 499 547 467 565 q 384 686 460 625 q 211 769 308 747 l 293 889 q 590 694 478 851 q 701 383 701 536 m 536 325 q 469 407 518 368 q 351 446 421 446 q 244 399 283 446 q 206 293 206 353 q 244 192 206 236 q 350 149 283 149 q 477 197 431 149 q 536 325 524 246 z "},"∏":{"ha":883,"x_min":96,"x_max":789,"o":"m 607 0 l 607 804 l 275 804 l 275 0 l 96 0 l 96 944 l 789 944 l 789 0 l 607 0 z "},"∑":{"ha":660,"x_min":29,"x_max":646,"o":"m 646 0 l 29 0 l 29 140 l 264 478 l 33 803 l 33 944 l 553 944 l 582 803 l 231 803 l 432 510 l 432 450 l 224 140 l 618 140 l 646 0 z "},"−":{"ha":625,"x_min":22,"x_max":604,"o":"m 604 310 l 35 310 l 22 451 l 588 451 l 604 310 z "},"√":{"ha":863,"x_min":8,"x_max":856,"o":"m 856 981 l 442 -6 l 244 0 l 8 440 l 196 446 l 335 193 l 669 986 l 856 981 z "},"∞":{"ha":1163,"x_min":43,"x_max":1119,"o":"m 961 361 q 919 462 961 419 q 811 504 878 504 q 708 445 751 504 q 647 322 665 386 l 643 301 q 715 228 669 256 q 811 199 760 200 q 919 247 878 199 q 961 361 961 296 m 201 339 q 243 238 201 281 q 351 194 285 194 q 454 253 411 194 q 515 378 497 313 l 519 400 q 448 471 493 443 q 351 500 403 499 q 243 451 285 500 q 201 339 201 403 m 349 650 q 482 621 419 650 q 592 540 544 592 q 686 619 629 588 q 811 651 743 651 q 1032 570 944 651 q 1119 358 1119 489 q 1033 140 1119 229 q 814 50 946 50 q 682 79 744 50 q 572 160 619 108 q 477 80 533 113 q 351 47 421 47 q 131 129 218 47 q 43 340 43 211 q 130 560 43 469 q 349 650 217 650 z "},"∫":{"ha":601,"x_min":8,"x_max":594,"o":"m 390 3 q 326 -181 390 -114 q 136 -249 261 -249 q 66 -236 103 -249 q 8 -206 29 -224 l 58 -76 q 94 -88 79 -83 q 126 -93 108 -93 q 192 -59 175 -93 q 210 26 210 -25 l 210 839 q 275 1022 210 956 q 465 1088 340 1088 q 535 1076 499 1088 q 594 1046 572 1064 l 540 917 q 507 929 522 925 q 474 933 492 933 q 408 900 426 933 q 390 815 390 867 l 390 3 z "},"≈":{"ha":714,"x_min":26,"x_max":688,"o":"m 683 582 q 617 435 688 467 q 490 404 546 404 q 365 433 435 404 q 219 461 294 461 q 186 448 204 461 q 167 400 168 435 l 31 429 q 97 576 26 546 q 222 607 167 607 q 348 578 265 607 q 494 549 431 549 l 494 550 q 526 563 508 550 q 546 611 543 576 l 683 582 m 683 303 q 617 154 688 186 q 490 122 546 122 q 365 151 435 122 q 219 179 294 179 q 186 167 204 179 q 167 121 168 156 l 31 149 q 97 297 26 265 q 222 328 167 328 q 348 299 265 328 q 494 269 431 269 l 494 271 q 526 284 508 271 q 546 332 543 297 l 683 303 z "},"≠":{"ha":692,"x_min":29,"x_max":663,"o":"m 594 718 l 526 567 l 650 567 l 663 432 l 468 432 l 400 276 l 650 276 l 663 143 l 339 143 l 265 -21 l 104 -14 l 174 143 l 44 143 l 29 276 l 232 276 l 304 432 l 44 432 l 29 567 l 361 567 l 431 722 l 594 718 z "},"≤":{"ha":494,"x_min":29,"x_max":471,"o":"m 442 157 l 29 379 l 29 490 l 442 714 l 471 561 l 233 435 l 471 308 l 442 157 m 468 0 l 39 0 l 31 125 l 461 125 l 468 0 z "},"≥":{"ha":494,"x_min":22,"x_max":465,"o":"m 465 379 l 53 157 l 22 308 l 260 435 l 22 561 l 53 714 l 465 490 l 465 379 m 461 0 l 32 0 l 24 125 l 453 125 l 461 0 z "},"‰":{"ha":1861,"x_min":43,"x_max":1818,"o":"m 953 981 l 539 -6 l 357 0 l 769 986 l 953 981 m 43 740 q 115 912 43 849 q 274 975 186 975 q 433 913 363 975 q 504 740 504 851 q 433 568 504 632 q 274 504 361 504 q 115 567 186 504 q 43 740 43 629 m 194 742 q 217 660 194 686 q 274 633 239 633 q 329 660 304 633 q 354 739 354 688 q 331 817 354 790 q 274 844 307 844 q 219 818 243 844 q 194 742 194 792 m 1357 235 q 1428 408 1357 346 q 1589 469 1500 469 q 1747 409 1675 469 q 1818 236 1818 349 q 1746 64 1818 128 q 1589 0 1674 0 q 1428 62 1500 0 q 1357 235 1357 124 m 810 235 q 881 408 810 346 q 1040 469 953 469 q 1198 409 1128 469 q 1268 236 1268 349 q 1197 64 1268 128 q 1040 0 1126 0 q 881 62 953 0 q 810 235 810 124 m 1507 238 q 1530 155 1507 182 q 1589 128 1553 128 q 1643 156 1619 128 q 1667 235 1667 183 q 1644 313 1667 286 q 1589 340 1621 340 q 1533 314 1558 340 q 1507 238 1507 288 m 960 238 q 983 155 960 182 q 1040 128 1006 128 q 1095 156 1071 128 q 1119 235 1119 183 q 1096 313 1119 286 q 1040 340 1072 340 q 985 314 1010 340 q 960 238 960 288 z "},"⁄":{"ha":618,"x_min":8,"x_max":611,"o":"m 611 981 l 196 -6 l 8 0 l 422 986 l 611 981 z "},"◊":{"ha":782,"x_min":29,"x_max":753,"o":"m 356 0 l 29 390 l 29 442 l 356 833 l 428 833 l 753 442 l 753 390 l 428 0 l 356 0 m 210 417 l 390 199 l 572 417 l 390 635 l 210 417 z "},"©":{"ha":1189,"x_min":58,"x_max":1132,"o":"m 1132 467 q 987 91 1132 246 q 594 -64 842 -64 q 203 91 347 -64 q 58 467 58 246 q 203 844 58 689 q 594 999 347 999 q 987 844 842 999 q 1132 467 1132 689 m 174 468 q 287 163 174 286 q 594 40 400 40 q 903 163 790 40 q 1015 468 1015 286 q 903 773 1015 650 q 594 896 790 896 q 287 773 400 896 q 174 468 174 650 m 624 638 q 523 592 560 638 q 486 468 486 547 q 523 341 486 386 q 624 296 560 296 q 701 307 667 296 q 779 340 735 318 l 828 206 q 722 156 785 171 q 621 142 660 142 q 386 230 472 142 q 300 468 300 318 q 392 705 300 617 q 621 793 483 793 q 721 777 660 793 q 828 731 782 761 l 779 594 q 701 627 735 617 q 624 638 667 638 z "},"®":{"ha":1035,"x_min":43,"x_max":992,"o":"m 992 676 q 864 344 992 481 q 517 208 736 208 q 171 344 299 208 q 43 676 43 481 q 171 1012 43 875 q 517 1149 299 1149 q 864 1012 736 1149 q 992 676 992 875 m 151 678 q 248 414 151 519 q 517 307 344 308 q 785 414 688 308 q 883 678 883 519 q 785 944 883 839 q 517 1049 688 1049 q 248 944 344 1049 q 151 678 151 839 m 500 840 l 453 840 l 453 724 l 501 724 q 576 735 547 724 q 604 781 604 746 q 576 830 604 819 q 500 840 549 840 m 614 422 l 528 621 l 453 621 l 453 422 l 325 422 l 325 946 l 533 946 q 678 907 618 946 q 738 786 738 868 q 712 700 738 735 q 647 646 686 665 l 757 422 l 614 422 z "},"™":{"ha":1103,"x_min":43,"x_max":1043,"o":"m 43 944 l 496 944 l 514 844 l 332 844 l 332 424 l 206 424 l 206 844 l 43 844 l 43 944 m 794 560 l 686 679 l 686 424 l 557 424 l 557 944 l 621 944 l 811 718 l 983 944 l 1043 944 l 1043 424 l 914 424 l 914 663 l 833 567 l 794 560 z "},"&":{"ha":951,"x_min":58,"x_max":924,"o":"m 643 751 q 553 791 600 772 q 447 810 507 810 q 367 780 396 810 q 339 708 339 750 q 367 628 339 668 q 453 536 394 588 l 675 335 q 702 427 692 376 q 715 536 713 478 l 878 471 q 857 333 874 399 q 814 210 840 267 l 924 114 l 815 -21 l 710 76 q 588 9 658 33 q 428 -15 517 -15 q 167 67 275 -14 q 58 306 58 147 q 96 451 58 381 q 192 572 133 521 q 163 631 174 599 q 153 701 153 664 q 233 888 153 808 q 446 967 313 967 q 581 944 514 967 q 704 896 649 922 l 643 751 m 249 307 q 303 185 249 222 q 428 147 358 147 q 511 160 472 147 q 581 194 550 172 l 335 419 l 306 446 q 265 381 279 415 q 249 307 250 346 z "},"@":{"ha":1124,"x_min":72,"x_max":1065,"o":"m 811 540 l 779 269 q 790 237 779 249 q 810 225 800 225 q 882 276 849 225 q 915 419 915 328 q 832 617 915 540 q 619 693 749 693 q 352 590 472 693 q 232 313 232 488 q 327 92 232 172 q 547 11 422 11 q 658 21 596 11 q 779 61 721 31 l 824 -76 q 676 -125 749 -115 q 533 -135 603 -135 q 217 -12 361 -135 q 72 313 72 110 q 222 681 72 525 q 621 838 371 838 q 938 721 811 838 q 1065 426 1065 604 q 990 169 1065 256 q 801 82 914 82 q 742 91 771 82 q 692 117 714 100 q 637 93 668 103 q 575 83 606 83 q 388 147 449 83 q 328 310 328 210 q 426 523 328 443 q 650 603 525 603 l 761 603 l 811 540 m 486 310 q 506 252 486 279 q 572 225 525 225 q 612 244 596 225 q 631 289 628 263 l 654 468 l 643 468 q 533 424 581 468 q 486 310 486 381 z "},"^":{"ha":631,"x_min":14,"x_max":617,"o":"m 201 199 l 14 199 l 261 542 l 371 542 l 617 199 l 431 199 l 315 358 l 201 199 z "},"~":{"ha":643,"x_min":26,"x_max":615,"o":"m 192 239 l 31 239 q 82 417 26 364 q 206 471 138 471 q 326 449 282 471 q 414 428 371 428 q 438 440 425 428 q 451 481 450 453 l 613 481 q 560 301 615 354 q 438 247 506 247 q 316 269 361 247 q 228 292 271 292 q 206 279 218 292 q 192 239 193 267 z "},"§":{"ha":867,"x_min":57,"x_max":808,"o":"m 622 361 q 566 445 622 408 q 442 517 510 482 q 349 566 396 539 q 264 624 303 593 q 249 599 254 613 q 244 568 244 585 q 297 479 244 515 q 422 406 350 443 q 514 358 469 383 q 597 301 558 332 q 615 328 608 313 q 622 361 622 343 m 115 60 q 225 17 158 40 q 351 -6 292 -6 q 478 22 436 -6 q 521 99 521 49 q 465 182 521 146 q 340 253 408 218 q 149 374 240 303 q 58 567 57 446 q 87 679 58 628 q 167 764 115 731 q 162 797 164 781 q 160 832 160 814 q 245 1012 161 940 q 486 1083 329 1083 q 624 1062 554 1083 q 750 1014 694 1040 l 692 869 q 597 909 647 890 q 488 928 547 928 q 385 904 426 928 q 344 833 344 881 q 398 744 344 781 q 524 669 451 708 q 716 549 624 619 q 807 360 808 479 q 778 248 806 299 q 697 163 750 197 q 705 130 703 146 q 707 96 707 114 q 615 -91 706 -17 q 354 -165 525 -165 q 201 -139 294 -165 q 75 -82 107 -112 l 115 60 z "},"ª":{"ha":472,"x_min":29,"x_max":414,"o":"m 163 660 q 170 638 163 647 q 196 629 178 629 q 240 635 218 629 q 281 654 261 640 l 281 692 l 206 692 q 173 682 183 692 q 163 660 163 672 m 190 504 q 69 546 108 504 q 29 651 29 588 q 77 760 29 719 q 200 800 125 801 l 276 800 q 257 837 272 824 q 215 850 242 850 q 147 840 185 850 q 85 821 110 831 l 53 935 q 131 963 78 951 q 214 975 183 975 q 353 928 293 975 q 414 810 414 881 l 414 515 l 346 515 l 313 551 q 256 519 289 533 q 190 504 222 504 z "},"¬":{"ha":710,"x_min":22,"x_max":681,"o":"m 681 494 l 681 156 l 529 163 l 529 422 l 33 422 l 22 564 l 669 564 l 681 494 z "},"¶":{"ha":1297,"x_min":58,"x_max":1253,"o":"m 940 0 l 940 803 l 660 803 l 660 0 l 478 0 l 478 329 l 446 329 q 176 405 293 329 q 58 642 60 481 q 168 874 58 804 q 431 944 278 944 l 1253 944 l 1253 803 l 1122 803 l 1122 0 l 940 0 z "},"º":{"ha":525,"x_min":29,"x_max":494,"o":"m 254 504 q 88 569 147 506 q 29 740 29 632 q 92 912 29 849 q 261 975 154 975 q 434 910 374 975 q 494 738 494 844 q 428 568 494 631 q 254 504 363 506 m 342 736 q 325 819 342 789 q 264 850 308 850 q 204 824 226 850 q 182 740 182 799 q 199 656 182 685 q 257 628 217 628 q 321 654 300 628 q 342 736 342 681 z "},"":{"ha":0,"x_min":24,"x_max":699,"o":"m 699 1285 l 564 1200 q 467 1302 524 1275 q 361 1329 410 1329 q 253 1299 314 1329 q 160 1200 192 1268 l 24 1285 q 173 1440 82 1399 q 361 1482 264 1482 q 549 1440 458 1482 q 699 1285 640 1399 m 360 1049 q 284 1081 315 1049 q 253 1158 253 1114 q 284 1235 253 1204 q 360 1267 315 1267 q 438 1235 406 1267 q 469 1158 469 1204 q 438 1081 469 1114 q 360 1049 406 1049 z "},"ँ":{"ha":0,"x_min":24,"x_max":699,"o":"m 360 1263 q 284 1294 315 1263 q 253 1372 253 1326 q 284 1449 253 1417 q 360 1482 315 1482 q 438 1449 406 1482 q 469 1372 469 1417 q 438 1294 469 1326 q 360 1263 406 1263 m 564 1331 l 699 1246 q 549 1090 640 1131 q 361 1049 458 1049 q 173 1090 264 1049 q 24 1246 82 1132 l 160 1331 q 253 1231 192 1263 q 361 1200 314 1200 q 467 1228 410 1200 q 564 1331 524 1256 z "},"ं":{"ha":0,"x_min":24,"x_max":240,"o":"m 131 1071 q 55 1103 86 1071 q 24 1179 24 1135 q 55 1257 24 1225 q 131 1289 86 1289 q 209 1257 178 1289 q 240 1179 240 1225 q 209 1103 240 1135 q 131 1071 178 1071 z "},"ः":{"ha":296,"x_min":39,"x_max":257,"o":"m 147 532 q 70 563 101 532 q 39 640 39 594 q 70 715 39 683 q 147 747 101 747 q 225 715 193 747 q 257 640 257 683 q 225 563 257 594 q 147 532 193 532 m 147 53 q 70 83 101 53 q 39 161 39 114 q 70 237 39 204 q 147 269 101 269 q 225 237 193 269 q 257 161 257 204 q 225 83 257 114 q 147 53 193 53 z "},"ऄ":{"ha":1346,"x_min":86,"x_max":1361,"o":"m 1013 0 l 1013 415 l 692 415 q 740 351 724 392 q 757 271 757 311 q 659 63 757 146 q 399 -21 561 -21 q 232 1 315 -21 q 86 58 149 24 l 121 217 q 254 157 190 175 q 386 139 318 139 q 506 172 453 139 q 560 268 560 204 q 515 377 560 336 q 349 418 469 418 l 217 418 l 196 560 l 357 560 q 495 601 450 560 q 540 699 540 642 q 503 776 540 742 q 400 811 465 811 q 268 790 332 811 q 129 718 204 769 l 103 881 q 251 947 172 924 q 418 971 329 971 q 658 889 578 971 q 739 700 739 807 q 719 625 739 664 q 672 560 700 586 l 1013 560 l 1013 790 l 883 790 l 860 944 l 1022 944 l 1022 947 q 999 1014 1022 990 q 931 1038 976 1038 l 838 1038 q 647 1092 719 1039 q 575 1231 575 1146 l 575 1290 l 747 1267 q 772 1208 747 1224 q 839 1193 797 1193 l 940 1193 q 1124 1138 1044 1193 q 1204 999 1204 1082 l 1204 944 l 1339 944 l 1361 790 l 1207 790 l 1207 -22 l 1013 0 z "},"अ":{"ha":1346,"x_min":86,"x_max":1361,"o":"m 1013 0 l 1013 415 l 692 415 q 740 351 724 392 q 757 271 757 311 q 659 63 757 146 q 399 -21 561 -21 q 232 1 315 -21 q 86 58 149 24 l 121 217 q 254 157 190 175 q 386 139 318 139 q 506 172 453 139 q 560 268 560 204 q 515 377 560 336 q 349 418 469 418 l 217 418 l 196 560 l 357 560 q 495 601 450 560 q 540 699 540 642 q 503 776 540 742 q 400 811 465 811 q 268 790 332 811 q 129 718 204 769 l 103 881 q 251 947 172 924 q 418 971 329 971 q 658 889 578 971 q 739 700 739 807 q 719 625 739 664 q 672 560 700 586 l 1013 560 l 1013 790 l 883 790 l 860 944 l 1339 944 l 1361 790 l 1207 790 l 1207 -22 l 1013 0 z "},"आ":{"ha":1808,"x_min":86,"x_max":1824,"o":"m 1474 0 l 1474 790 l 1207 790 l 1207 -22 l 1013 0 l 1013 415 l 692 415 q 740 351 724 392 q 757 271 757 311 q 659 63 757 146 q 399 -21 561 -21 q 232 1 315 -21 q 86 58 149 24 l 121 217 q 254 157 190 175 q 386 139 318 139 q 506 172 453 139 q 560 268 560 204 q 515 377 560 336 q 349 418 469 418 l 217 418 l 196 560 l 357 560 q 495 601 450 560 q 540 699 540 642 q 503 776 540 742 q 400 811 465 811 q 268 790 332 811 q 129 718 204 769 l 103 881 q 251 947 172 924 q 418 971 329 971 q 658 889 578 971 q 739 700 739 807 q 719 625 739 664 q 672 560 700 586 l 1013 560 l 1013 790 l 883 790 l 860 944 l 1800 944 l 1824 790 l 1671 790 l 1671 -22 l 1474 0 z "},"इ":{"ha":785,"x_min":-15,"x_max":800,"o":"m 800 790 l 638 790 l 638 564 l 315 564 q 269 549 286 564 q 253 513 253 533 q 272 475 253 492 q 318 458 290 458 l 428 458 q 637 403 553 458 q 721 225 721 349 q 636 57 721 131 q 404 -21 551 -17 l 406 -24 q 465 -98 442 -69 q 500 -142 489 -126 l 371 -233 l 197 0 q 113 63 154 21 q 71 164 71 104 q 98 228 71 203 q 165 253 125 253 q 263 220 219 253 q 325 143 307 188 q 356 140 339 142 q 390 139 372 139 q 485 165 450 140 q 521 225 521 190 q 503 275 521 254 q 439 296 485 296 l 311 296 q 145 354 221 296 q 69 513 69 413 q 139 672 69 617 q 310 728 208 728 l 446 728 l 446 790 l 0 790 l -15 944 l 785 944 l 800 790 z "},"ई":{"ha":785,"x_min":-15,"x_max":800,"o":"m 800 790 l 638 790 l 638 564 l 315 564 q 269 549 286 564 q 253 513 253 533 q 272 475 253 492 q 318 458 290 458 l 428 458 q 637 403 553 458 q 721 225 721 349 q 636 57 721 131 q 404 -21 551 -17 l 406 -24 q 465 -98 442 -69 q 500 -142 489 -126 l 371 -233 l 197 0 q 113 63 154 21 q 71 164 71 104 q 98 228 71 203 q 165 253 125 253 q 263 220 219 253 q 325 143 307 188 q 356 140 339 142 q 390 139 372 139 q 485 165 450 140 q 521 225 521 190 q 503 275 521 254 q 439 296 485 296 l 311 296 q 145 354 221 296 q 69 513 69 413 q 139 672 69 617 q 310 728 208 728 l 446 728 l 446 790 l 0 790 l -15 944 l 414 944 q 376 1023 390 976 q 363 1110 363 1069 q 425 1263 363 1194 q 588 1331 488 1331 q 700 1305 649 1331 q 774 1253 751 1279 l 699 1125 q 662 1154 681 1142 q 617 1167 643 1167 q 560 1141 581 1167 q 540 1085 540 1115 q 558 1007 540 1043 q 599 944 576 971 l 785 944 l 800 790 z "},"उ":{"ha":853,"x_min":-15,"x_max":868,"o":"m 868 790 l 715 790 q 728 747 724 769 q 732 700 732 724 q 697 572 732 638 q 588 482 661 507 q 706 404 663 467 q 750 271 750 342 q 651 63 750 146 q 390 -21 551 -21 q 225 1 308 -21 q 79 58 142 24 l 115 217 q 247 157 183 175 q 378 139 310 139 q 499 172 446 139 q 551 268 551 204 q 506 377 551 336 q 340 418 460 418 l 208 418 l 189 560 l 350 560 q 488 601 442 560 q 533 699 533 642 q 518 751 533 726 q 475 790 503 775 l 8 790 l -15 944 l 844 944 l 868 790 z "},"ऊ":{"ha":1238,"x_min":-15,"x_max":1253,"o":"m 714 790 q 726 747 722 769 q 731 700 731 724 q 695 572 731 638 q 588 482 660 507 q 624 469 606 478 q 656 451 642 461 q 751 512 692 483 q 883 540 811 540 q 1106 459 1029 540 q 1182 249 1182 378 q 1089 46 1182 119 q 864 -28 996 -28 l 828 132 q 953 167 910 132 q 997 257 997 201 q 965 345 997 311 q 878 379 933 379 q 796 360 826 379 q 743 315 765 340 q 747 294 746 306 q 749 271 749 282 q 650 63 749 146 q 389 -21 551 -21 q 225 1 308 -21 q 78 58 142 24 l 114 217 q 246 157 182 175 q 378 139 310 139 q 497 172 444 139 q 550 268 550 204 q 505 377 550 336 q 339 418 460 418 l 208 418 l 188 560 l 349 560 q 487 601 440 560 q 533 699 533 642 q 517 751 533 726 q 474 790 501 775 l 8 790 l -15 944 l 1229 944 l 1253 790 l 714 790 z "},"ऋ":{"ha":1263,"x_min":-15,"x_max":1278,"o":"m 497 0 l 497 242 l 221 69 l 114 217 l 450 422 q 354 486 396 469 q 275 503 313 503 q 215 488 261 503 q 118 451 169 474 l 43 617 q 163 657 90 639 q 263 675 236 675 q 372 666 314 675 q 497 613 429 657 l 497 790 l 8 790 l -15 944 l 1256 944 l 1278 790 l 694 790 l 694 504 q 801 524 739 508 q 881 556 864 539 q 865 592 871 572 q 858 639 858 613 q 985 730 858 754 q 1113 604 1113 706 q 1108 570 1113 586 q 1092 540 1104 554 q 1174 400 1147 469 q 1200 281 1200 331 q 1130 113 1200 168 q 960 58 1060 58 q 872 65 917 58 q 792 85 826 71 l 836 238 q 904 219 886 222 q 951 217 922 217 q 1008 235 986 217 q 1029 283 1029 253 q 1017 347 1029 308 q 976 428 1006 385 q 846 372 939 394 q 694 347 753 349 l 694 -22 l 497 0 z "},"ऌ":{"ha":1190,"x_min":-15,"x_max":1206,"o":"m 869 0 q 890 -47 869 -28 q 946 -67 911 -67 q 986 -63 960 -67 q 1051 -47 1013 -60 l 1083 -201 q 1002 -217 1040 -214 q 932 -219 964 -219 q 776 -162 844 -219 q 707 0 707 -104 q 750 133 707 79 q 856 208 793 186 l 856 432 q 819 508 847 479 q 753 538 792 538 q 678 496 707 538 q 650 389 650 454 l 650 183 l 475 201 l 475 389 q 448 494 475 454 q 357 533 421 533 q 276 503 307 533 q 246 432 246 472 q 279 281 246 368 q 400 19 313 194 l 244 -33 q 115 234 158 131 q 72 443 72 338 q 157 620 72 543 q 357 699 242 697 q 469 678 415 697 q 560 625 522 660 q 647 680 594 661 q 754 699 699 699 q 806 692 778 699 q 856 675 835 686 l 856 790 l 8 790 l -15 944 l 1182 944 l 1206 790 l 1051 790 l 1051 67 l 946 67 q 890 47 911 67 q 869 0 869 28 z "},"ऍ":{"ha":1022,"x_min":-15,"x_max":1039,"o":"m 721 1332 l 856 1249 q 706 1092 797 1132 q 517 1051 614 1051 q 330 1092 421 1051 q 179 1249 239 1133 l 315 1332 q 408 1233 347 1264 q 517 1203 469 1203 q 622 1231 565 1203 q 721 1332 679 1258 m 689 383 l 689 790 l 332 790 l 332 235 q 342 169 332 200 q 389 115 351 138 l 736 -103 l 640 -249 l 282 -37 q 171 65 207 6 q 135 217 135 124 l 135 790 l 8 790 l -15 944 l 1017 944 l 1039 790 l 885 790 l 885 356 q 820 191 885 253 q 621 86 756 129 l 538 232 q 654 290 618 260 q 689 383 690 321 z "},"ऎ":{"ha":1022,"x_min":-15,"x_max":1039,"o":"m 689 383 l 689 790 l 332 790 l 332 235 q 342 169 332 200 q 389 115 351 138 l 736 -103 l 640 -249 l 282 -37 q 171 65 207 6 q 135 217 135 124 l 135 790 l 8 790 l -15 944 l 686 944 l 686 947 q 663 1014 686 990 q 594 1038 639 1038 l 394 1038 q 203 1092 275 1039 q 131 1231 131 1146 l 131 1290 l 304 1267 q 329 1208 304 1224 q 397 1193 354 1193 l 604 1193 q 788 1138 708 1193 q 867 999 867 1082 l 867 944 l 1017 944 l 1039 790 l 885 790 l 885 356 q 820 191 885 253 q 621 86 756 129 l 538 232 q 654 290 618 260 q 689 383 690 321 z "},"ए":{"ha":1022,"x_min":-15,"x_max":1039,"o":"m 689 383 l 689 790 l 332 790 l 332 235 q 342 169 332 200 q 389 115 351 138 l 736 -103 l 640 -249 l 282 -37 q 171 65 207 6 q 135 217 135 124 l 135 790 l 8 790 l -15 944 l 1017 944 l 1039 790 l 885 790 l 885 356 q 820 191 885 253 q 621 86 756 129 l 538 232 q 654 290 618 260 q 689 383 690 321 z "},"ऐ":{"ha":1022,"x_min":-15,"x_max":1039,"o":"m 689 383 l 689 790 l 332 790 l 332 235 q 342 169 332 200 q 389 115 351 138 l 736 -103 l 640 -249 l 282 -37 q 171 65 207 6 q 135 217 135 124 l 135 790 l 8 790 l -15 944 l 624 944 l 315 1228 l 457 1340 l 857 944 l 1017 944 l 1039 790 l 885 790 l 885 356 q 820 191 885 253 q 621 86 756 129 l 538 232 q 654 290 618 260 q 689 383 690 321 z "},"ऑ":{"ha":1808,"x_min":86,"x_max":1824,"o":"m 1547 1332 l 1683 1249 q 1534 1092 1625 1132 q 1346 1051 1443 1051 q 1158 1092 1249 1051 q 1008 1249 1067 1133 l 1143 1332 q 1238 1233 1176 1264 q 1346 1203 1299 1203 q 1451 1231 1393 1203 q 1547 1332 1508 1258 m 1474 0 l 1474 790 l 1207 790 l 1207 -22 l 1013 0 l 1013 415 l 692 415 q 740 351 724 392 q 757 271 757 311 q 659 63 757 146 q 399 -21 561 -21 q 232 1 315 -21 q 86 58 149 24 l 121 217 q 254 157 190 175 q 386 139 318 139 q 506 172 453 139 q 560 268 560 204 q 515 377 560 336 q 349 418 469 418 l 217 418 l 196 560 l 357 560 q 495 601 450 560 q 540 699 540 642 q 503 776 540 742 q 400 811 465 811 q 268 790 332 811 q 129 718 204 769 l 103 881 q 251 947 172 924 q 418 971 329 971 q 658 889 578 971 q 739 700 739 807 q 719 625 739 664 q 672 560 700 586 l 1013 560 l 1013 790 l 883 790 l 860 944 l 1800 944 l 1824 790 l 1671 790 l 1671 -22 l 1474 0 z "},"ऒ":{"ha":1808,"x_min":86,"x_max":1824,"o":"m 1013 0 l 1013 415 l 692 415 q 740 351 724 392 q 757 271 757 311 q 659 63 757 146 q 399 -21 561 -21 q 232 1 315 -21 q 86 58 149 24 l 121 217 q 254 157 190 175 q 386 139 318 139 q 506 172 453 139 q 560 268 560 204 q 515 377 560 336 q 349 418 469 418 l 217 418 l 196 560 l 357 560 q 495 601 450 560 q 540 699 540 642 q 503 776 540 742 q 400 811 465 811 q 268 790 332 811 q 129 718 204 769 l 103 881 q 251 947 172 924 q 418 971 329 971 q 658 889 578 971 q 739 700 739 807 q 719 625 739 664 q 672 560 700 586 l 1013 560 l 1013 790 l 883 790 l 860 944 l 1476 944 l 1476 947 q 1453 1014 1476 990 q 1385 1038 1431 1038 l 1215 1038 q 1024 1092 1097 1039 q 951 1231 951 1146 l 951 1290 l 1126 1267 q 1151 1208 1126 1224 q 1217 1193 1175 1193 l 1394 1193 q 1578 1138 1499 1193 q 1657 999 1657 1082 l 1657 944 l 1800 944 l 1824 790 l 1671 790 l 1671 -22 l 1474 0 l 1474 790 l 1207 790 l 1207 -22 l 1013 0 z "},"ओ":{"ha":1808,"x_min":86,"x_max":1824,"o":"m 1013 0 l 1013 415 l 692 415 q 740 351 724 392 q 757 271 757 311 q 659 63 757 146 q 399 -21 561 -21 q 232 1 315 -21 q 86 58 149 24 l 121 217 q 254 157 190 175 q 386 139 318 139 q 506 172 453 139 q 560 268 560 204 q 515 377 560 336 q 349 418 469 418 l 217 418 l 196 560 l 357 560 q 495 601 450 560 q 540 699 540 642 q 503 776 540 742 q 400 811 465 811 q 268 790 332 811 q 129 718 204 769 l 103 881 q 251 947 172 924 q 418 971 329 971 q 658 889 578 971 q 739 700 739 807 q 719 625 739 664 q 672 560 700 586 l 1013 560 l 1013 790 l 883 790 l 860 944 l 1407 944 l 1100 1228 l 1242 1340 l 1642 944 l 1800 944 l 1824 790 l 1671 790 l 1671 -22 l 1474 0 l 1474 790 l 1207 790 l 1207 -22 l 1013 0 z "},"औ":{"ha":1808,"x_min":86,"x_max":1824,"o":"m 1013 0 l 1013 415 l 692 415 q 740 351 724 392 q 757 271 757 311 q 659 63 757 146 q 399 -21 561 -21 q 232 1 315 -21 q 86 58 149 24 l 121 217 q 254 157 190 175 q 386 139 318 139 q 506 172 453 139 q 560 268 560 204 q 515 377 560 336 q 349 418 469 418 l 217 418 l 196 560 l 357 560 q 495 601 450 560 q 540 699 540 642 q 503 776 540 742 q 400 811 465 811 q 268 790 332 811 q 129 718 204 769 l 103 881 q 251 947 172 924 q 418 971 329 971 q 658 889 578 971 q 739 700 739 807 q 719 625 739 664 q 672 560 700 586 l 1013 560 l 1013 790 l 883 790 l 860 944 l 1461 944 q 1385 1005 1419 986 q 1278 1024 1350 1024 l 1139 1024 l 1101 1190 l 1269 1190 q 1349 1187 1313 1190 q 1421 1165 1385 1183 l 1356 1363 l 1535 1413 l 1642 944 l 1800 944 l 1824 790 l 1671 790 l 1671 -22 l 1474 0 l 1474 790 l 1207 790 l 1207 -22 l 1013 0 z "},"क":{"ha":1256,"x_min":-15,"x_max":1271,"o":"m 379 82 q 145 169 235 82 q 56 386 56 257 q 145 603 56 515 q 379 690 235 690 q 465 674 415 690 q 535 636 515 658 l 535 790 l 8 790 l -15 944 l 1249 944 l 1271 790 l 731 790 l 731 640 q 797 675 750 658 q 881 692 843 692 q 1117 603 1028 692 q 1207 386 1207 515 q 1101 163 1207 244 q 864 82 996 82 l 832 244 q 967 284 913 244 q 1021 388 1021 324 q 981 490 1021 450 q 885 529 940 529 q 785 504 819 529 q 731 450 750 479 l 731 -22 l 535 0 l 535 138 q 465 99 515 115 q 379 82 415 82 m 240 385 q 287 284 240 324 q 389 244 333 244 q 478 267 440 244 q 535 319 515 290 l 535 451 q 478 505 515 482 q 389 528 440 528 q 287 488 333 528 q 240 385 240 449 z "},"ख":{"ha":1331,"x_min":-15,"x_max":1346,"o":"m 340 354 q 433 214 363 289 q 642 138 504 139 q 738 150 689 138 q 829 185 786 163 q 667 277 728 204 q 607 449 607 350 q 688 644 607 565 q 900 722 768 722 q 949 719 925 722 q 996 708 974 715 l 996 790 l 510 790 q 527 715 521 756 q 533 643 533 674 q 480 469 533 547 q 340 354 426 390 m 994 450 q 965 528 994 501 q 900 556 935 556 q 835 528 864 556 q 806 450 806 500 q 835 372 806 399 q 900 344 865 344 q 965 372 936 344 q 994 450 994 400 m 996 0 l 996 92 q 832 6 925 36 q 642 -25 739 -25 q 306 90 428 -25 q 151 331 183 204 l 115 332 q 60 348 83 332 q 33 390 38 364 q 94 521 33 456 q 218 586 156 586 q 258 562 240 586 q 286 510 276 538 q 333 564 313 526 q 354 643 354 601 q 342 725 354 686 q 310 790 331 764 l 8 790 l -15 944 l 1324 944 l 1346 790 l 1192 790 l 1192 -22 l 996 0 z "},"ग":{"ha":971,"x_min":-15,"x_max":985,"o":"m 636 0 l 636 790 l 374 790 l 374 296 q 353 221 374 249 q 293 193 332 193 q 144 267 214 193 q 82 400 75 340 q 117 444 88 426 q 176 461 146 461 l 176 790 l 8 790 l -15 944 l 963 944 l 985 790 l 832 790 l 832 -22 l 636 0 z "},"घ":{"ha":992,"x_min":-15,"x_max":1007,"o":"m 657 0 l 657 186 q 544 124 613 153 q 400 96 475 96 q 172 170 257 96 q 86 371 86 244 q 107 478 86 429 q 167 560 128 528 q 119 637 136 590 q 101 731 101 683 q 104 758 101 740 q 111 790 107 775 l 8 790 l -15 944 l 983 944 l 1007 790 l 854 790 l 854 -22 l 657 0 m 281 368 q 316 293 281 319 q 403 267 351 267 q 567 328 494 267 q 657 500 639 389 l 657 790 l 313 790 q 293 763 300 781 q 286 728 286 746 q 319 658 286 688 q 410 629 351 629 l 478 629 l 506 478 l 419 478 q 316 446 351 478 q 281 368 281 414 z "},"ङ":{"ha":928,"x_min":-15,"x_max":943,"o":"m 818 390 q 741 422 772 390 q 710 499 710 454 q 741 575 710 543 q 818 607 772 607 q 896 575 864 607 q 928 499 928 543 q 896 422 928 454 q 818 390 864 390 m 943 790 l 624 790 l 624 564 l 310 564 q 263 549 281 564 q 246 513 246 533 q 265 475 246 492 q 311 458 283 458 l 414 458 q 622 403 539 458 q 706 225 706 349 q 622 55 706 131 q 379 -21 538 -21 q 216 -2 299 -21 q 72 51 133 17 l 106 210 q 237 153 175 167 q 368 139 299 139 q 472 165 436 139 q 507 225 507 190 q 489 275 507 254 q 425 296 471 296 l 306 296 q 139 354 215 296 q 63 513 63 413 q 132 672 63 617 q 303 728 201 728 l 449 728 l 449 790 l 8 790 l -15 944 l 919 944 l 943 790 z "},"च":{"ha":1008,"x_min":-15,"x_max":1024,"o":"m 675 0 l 675 125 q 592 102 642 111 q 504 93 543 93 q 269 165 369 93 q 169 376 169 238 q 177 441 169 411 q 199 497 185 471 l 69 497 l 47 650 l 532 650 l 554 497 l 510 497 q 388 464 428 496 q 347 376 347 432 q 394 288 347 321 q 504 254 440 254 q 608 283 556 254 q 675 354 661 311 l 675 790 l 8 790 l -15 944 l 1000 944 l 1024 790 l 869 790 l 869 -22 l 675 0 z "},"छ":{"ha":1149,"x_min":-15,"x_max":1165,"o":"m 1165 790 l 951 790 l 951 731 q 1050 642 1017 700 q 1083 519 1083 583 q 933 163 1083 347 q 499 -21 783 -21 q 209 58 317 -21 q 101 271 101 138 q 146 404 101 342 q 264 482 190 467 q 156 572 192 507 q 121 700 121 638 q 124 747 121 724 q 136 790 128 769 l 8 790 l -15 944 l 1142 944 l 1165 790 m 814 290 q 683 372 736 313 q 629 519 629 432 q 673 662 629 599 q 789 743 717 725 l 789 790 l 376 790 q 335 751 350 775 q 319 699 319 726 q 365 601 319 642 q 501 560 410 560 l 529 560 l 549 418 l 513 418 q 352 382 404 418 q 300 278 300 346 q 360 176 300 214 q 510 139 421 139 q 697 184 618 139 q 814 290 775 229 m 851 600 q 807 576 824 600 q 790 519 790 553 q 823 450 790 476 q 896 422 856 424 q 914 462 907 438 q 921 510 921 486 q 906 572 921 544 q 851 600 890 600 z "},"ज":{"ha":1133,"x_min":-15,"x_max":1151,"o":"m 801 0 l 801 497 l 640 497 q 655 443 649 472 q 661 382 661 414 q 554 144 661 217 q 322 72 447 72 q 158 103 238 72 q 24 169 79 133 l 58 346 q 191 265 125 294 q 315 235 257 236 q 434 274 390 235 q 478 374 478 314 q 448 461 478 425 q 343 497 418 497 l 257 497 l 235 650 l 801 650 l 801 790 l 8 790 l -15 944 l 1128 944 l 1151 790 l 996 790 l 996 -22 l 801 0 z "},"झ":{"ha":1240,"x_min":-15,"x_max":1257,"o":"m 906 790 l 638 790 l 638 564 l 315 564 q 269 549 286 564 q 253 513 253 533 q 272 475 253 492 q 318 458 290 458 l 428 458 q 565 439 503 458 q 665 378 626 419 l 906 379 l 906 790 m 906 0 l 906 236 l 719 236 q 720 230 719 233 q 721 225 721 226 q 636 57 721 131 q 404 -21 551 -17 l 406 -24 q 465 -98 442 -69 q 500 -142 489 -126 l 371 -233 l 197 0 q 113 63 154 21 q 71 164 71 104 q 98 228 71 203 q 165 253 125 253 q 263 220 219 253 q 325 143 307 188 q 356 140 339 142 q 390 139 372 139 q 485 165 450 140 q 521 225 521 190 q 503 275 521 254 q 439 296 485 296 l 311 296 q 145 354 221 296 q 69 513 69 413 q 139 672 69 617 q 310 728 208 728 l 446 728 l 446 790 l 8 790 l -15 944 l 1233 944 l 1257 790 l 1103 790 l 1103 -22 l 906 0 z "},"ञ":{"ha":1117,"x_min":-15,"x_max":1132,"o":"m 58 361 q 176 282 108 313 q 315 251 244 251 q 422 292 379 251 q 464 400 464 332 q 422 505 464 464 q 317 546 381 546 q 247 540 286 546 q 164 524 207 535 l 121 675 q 228 701 176 694 q 322 708 279 708 q 524 649 439 708 q 633 472 608 589 l 782 472 l 782 790 l 8 790 l -15 944 l 1110 944 l 1132 790 l 976 790 l 976 -22 l 782 0 l 782 315 l 631 315 q 522 146 607 203 q 322 89 438 89 q 158 119 238 89 q 24 186 79 149 l 58 361 z "},"ट":{"ha":903,"x_min":-15,"x_max":918,"o":"m 254 335 q 336 182 254 224 q 510 140 418 140 q 643 156 571 140 q 794 232 715 172 l 821 54 q 675 -5 758 15 q 510 -25 592 -25 q 211 58 346 -25 q 76 335 76 142 q 212 603 76 513 q 525 694 347 694 l 529 694 l 529 790 l 8 790 l -15 944 l 896 944 l 918 790 l 725 790 l 725 532 l 525 532 q 333 477 413 532 q 254 335 254 422 z "},"ठ":{"ha":994,"x_min":-15,"x_max":1011,"o":"m 500 -25 q 207 58 338 -24 q 76 332 76 139 q 169 573 76 485 q 404 683 263 661 l 404 790 l 8 790 l -15 944 l 988 944 l 1011 790 l 601 790 l 601 682 q 831 579 735 661 q 928 335 928 497 q 803 67 928 157 q 500 -25 678 -24 m 747 335 q 669 485 747 446 q 500 525 592 525 q 322 472 389 525 q 254 332 254 419 q 333 181 254 221 q 500 140 411 140 q 680 193 613 140 q 747 335 747 246 z "},"ड":{"ha":749,"x_min":-15,"x_max":765,"o":"m 765 790 l 624 790 l 624 564 l 310 564 q 263 549 281 564 q 246 513 246 533 q 265 475 246 492 q 311 458 283 458 l 414 458 q 622 403 539 458 q 706 225 706 349 q 622 55 706 131 q 379 -21 538 -21 q 216 -2 299 -21 q 72 51 133 17 l 106 210 q 237 153 175 167 q 368 139 299 139 q 472 165 436 139 q 507 225 507 190 q 489 275 507 254 q 425 296 471 296 l 306 296 q 139 354 215 296 q 63 513 63 413 q 132 672 63 617 q 303 728 201 728 l 449 728 l 449 790 l 8 790 l -15 944 l 740 944 l 765 790 z "},"ढ":{"ha":886,"x_min":-15,"x_max":903,"o":"m 507 -25 q 219 56 363 -25 q 76 340 76 136 q 212 612 76 518 q 525 706 347 706 l 529 706 l 529 790 l 8 790 l -15 944 l 881 944 l 903 790 l 725 790 l 725 706 l 726 542 l 525 542 q 333 490 413 542 q 254 342 254 438 q 301 212 256 264 q 403 142 347 160 q 386 180 390 156 q 382 222 382 204 q 446 378 382 314 q 601 442 510 442 q 761 385 697 442 q 825 232 825 328 q 738 49 825 124 q 507 -25 650 -25 m 608 281 q 565 265 583 281 q 547 219 547 250 q 556 177 547 197 q 582 142 564 157 q 642 175 618 147 q 665 229 665 203 q 650 267 665 253 q 608 281 635 281 z "},"ण":{"ha":1319,"x_min":-15,"x_max":1336,"o":"m 985 0 l 985 790 l 753 790 l 753 490 q 661 267 753 346 q 438 188 569 188 q 213 267 306 188 q 121 490 121 346 l 121 790 l 8 790 l -15 944 l 1313 944 l 1336 790 l 1181 790 l 1181 -22 l 985 0 m 318 490 q 350 387 318 422 q 438 351 382 351 q 524 387 492 351 q 556 490 556 422 l 556 790 l 318 790 l 318 490 z "},"त":{"ha":961,"x_min":-15,"x_max":976,"o":"m 628 0 l 628 500 l 394 500 q 299 477 331 500 q 267 410 267 454 q 322 257 267 351 q 468 21 376 163 l 292 -31 q 148 194 221 72 q 75 415 75 315 q 142 588 75 519 q 335 657 210 657 l 628 657 l 628 790 l 8 790 l -15 944 l 954 944 l 976 790 l 824 790 l 824 -22 l 628 0 z "},"थ":{"ha":994,"x_min":63,"x_max":1010,"o":"m 660 0 l 660 249 q 589 222 628 233 q 483 210 550 210 q 247 297 354 210 q 139 500 139 385 l 176 549 q 270 592 211 561 q 329 704 329 624 q 292 666 324 682 q 222 650 261 650 q 111 689 160 650 q 63 796 63 728 q 119 922 63 872 q 261 971 175 971 q 424 899 357 971 q 490 722 490 828 q 440 547 490 606 q 332 453 390 488 q 388 400 351 426 q 490 374 425 374 q 600 407 550 374 q 660 497 650 440 l 660 790 l 533 790 l 510 944 l 986 944 l 1010 790 l 857 790 l 857 -22 l 660 0 m 199 804 q 208 781 199 790 q 229 771 218 771 q 260 783 249 771 q 272 817 272 796 q 261 834 271 824 q 240 844 251 844 q 210 833 222 844 q 199 804 199 822 z "},"द":{"ha":874,"x_min":-15,"x_max":889,"o":"m 822 -1 l 667 -60 l 581 100 q 516 90 547 94 q 465 86 485 86 q 174 167 283 86 q 64 410 64 249 q 184 648 64 575 q 481 721 304 721 l 485 721 l 485 790 l 8 790 l -15 944 l 867 944 l 889 790 l 682 790 l 682 565 l 481 565 q 309 526 376 565 q 242 410 242 488 q 306 292 242 333 q 465 251 369 251 q 488 252 475 251 q 514 254 500 253 q 513 265 514 260 q 513 276 513 271 q 540 352 513 324 q 614 381 568 381 q 718 347 667 381 q 769 257 769 313 q 758 206 769 233 q 728 157 746 179 q 775 76 750 118 q 822 -1 800 35 z "},"ध":{"ha":1061,"x_min":79,"x_max":1076,"o":"m 726 0 l 726 193 q 613 122 683 157 q 436 86 542 86 q 165 172 250 86 q 79 371 79 258 q 110 483 79 429 q 183 560 142 538 q 125 633 149 583 q 101 731 101 683 q 172 892 101 821 q 356 964 242 964 q 467 940 424 964 q 538 889 510 915 l 444 763 q 403 788 422 782 q 361 793 383 793 q 310 772 335 793 q 286 722 286 750 q 319 656 286 682 q 410 629 351 629 l 454 629 l 506 478 l 419 478 q 312 449 351 478 q 272 368 272 421 q 316 290 272 319 q 439 261 360 261 q 636 343 546 261 q 726 568 726 425 l 726 790 l 597 790 l 575 944 l 1054 944 l 1076 790 l 922 790 l 922 -22 l 726 0 z "},"न":{"ha":925,"x_min":-15,"x_max":940,"o":"m 590 0 l 590 376 l 311 376 q 298 313 311 346 q 257 274 285 281 q 120 318 197 267 q 43 450 43 369 q 70 510 43 489 q 144 531 97 531 l 590 531 l 590 790 l 8 790 l -15 944 l 918 944 l 940 790 l 786 790 l 786 -22 l 590 0 z "},"ऩ":{"ha":925,"x_min":-15,"x_max":940,"o":"m 590 0 l 590 376 l 311 376 q 298 313 311 346 q 257 274 285 281 q 120 318 197 267 q 43 450 43 369 q 70 510 43 489 q 144 531 97 531 l 590 531 l 590 790 l 8 790 l -15 944 l 918 944 l 940 790 l 786 790 l 786 -22 l 590 0 m 258 -108 q 181 -76 213 -108 q 150 0 150 -44 q 181 76 150 44 q 258 108 213 108 q 335 76 303 108 q 367 0 367 44 q 335 -76 367 -44 q 258 -108 303 -108 z "},"प":{"ha":944,"x_min":-15,"x_max":960,"o":"m 610 0 l 610 249 q 530 222 579 233 q 442 210 481 210 q 203 292 303 210 q 103 519 103 375 l 103 790 l 8 790 l -15 944 l 936 944 l 960 790 l 806 790 l 806 -22 l 610 0 m 300 519 q 339 413 300 451 q 449 374 378 374 q 554 406 508 374 q 610 494 600 439 l 610 790 l 300 790 l 300 519 z "},"फ":{"ha":1331,"x_min":-15,"x_max":1347,"o":"m 300 519 q 339 413 300 451 q 449 374 378 374 q 554 406 508 374 q 610 494 600 439 l 610 790 l 300 790 l 300 519 m 610 0 l 610 249 q 530 222 579 233 q 442 210 481 210 q 203 292 303 210 q 103 519 103 375 l 103 790 l 8 790 l -15 944 l 1324 944 l 1347 790 l 806 790 l 806 647 q 878 679 833 667 q 957 692 922 692 q 1193 603 1103 692 q 1283 386 1283 515 q 1178 163 1283 244 q 939 82 1072 82 l 907 244 q 1043 284 989 244 q 1097 388 1097 324 q 1057 490 1097 450 q 961 529 1017 529 q 861 504 896 529 q 806 450 826 479 l 806 -22 l 610 0 z "},"ब":{"ha":883,"x_min":-15,"x_max":892,"o":"m 542 0 l 542 125 q 469 92 514 104 q 388 79 424 79 q 149 168 243 79 q 56 386 56 257 q 149 605 56 515 q 388 694 243 694 q 469 682 424 694 q 542 650 514 669 l 542 790 l 8 790 l -15 944 l 869 944 l 892 790 l 738 790 l 738 -22 l 542 0 m 342 526 l 533 310 q 538 315 535 311 q 542 324 540 319 l 542 450 q 485 508 522 481 q 383 535 447 535 q 363 533 374 535 q 342 526 351 532 m 465 253 l 269 475 q 248 435 256 457 q 240 388 240 414 q 284 282 240 324 q 383 240 328 240 q 430 244 408 240 q 465 253 451 247 z "},"भ":{"ha":1097,"x_min":63,"x_max":1113,"o":"m 763 0 l 763 296 l 461 296 q 446 228 461 264 q 400 193 431 193 q 261 241 329 193 q 193 368 193 289 q 220 428 193 408 q 292 449 247 449 l 292 613 q 272 611 282 611 q 254 611 261 611 q 116 662 169 611 q 63 794 63 713 q 122 922 63 874 q 257 971 182 971 q 421 903 361 971 q 481 724 481 836 l 481 449 l 763 449 l 763 790 l 636 790 l 611 944 l 1090 944 l 1113 790 l 960 790 l 960 -22 l 763 0 m 214 786 q 228 755 214 765 q 258 744 242 744 q 285 752 272 744 q 301 767 297 760 q 288 810 301 792 q 257 829 275 829 q 226 816 238 829 q 214 786 214 803 z "},"म":{"ha":960,"x_min":-15,"x_max":976,"o":"m 626 0 l 626 296 l 322 296 q 308 228 322 264 q 263 193 293 193 q 124 241 192 193 q 56 368 56 289 q 83 428 56 408 q 154 449 111 449 l 154 790 l 8 790 l -15 944 l 953 944 l 976 790 l 822 790 l 822 -22 l 626 0 m 626 790 l 343 790 l 343 449 l 626 449 l 626 790 z "},"य":{"ha":925,"x_min":-15,"x_max":940,"o":"m 590 0 l 590 247 q 519 222 560 233 q 413 210 478 210 q 176 297 283 210 q 69 500 69 385 l 106 539 q 162 589 136 549 q 188 685 188 629 q 168 749 188 719 q 121 790 149 779 l 8 790 l -15 944 l 918 944 l 940 790 l 786 790 l 786 -22 l 590 0 m 256 464 q 311 405 274 436 q 419 374 349 374 q 530 407 479 374 q 590 497 581 440 l 590 790 l 338 790 q 354 737 347 768 q 361 675 361 706 q 336 558 361 613 q 256 464 311 503 z "},"र":{"ha":647,"x_min":-15,"x_max":663,"o":"m 663 790 l 517 790 q 535 715 529 756 q 540 643 540 674 q 488 468 540 547 q 347 354 435 389 l 560 17 l 378 -29 l 171 331 l 122 332 q 68 348 90 332 q 40 390 46 364 q 98 521 40 456 q 218 586 156 586 q 258 559 240 586 q 285 506 275 532 q 342 568 322 528 q 361 647 361 608 q 349 728 361 690 q 317 790 338 765 l 8 790 l -15 944 l 640 944 l 663 790 z "},"ऱ":{"ha":647,"x_min":-15,"x_max":663,"o":"m 663 790 l 517 790 q 535 715 529 756 q 540 643 540 674 q 488 468 540 547 q 347 354 435 389 l 560 17 l 378 -29 l 171 331 l 122 332 q 68 348 90 332 q 40 390 46 364 q 98 521 40 456 q 218 586 156 586 q 258 559 240 586 q 285 506 275 532 q 342 568 322 528 q 361 647 361 608 q 349 728 361 690 q 317 790 338 765 l 8 790 l -15 944 l 640 944 l 663 790 m 117 -108 q 40 -76 71 -108 q 8 0 8 -44 q 40 76 8 44 q 117 108 71 108 q 193 76 161 108 q 225 0 225 44 q 193 -76 225 -44 q 117 -108 161 -108 z "},"ल":{"ha":1190,"x_min":-15,"x_max":1206,"o":"m 856 0 l 856 432 q 819 508 847 479 q 753 538 792 538 q 678 496 707 538 q 650 389 650 454 l 650 183 l 475 201 l 475 389 q 448 494 475 454 q 357 533 421 533 q 276 503 307 533 q 246 432 246 472 q 279 281 246 368 q 400 19 313 194 l 244 -33 q 115 234 158 131 q 72 443 72 338 q 157 620 72 543 q 357 699 242 697 q 469 678 415 697 q 560 625 522 660 q 647 680 594 661 q 754 699 699 699 q 806 692 778 699 q 856 675 835 686 l 856 790 l 8 790 l -15 944 l 1182 944 l 1206 790 l 1051 790 l 1051 -22 l 856 0 z "},"ळ":{"ha":1272,"x_min":-15,"x_max":1288,"o":"m 1053 393 q 1006 503 1053 457 q 889 549 960 549 q 777 485 824 549 q 711 351 731 422 l 706 328 q 784 247 735 278 q 889 217 833 217 q 1006 269 960 217 q 1053 393 1053 322 m 225 367 q 271 258 225 304 q 388 213 317 213 q 499 276 453 213 q 567 408 546 339 l 572 432 q 493 512 543 482 q 388 543 443 542 q 271 490 317 543 q 225 367 225 438 m 385 706 q 531 674 463 706 q 650 588 599 643 q 711 647 676 619 q 789 692 746 675 l 789 790 l 8 790 l -15 944 l 1265 944 l 1288 790 l 985 790 l 985 697 q 1157 589 1090 671 q 1224 390 1224 507 q 1129 153 1224 250 q 892 56 1035 56 q 747 86 815 56 q 628 172 679 117 q 526 86 588 121 q 388 51 464 51 q 149 140 243 51 q 56 371 56 228 q 149 608 56 511 q 385 706 243 706 z "},"ऴ":{"ha":1272,"x_min":-15,"x_max":1288,"o":"m 1053 393 q 1006 503 1053 457 q 889 549 960 549 q 777 485 824 549 q 711 351 731 422 l 706 328 q 784 247 735 278 q 889 217 833 217 q 1006 269 960 217 q 1053 393 1053 322 m 225 367 q 271 258 225 304 q 388 213 317 213 q 499 276 453 213 q 567 408 546 339 l 572 432 q 493 512 543 482 q 388 543 443 542 q 271 490 317 543 q 225 367 225 438 m 385 706 q 531 674 463 706 q 650 588 599 643 q 711 647 676 619 q 789 692 746 675 l 789 790 l 8 790 l -15 944 l 1265 944 l 1288 790 l 985 790 l 985 697 q 1157 589 1090 671 q 1224 390 1224 507 q 1129 153 1224 250 q 892 56 1035 56 q 747 86 815 56 q 628 172 679 117 q 526 86 588 121 q 388 51 464 51 q 149 140 243 51 q 56 371 56 228 q 149 608 56 511 q 385 706 243 706 m 629 -217 q 552 -185 583 -217 q 521 -108 521 -154 q 552 -33 521 -65 q 629 0 583 0 q 706 -33 675 0 q 738 -108 738 -65 q 706 -185 738 -154 q 629 -217 675 -217 z "},"व":{"ha":868,"x_min":-15,"x_max":883,"o":"m 379 82 q 145 169 235 82 q 56 386 56 257 q 145 603 56 515 q 379 690 235 690 q 465 674 415 690 q 535 636 515 658 l 535 790 l 8 790 l -15 944 l 861 944 l 883 790 l 731 790 l 731 -22 l 535 0 l 535 138 q 465 99 515 115 q 379 82 415 82 m 240 385 q 287 284 240 324 q 389 244 333 244 q 478 267 440 244 q 535 319 515 290 l 535 451 q 478 505 515 482 q 389 528 440 528 q 287 488 333 528 q 240 385 240 449 z "},"श":{"ha":1126,"x_min":63,"x_max":1142,"o":"m 792 0 l 792 790 l 664 790 l 642 944 l 1119 944 l 1142 790 l 988 790 l 988 -22 l 792 0 m 214 796 q 228 769 214 779 q 257 760 242 760 q 310 781 292 760 q 328 813 328 803 q 301 835 319 826 q 269 844 283 844 q 229 831 244 844 q 214 796 214 818 m 274 971 q 508 869 425 971 q 590 633 590 767 q 529 453 590 539 q 372 339 468 368 l 593 17 l 410 -29 l 197 314 l 149 315 q 94 331 117 315 q 67 375 71 347 q 124 505 67 439 q 244 571 181 571 q 285 540 265 571 q 314 483 306 510 q 386 545 363 503 q 410 626 410 588 q 406 670 410 646 q 394 707 401 694 q 331 652 376 669 q 242 635 285 635 q 115 676 168 635 q 63 790 63 717 q 124 920 63 869 q 274 971 185 971 z "},"ष":{"ha":944,"x_min":-15,"x_max":960,"o":"m 610 0 l 610 249 q 530 222 579 233 q 442 210 481 210 q 203 292 303 210 q 103 519 103 375 l 103 790 l 8 790 l -15 944 l 936 944 l 960 790 l 806 790 l 806 -22 l 610 0 m 610 790 l 381 790 l 610 513 l 610 790 m 449 374 q 514 384 483 374 q 565 414 544 394 q 433 582 506 490 q 300 746 360 674 l 300 519 q 339 413 300 451 q 449 374 378 374 z "},"स":{"ha":1132,"x_min":-15,"x_max":1150,"o":"m 799 790 l 517 790 q 535 715 529 756 q 540 643 540 674 q 534 576 540 608 q 514 515 528 544 l 799 515 l 799 790 m 171 331 l 122 332 q 68 348 90 332 q 40 390 46 364 q 98 521 40 456 q 218 586 156 586 q 258 559 240 586 q 285 506 275 532 q 342 568 322 528 q 361 647 361 608 q 349 728 361 690 q 317 790 338 765 l 8 790 l -15 944 l 1126 944 l 1150 790 l 994 790 l 994 -22 l 799 0 l 799 369 l 379 369 q 363 361 371 365 q 347 354 356 357 l 560 17 l 378 -29 l 171 331 z "},"ह":{"ha":772,"x_min":-15,"x_max":788,"o":"m 519 332 q 486 382 519 361 q 397 403 453 403 q 308 371 342 403 q 274 292 274 339 q 358 178 274 215 q 539 136 443 142 l 497 -22 q 215 67 335 -14 q 96 292 96 147 q 110 378 96 336 q 150 454 124 419 q 115 508 126 476 q 103 581 103 539 q 168 718 103 674 q 321 763 233 763 l 414 763 l 414 790 l 6 790 l -15 944 l 764 944 l 788 790 l 626 790 l 626 617 l 344 617 q 305 608 317 617 q 293 583 293 599 q 297 566 293 574 q 310 554 300 558 q 353 563 331 560 q 400 565 375 565 q 619 497 540 565 q 697 338 697 429 q 676 238 697 286 q 604 157 654 189 l 468 250 q 508 287 496 268 q 519 332 519 306 z "},"ॸ":{"ha":906,"x_min":-15,"x_max":921,"o":"m 343 790 l 343 504 l 493 504 q 732 426 632 504 q 832 204 832 349 l 832 -22 q 732 -12 829 -22 q 635 -1 635 -1 l 635 204 q 596 311 635 272 q 486 350 557 350 l 339 350 q 310 274 332 301 q 263 247 288 247 q 124 295 192 247 q 56 422 56 343 q 83 483 56 463 q 154 503 111 503 l 154 790 l 8 790 l -15 944 l 897 944 l 921 790 l 343 790 z "},"ऺ":{"ha":0,"x_min":-204,"x_max":-15,"o":"m -15 944 l -204 944 l -204 1256 l -15 1233 l -15 944 z "},"ऻ":{"ha":469,"x_min":-15,"x_max":486,"o":"m 135 0 l 135 790 l 8 790 l -15 944 l 139 944 l 139 1256 l 328 1233 l 328 944 l 461 944 l 486 790 l 332 790 l 332 -22 l 135 0 z "},"़":{"ha":0,"x_min":24,"x_max":240,"o":"m 131 -289 q 55 -258 86 -289 q 24 -181 24 -226 q 55 -104 24 -136 q 131 -72 86 -72 q 209 -104 178 -72 q 240 -181 240 -136 q 209 -258 240 -226 q 131 -289 178 -289 z "},"ऽ":{"ha":793,"x_min":56,"x_max":710,"o":"m 142 236 q 265 169 204 193 q 382 144 325 144 q 483 172 444 144 q 521 247 521 200 q 456 406 521 311 q 322 576 390 500 l 113 814 l 113 944 l 679 944 l 710 790 l 364 790 l 442 694 q 608 480 517 603 q 700 247 700 357 q 617 55 700 133 q 376 -24 533 -24 q 224 0 317 -24 q 56 76 131 24 l 142 236 z "},"ा":{"ha":469,"x_min":-15,"x_max":486,"o":"m 135 0 l 135 790 l 8 790 l -15 944 l 461 944 l 486 790 l 332 790 l 332 -22 l 135 0 z "},"ि":{"ha":469,"x_min":-15,"x_max":1097,"o":"m 1025 967 q 735 1103 901 1044 q 439 1161 568 1161 q 314 1124 356 1161 q 272 1044 272 1088 q 285 978 272 1001 q 304 944 299 954 l 461 944 l 486 790 l 332 790 l 332 -22 l 135 0 l 135 790 l 8 790 l -15 944 l 113 944 q 96 986 104 957 q 88 1060 88 1015 q 174 1247 88 1172 q 413 1321 260 1321 q 794 1238 588 1321 q 1097 1088 1001 1156 l 1025 967 z "},"ी":{"ha":469,"x_min":-301,"x_max":486,"o":"m 135 0 l 135 790 l 8 790 l -15 944 l 108 944 q 39 1086 85 1013 q -68 1160 -7 1160 q -100 1143 -90 1160 q -110 1113 -110 1126 q -102 1074 -110 1090 q -82 1043 -94 1058 l -267 1006 q -292 1055 -283 1025 q -301 1126 -301 1085 q -239 1264 -301 1207 q -76 1321 -176 1321 q 162 1194 64 1321 q 306 944 260 1068 l 461 944 l 486 790 l 332 790 l 332 -22 l 135 0 z "},"ु":{"ha":0,"x_min":-597,"x_max":11,"o":"m -478 -125 q -349 -262 -406 -211 q -228 -312 -292 -312 q -172 -294 -190 -312 q -153 -247 -153 -276 q -173 -200 -153 -219 q -228 -181 -193 -181 l -333 -181 l -333 -25 l -215 -25 q -60 -84 -132 -25 q 11 -247 11 -143 q -60 -409 11 -350 q -231 -468 -132 -468 q -426 -397 -331 -468 q -597 -206 -521 -326 l -478 -125 z "},"ू":{"ha":0,"x_min":-487,"x_max":121,"o":"m 3 -368 q -128 -231 -71 -282 q -249 -181 -185 -181 q -303 -199 -285 -181 q -322 -246 -322 -218 q -303 -294 -322 -275 q -249 -312 -283 -312 l -143 -312 l -143 -468 l -261 -468 q -416 -409 -344 -468 q -487 -246 -487 -350 q -416 -83 -487 -142 q -246 -25 -344 -25 q -50 -95 -146 -25 q 121 -287 46 -165 l 3 -368 z "},"ृ":{"ha":0,"x_min":-483,"x_max":-106,"o":"m -319 -247 q -299 -294 -319 -276 q -243 -312 -278 -312 q -203 -309 -229 -312 q -139 -294 -176 -306 l -106 -447 q -187 -465 -149 -461 q -257 -468 -226 -468 q -414 -409 -344 -468 q -483 -247 -483 -350 q -412 -84 -483 -143 q -257 -25 -340 -25 l -137 -25 l -137 -181 l -243 -181 q -299 -200 -278 -181 q -319 -247 -319 -219 z "},"ॄ":{"ha":0,"x_min":-378,"x_max":-135,"o":"m -346 -235 q -369 -202 -360 -221 q -378 -164 -378 -183 q -326 -56 -378 -86 q -217 -25 -274 -25 l -135 -25 l -135 -143 l -193 -143 q -221 -148 -207 -143 q -235 -164 -235 -153 q -221 -175 -235 -171 q -193 -179 -207 -179 l -144 -179 l -175 -293 q -222 -297 -201 -293 q -242 -310 -242 -300 q -229 -324 -242 -319 q -193 -329 -217 -329 l -139 -329 l -171 -447 l -217 -447 q -326 -416 -274 -447 q -378 -310 -378 -385 q -368 -269 -378 -289 q -346 -235 -358 -249 z "},"ॅ":{"ha":0,"x_min":24,"x_max":699,"o":"m 564 1332 l 699 1249 q 549 1092 640 1132 q 361 1051 458 1051 q 173 1092 264 1051 q 24 1249 82 1133 l 160 1332 q 253 1233 192 1264 q 361 1203 314 1203 q 467 1231 410 1203 q 564 1332 524 1258 z "},"ॆ":{"ha":0,"x_min":-729,"x_max":-137,"o":"m -410 1038 l -465 1038 q -657 1092 -585 1039 q -729 1231 -729 1146 l -729 1290 l -556 1267 q -531 1208 -556 1224 q -464 1193 -506 1193 l -400 1193 q -217 1138 -296 1193 q -137 999 -137 1082 l -137 858 l -318 858 l -318 947 q -342 1014 -318 990 q -410 1038 -365 1038 z "},"े":{"ha":0,"x_min":-686,"x_max":-47,"o":"m -47 847 l -274 847 l -686 1228 l -544 1340 l -47 847 z "},"ै":{"ha":0,"x_min":-703,"x_max":-160,"o":"m -160 933 l -332 933 q -415 1002 -379 981 q -526 1024 -450 1024 l -665 1024 l -703 1190 l -535 1190 q -456 1187 -492 1190 q -385 1165 -419 1183 l -449 1363 l -271 1413 l -160 933 z "},"ॉ":{"ha":469,"x_min":-103,"x_max":572,"o":"m 439 1332 l 572 1249 q 422 1092 514 1132 q 235 1051 331 1051 q 47 1092 138 1051 q -103 1249 -44 1133 l 33 1332 q 126 1233 65 1264 q 235 1203 188 1203 q 340 1231 283 1203 q 439 1332 397 1258 m 135 0 l 135 790 l 8 790 l -15 944 l 461 944 l 486 790 l 332 790 l 332 -22 l 135 0 z "},"ॊ":{"ha":469,"x_min":-285,"x_max":486,"o":"m 53 1038 l -21 1038 q -212 1092 -140 1039 q -285 1231 -285 1146 l -285 1290 l -112 1267 q -87 1208 -112 1224 q -21 1193 -62 1193 l 61 1193 q 246 1138 167 1193 q 325 999 325 1082 l 325 944 l 461 944 l 486 790 l 332 790 l 332 -22 l 135 0 l 135 790 l 8 790 l -15 944 l 144 944 l 144 947 q 122 1014 144 990 q 53 1038 99 1038 z "},"ो":{"ha":469,"x_min":-229,"x_max":486,"o":"m 135 0 l 135 790 l 8 790 l -15 944 l 78 944 l -229 1228 l -87 1340 l 311 944 l 461 944 l 486 790 l 332 790 l 332 -22 l 135 0 z "},"ौ":{"ha":469,"x_min":-221,"x_max":486,"o":"m 135 0 l 135 790 l 8 790 l -15 944 l 139 944 q 61 1005 96 986 q -44 1024 26 1024 l -185 1024 l -221 1190 l -54 1190 q 26 1187 -11 1190 q 97 1165 63 1183 l 33 1363 l 211 1413 l 318 944 l 461 944 l 486 790 l 332 790 l 332 -22 l 135 0 z "},"ॏ":{"ha":469,"x_min":-299,"x_max":486,"o":"m 318 944 l 461 944 l 486 790 l 332 790 l 332 -22 l 135 0 l 135 790 l 8 790 l -15 944 l 149 944 q 129 976 143 965 q 97 986 115 986 l -43 986 q -228 1046 -158 988 q -299 1200 -299 1104 l -299 1249 l -146 1222 q -122 1150 -146 1175 q -50 1125 -97 1125 l 94 1125 q -17 1194 26 1143 q -61 1321 -61 1244 l -61 1371 l 93 1344 q 117 1263 93 1297 q 178 1214 140 1228 q 283 1134 247 1188 q 318 1001 318 1081 l 318 944 z "},"्":{"ha":0,"x_min":-447,"x_max":-6,"o":"m -121 -507 l -447 -215 l -312 -93 l -6 -404 l -121 -507 z "},"ॖ":{"ha":0,"x_min":24,"x_max":699,"o":"m 564 -72 l 699 -154 q 549 -312 640 -271 q 361 -353 458 -353 q 173 -312 264 -353 q 24 -154 82 -271 l 160 -72 q 253 -171 192 -140 q 361 -201 314 -201 q 467 -173 410 -201 q 564 -72 524 -144 z "},"ॗ":{"ha":0,"x_min":24,"x_max":894,"o":"m 643 -69 l 779 -147 q 619 -292 713 -260 q 463 -324 526 -324 q 305 -290 397 -324 q 149 -147 213 -257 l 285 -69 q 358 -159 307 -133 q 463 -185 410 -185 q 560 -163 508 -185 q 643 -69 611 -142 m 761 -240 l 894 -322 q 702 -474 824 -431 q 463 -517 581 -517 q 222 -474 349 -517 q 24 -325 94 -431 l 157 -242 q 285 -333 204 -299 q 463 -368 367 -368 q 632 -337 556 -368 q 761 -240 708 -306 z "},"ॎ":{"ha":468,"x_min":135,"x_max":485,"o":"m 135 0 l 135 944 l 461 944 l 485 790 l 331 790 l 331 -22 l 135 0 z "},"ॵ":{"ha":1808,"x_min":86,"x_max":1824,"o":"m 1013 0 l 1013 415 l 692 415 q 740 351 724 392 q 757 271 757 311 q 659 63 757 146 q 399 -21 561 -21 q 232 1 315 -21 q 86 58 149 24 l 121 217 q 254 157 190 175 q 386 139 318 139 q 506 172 453 139 q 560 268 560 204 q 515 377 560 336 q 349 418 469 418 l 217 418 l 196 560 l 357 560 q 495 601 450 560 q 540 699 540 642 q 503 776 540 742 q 400 811 465 811 q 268 790 332 811 q 129 718 204 769 l 103 881 q 251 947 172 924 q 418 971 329 971 q 658 889 578 971 q 739 700 739 807 q 719 625 739 664 q 672 560 700 586 l 1013 560 l 1013 790 l 883 790 l 860 944 l 1488 944 q 1468 976 1482 965 q 1436 986 1454 986 l 1296 986 q 1110 1046 1181 988 q 1040 1200 1040 1104 l 1040 1249 l 1193 1222 q 1217 1150 1193 1175 q 1289 1125 1242 1125 l 1433 1125 q 1322 1194 1365 1143 q 1278 1321 1278 1244 l 1278 1371 l 1432 1344 q 1456 1263 1432 1297 q 1517 1214 1479 1228 q 1622 1134 1586 1188 q 1657 1001 1657 1081 l 1657 944 l 1800 944 l 1824 790 l 1671 790 l 1671 -22 l 1474 0 l 1474 790 l 1207 790 l 1207 -22 l 1013 0 z "},"ॐ":{"ha":1239,"x_min":86,"x_max":1254,"o":"m 915 1078 q 840 1109 871 1078 q 808 1185 808 1140 q 840 1263 808 1231 q 915 1294 871 1294 q 992 1263 961 1294 q 1024 1185 1024 1231 q 992 1109 1024 1140 q 915 1078 961 1078 m 1119 1160 l 1254 1076 q 1103 916 1194 961 q 917 871 1013 871 q 728 917 819 871 q 581 1076 638 963 l 714 1160 q 808 1057 747 1092 q 917 1022 869 1022 q 1021 1054 964 1022 q 1119 1160 1078 1086 m 739 700 l 738 700 q 702 572 738 638 q 594 482 667 507 q 631 469 614 478 q 664 451 649 461 q 760 512 701 483 q 890 540 819 540 q 1113 463 1036 540 q 1190 257 1190 385 q 1097 44 1190 115 q 871 -28 1003 -28 l 835 132 q 962 167 918 132 q 1006 257 1006 201 q 973 345 1006 311 q 885 379 940 379 q 804 360 835 379 q 753 315 774 340 q 756 294 754 306 q 757 271 757 282 q 659 63 757 146 q 399 -21 561 -21 q 232 1 315 -21 q 86 58 149 24 l 121 217 q 254 157 190 175 q 386 139 318 139 q 506 172 453 139 q 560 268 560 204 q 515 377 560 336 q 349 418 469 418 l 217 418 l 196 560 l 357 560 q 495 601 450 560 q 540 699 540 642 q 503 776 540 742 q 400 811 465 811 q 268 790 332 811 q 129 718 204 769 l 103 881 q 251 947 172 924 q 418 971 329 971 q 658 889 578 971 q 739 700 739 807 z "},"॑":{"ha":0,"x_min":24,"x_max":204,"o":"m 183 1033 l 43 1033 l 24 1324 l 204 1324 l 183 1033 z "},"॒":{"ha":0,"x_min":24,"x_max":789,"o":"m 789 -251 l 47 -251 l 24 -99 l 767 -99 l 789 -251 z "},"॓":{"ha":0,"x_min":24,"x_max":333,"o":"m 333 1033 l 211 1033 l 24 1324 l 204 1324 l 333 1033 z "},"॔":{"ha":0,"x_min":24,"x_max":333,"o":"m 146 1033 l 24 1033 l 154 1324 l 333 1324 l 146 1033 z "},"ॕ":{"ha":0,"x_min":24,"x_max":714,"o":"m 564 1482 l 699 1407 q 549 1255 640 1292 q 361 1218 458 1218 q 173 1256 264 1218 q 24 1407 82 1293 l 160 1482 q 253 1388 192 1414 q 361 1361 314 1361 q 467 1385 410 1361 q 564 1482 524 1408 m 714 1039 l 60 1039 l 36 1175 l 690 1175 l 714 1039 z "},"ॶ":{"ha":1346,"x_min":86,"x_max":1361,"o":"m 1013 0 l 1013 415 l 692 415 q 740 351 724 392 q 757 271 757 311 q 659 63 757 146 q 399 -21 561 -21 q 232 1 315 -21 q 86 58 149 24 l 121 217 q 254 157 190 175 q 386 139 318 139 q 506 172 453 139 q 560 268 560 204 q 515 377 560 336 q 349 418 469 418 l 217 418 l 196 560 l 357 560 q 495 601 450 560 q 540 699 540 642 q 503 776 540 742 q 400 811 465 811 q 268 790 332 811 q 129 718 204 769 l 103 881 q 251 947 172 924 q 418 971 329 971 q 658 889 578 971 q 739 700 739 807 q 719 625 739 664 q 672 560 700 586 l 1013 560 l 1013 790 l 883 790 l 860 944 l 1339 944 l 1361 790 l 1207 790 l 1207 -22 l 1013 0 m 961 -72 l 1096 -154 q 947 -312 1038 -271 q 758 -353 856 -353 q 570 -312 661 -353 q 421 -154 479 -271 l 557 -72 q 650 -171 589 -140 q 758 -201 711 -201 q 864 -173 807 -201 q 961 -72 921 -144 z "},"ॷ":{"ha":1346,"x_min":86,"x_max":1361,"o":"m 1013 0 l 1013 415 l 692 415 q 740 351 724 392 q 757 271 757 311 q 659 63 757 146 q 399 -21 561 -21 q 232 1 315 -21 q 86 58 149 24 l 121 217 q 254 157 190 175 q 386 139 318 139 q 506 172 453 139 q 560 268 560 204 q 515 377 560 336 q 349 418 469 418 l 217 418 l 196 560 l 357 560 q 495 601 450 560 q 540 699 540 642 q 503 776 540 742 q 400 811 465 811 q 268 790 332 811 q 129 718 204 769 l 103 881 q 251 947 172 924 q 418 971 329 971 q 658 889 578 971 q 739 700 739 807 q 719 625 739 664 q 672 560 700 586 l 1013 560 l 1013 790 l 883 790 l 860 944 l 1339 944 l 1361 790 l 1207 790 l 1207 -22 l 1013 0 m 935 -69 l 1071 -147 q 911 -292 1004 -260 q 754 -324 818 -324 q 597 -290 689 -324 q 440 -147 504 -257 l 576 -69 q 650 -159 599 -133 q 754 -185 701 -185 q 851 -163 800 -185 q 935 -69 903 -142 m 1053 -240 l 1186 -322 q 994 -474 1115 -431 q 754 -517 872 -517 q 513 -474 640 -517 q 315 -325 386 -431 l 449 -242 q 577 -333 496 -299 q 754 -368 658 -368 q 924 -337 847 -368 q 1053 -240 1000 -306 z "},"क़":{"ha":1256,"x_min":-15,"x_max":1271,"o":"m 240 388 q 283 285 240 324 q 381 244 326 246 q 485 271 454 243 q 535 329 515 299 l 535 446 q 485 502 515 475 q 381 529 454 529 q 283 490 326 529 q 240 388 240 450 m 535 0 l 535 129 q 461 95 507 108 q 379 82 415 82 q 145 169 235 82 q 56 386 56 257 q 145 603 56 515 q 379 692 235 692 q 461 678 415 692 q 535 644 507 665 l 535 790 l 8 790 l -15 944 l 1249 944 l 1271 790 l 731 790 l 731 647 q 801 679 757 667 q 881 692 846 692 q 1117 603 1028 692 q 1207 386 1207 515 q 1101 163 1207 244 q 864 82 996 82 l 832 244 q 967 284 913 244 q 1021 388 1021 324 q 981 490 1021 450 q 885 529 940 529 q 785 504 819 529 q 731 450 750 479 l 731 -22 l 535 0 m 240 -217 q 162 -185 193 -217 q 131 -108 131 -154 q 162 -33 131 -65 q 240 0 193 0 q 317 -33 285 0 q 349 -108 349 -65 q 317 -185 349 -154 q 240 -217 285 -217 z "},"ख़":{"ha":1331,"x_min":-15,"x_max":1346,"o":"m 340 354 q 433 214 363 289 q 642 138 504 139 q 738 150 689 138 q 829 185 786 163 q 667 277 728 204 q 607 449 607 350 q 688 644 607 565 q 900 722 768 722 q 949 719 925 722 q 996 708 974 715 l 996 790 l 510 790 q 527 715 521 756 q 533 643 533 674 q 480 469 533 547 q 340 354 426 390 m 994 450 q 965 528 994 501 q 900 556 935 556 q 835 528 864 556 q 806 450 806 500 q 835 372 806 399 q 900 344 865 344 q 965 372 936 344 q 994 450 994 400 m 156 -108 q 79 -76 111 -108 q 47 0 47 -44 q 79 76 47 44 q 156 108 111 108 q 232 76 200 108 q 264 0 264 44 q 232 -76 264 -44 q 156 -108 200 -108 m 996 0 l 996 92 q 832 6 925 36 q 642 -25 739 -25 q 306 90 428 -25 q 151 331 183 204 l 115 332 q 60 348 83 332 q 33 390 38 364 q 94 521 33 456 q 218 586 156 586 q 258 562 240 586 q 286 510 276 538 q 333 564 313 526 q 354 643 354 601 q 342 725 354 686 q 310 790 331 764 l 8 790 l -15 944 l 1324 944 l 1346 790 l 1192 790 l 1192 -22 l 996 0 z "},"ग़":{"ha":971,"x_min":-15,"x_max":985,"o":"m 636 0 l 636 790 l 374 790 l 374 296 q 353 221 374 249 q 293 193 332 193 q 144 267 214 193 q 82 400 75 340 q 117 444 88 426 q 176 461 146 461 l 176 790 l 8 790 l -15 944 l 963 944 l 985 790 l 832 790 l 832 -22 l 636 0 m 285 -108 q 208 -76 239 -108 q 176 0 176 -44 q 208 76 176 44 q 285 108 239 108 q 361 76 329 108 q 393 0 393 44 q 361 -76 393 -44 q 285 -108 329 -108 z "},"ज़":{"ha":1133,"x_min":-15,"x_max":1151,"o":"m 801 0 l 801 497 l 640 497 q 655 443 649 472 q 661 382 661 414 q 554 144 661 217 q 322 72 447 72 q 158 103 238 72 q 24 169 79 133 l 58 346 q 191 265 125 294 q 315 235 257 236 q 434 274 390 235 q 478 374 478 314 q 448 461 478 425 q 343 497 418 497 l 257 497 l 235 650 l 801 650 l 801 790 l 8 790 l -15 944 l 1128 944 l 1151 790 l 996 790 l 996 -22 l 801 0 m 325 -217 q 248 -185 279 -217 q 217 -108 217 -154 q 248 -33 217 -65 q 325 0 279 0 q 402 -33 369 0 q 435 -108 435 -65 q 402 -185 435 -154 q 325 -217 369 -217 z "},"ड़":{"ha":749,"x_min":-15,"x_max":765,"o":"m 765 790 l 624 790 l 624 564 l 310 564 q 263 549 281 564 q 246 513 246 533 q 265 475 246 492 q 311 458 283 458 l 414 458 q 622 403 539 458 q 706 225 706 349 q 622 55 706 131 q 379 -21 538 -21 q 216 -2 299 -21 q 72 51 133 17 l 106 210 q 237 153 175 167 q 368 139 299 139 q 472 165 436 139 q 507 225 507 190 q 489 275 507 254 q 425 296 471 296 l 306 296 q 139 354 215 296 q 63 513 63 413 q 132 672 63 617 q 303 728 201 728 l 449 728 l 449 790 l 8 790 l -15 944 l 740 944 l 765 790 m 383 -285 q 305 -253 336 -285 q 274 -176 274 -222 q 305 -100 274 -132 q 383 -68 336 -68 q 460 -100 428 -68 q 492 -176 492 -132 q 460 -253 492 -222 q 383 -285 428 -285 z "},"ढ़":{"ha":867,"x_min":-15,"x_max":903,"o":"m 507 -25 q 219 56 363 -25 q 76 340 76 136 q 212 612 76 518 q 525 706 347 706 l 529 706 l 529 790 l 8 790 l -15 944 l 881 944 l 903 790 l 725 790 l 725 706 l 726 542 l 525 542 q 333 490 413 542 q 254 342 254 438 q 301 212 256 264 q 403 142 347 160 q 386 180 390 156 q 382 222 382 204 q 446 378 382 314 q 601 442 510 442 q 761 385 697 442 q 825 232 825 328 q 738 49 825 124 q 507 -25 650 -25 m 608 281 q 565 265 583 281 q 547 219 547 250 q 556 177 547 197 q 582 142 564 157 q 642 175 618 147 q 665 229 665 203 q 650 267 665 253 q 608 281 635 281 m 510 -287 q 433 -256 464 -287 q 401 -178 401 -225 q 433 -102 401 -135 q 510 -69 464 -69 q 587 -102 554 -69 q 619 -178 619 -135 q 587 -256 619 -225 q 510 -287 554 -287 z "},"फ़":{"ha":1331,"x_min":-15,"x_max":1347,"o":"m 300 519 q 339 413 300 451 q 449 374 378 374 q 554 406 508 374 q 610 494 600 439 l 610 790 l 300 790 l 300 519 m 610 0 l 610 249 q 530 222 579 233 q 442 210 481 210 q 203 292 303 210 q 103 519 103 375 l 103 790 l 8 790 l -15 944 l 1324 944 l 1347 790 l 806 790 l 806 647 q 878 679 833 667 q 957 692 922 692 q 1193 603 1103 692 q 1283 386 1283 515 q 1178 163 1283 244 q 939 82 1072 82 l 907 244 q 1043 284 989 244 q 1097 388 1097 324 q 1057 490 1097 450 q 961 529 1017 529 q 861 504 896 529 q 806 450 826 479 l 806 -22 l 610 0 m 311 -108 q 235 -76 267 -108 q 204 0 204 -44 q 235 76 204 44 q 311 108 267 108 q 390 76 357 108 q 422 0 422 44 q 390 -76 422 -44 q 311 -108 357 -108 z "},"य़":{"ha":925,"x_min":-15,"x_max":940,"o":"m 590 0 l 590 247 q 519 222 560 233 q 413 210 478 210 q 176 297 283 210 q 69 500 69 385 l 106 539 q 162 589 136 549 q 188 685 188 629 q 168 749 188 719 q 121 790 149 779 l 8 790 l -15 944 l 918 944 l 940 790 l 786 790 l 786 -22 l 590 0 m 256 464 q 311 405 274 436 q 419 374 349 374 q 530 407 479 374 q 590 497 581 440 l 590 790 l 338 790 q 354 737 347 768 q 361 675 361 706 q 336 558 361 613 q 256 464 311 503 m 281 -108 q 203 -76 235 -108 q 172 0 172 -44 q 203 76 172 44 q 281 108 235 108 q 358 76 326 108 q 390 0 390 44 q 358 -76 390 -44 q 281 -108 326 -108 z "},"ॠ":{"ha":1256,"x_min":-15,"x_max":1269,"o":"m 1074 540 q 1164 421 1128 474 q 1200 304 1200 368 q 1140 176 1200 228 q 1081 94 1081 125 q 1090 73 1081 78 q 1117 68 1100 68 l 1182 68 l 1151 -82 l 1111 -82 q 1078 -92 1096 -82 q 1061 -115 1061 -101 q 1075 -142 1061 -133 q 1104 -150 1089 -150 l 1163 -150 l 1131 -300 l 1074 -300 q 953 -251 1014 -301 q 892 -118 892 -200 q 901 -62 892 -87 q 928 -14 911 -36 q 910 23 917 3 q 904 69 904 43 q 967 192 904 133 q 1029 303 1029 251 q 1011 368 1029 342 q 960 428 993 394 q 840 375 924 397 q 694 349 756 353 l 694 -22 l 497 0 l 497 242 l 221 69 l 114 217 l 450 422 q 354 486 396 469 q 275 503 313 503 q 215 488 261 503 q 118 451 169 474 l 43 617 q 163 657 90 639 q 263 675 236 675 q 372 666 314 675 q 497 613 429 657 l 497 790 l 8 790 l -15 944 l 1247 944 l 1269 790 l 694 790 l 694 507 q 795 526 740 513 q 865 556 850 540 q 847 592 854 572 q 840 639 840 613 q 968 730 840 754 q 1096 604 1096 706 q 1090 570 1096 586 q 1074 540 1085 554 z "},"ॡ":{"ha":1190,"x_min":-15,"x_max":1206,"o":"m 843 -6 q 812 31 824 7 q 800 76 800 56 q 816 144 800 115 q 856 189 832 172 l 856 432 q 819 508 847 479 q 753 538 792 538 q 678 496 707 538 q 650 389 650 454 l 650 183 l 475 201 l 475 389 q 448 494 475 454 q 357 533 421 533 q 276 503 307 533 q 246 432 246 472 q 279 281 246 368 q 400 19 313 194 l 244 -33 q 115 234 158 131 q 72 443 72 338 q 157 620 72 543 q 357 699 242 697 q 469 678 415 697 q 560 625 522 660 q 647 680 594 661 q 754 699 699 699 q 806 692 778 699 q 856 675 835 686 l 856 790 l 8 790 l -15 944 l 1182 944 l 1206 790 l 1051 790 l 1051 104 l 993 104 q 965 99 979 104 q 951 76 951 93 q 965 57 951 63 q 993 51 979 51 l 1042 51 l 1011 -61 q 961 -67 978 -61 q 944 -86 944 -72 q 956 -108 944 -100 q 993 -115 968 -115 l 1047 -115 l 1015 -232 l 961 -232 q 853 -197 906 -232 q 800 -86 800 -161 q 815 -39 800 -67 q 843 -6 829 -11 z "},"ॢ":{"ha":0,"x_min":24,"x_max":640,"o":"m 396 -217 l 396 -351 l 268 -318 l 268 -217 q 251 -177 268 -190 q 214 -164 235 -164 q 182 -176 196 -164 q 168 -197 168 -187 q 192 -292 168 -240 q 269 -443 217 -343 l 128 -475 q 50 -314 76 -376 q 24 -187 24 -251 q 75 -75 24 -124 q 207 -26 126 -26 q 281 -45 247 -26 q 332 -93 315 -64 q 385 -47 349 -67 q 461 -26 422 -26 q 590 -75 540 -26 q 640 -187 640 -124 q 626 -253 640 -225 q 599 -307 613 -282 q 595 -331 593 -317 q 613 -344 597 -344 l 639 -344 l 606 -469 l 561 -469 q 483 -449 526 -469 q 440 -374 440 -428 q 467 -276 440 -317 q 494 -199 494 -236 q 480 -172 494 -181 q 449 -164 465 -164 q 413 -178 429 -164 q 396 -217 396 -192 z "},"ॣ":{"ha":0,"x_min":24,"x_max":646,"o":"m 396 -217 l 396 -351 l 268 -318 l 268 -217 q 251 -177 268 -190 q 214 -164 235 -164 q 182 -176 196 -164 q 168 -197 168 -187 q 192 -292 168 -240 q 269 -443 217 -343 l 128 -475 q 50 -314 76 -376 q 24 -187 24 -251 q 75 -75 24 -124 q 207 -26 126 -26 q 281 -45 247 -26 q 332 -93 315 -64 q 385 -47 349 -67 q 461 -26 422 -26 q 590 -75 540 -26 q 640 -187 640 -124 q 622 -259 640 -231 q 604 -315 604 -287 q 610 -331 604 -325 q 629 -337 615 -337 l 646 -337 l 614 -446 l 578 -446 q 556 -451 565 -447 q 546 -465 546 -456 q 557 -480 546 -475 q 582 -485 568 -485 l 631 -485 l 600 -582 l 571 -582 q 482 -553 518 -582 q 446 -465 446 -525 q 456 -428 446 -446 q 479 -403 465 -411 q 467 -382 471 -396 q 464 -358 464 -368 q 482 -271 464 -300 q 501 -207 500 -242 q 488 -176 501 -189 q 449 -164 475 -164 q 413 -178 429 -164 q 396 -217 396 -192 z "},"।":{"ha":585,"x_min":194,"x_max":390,"o":"m 390 1049 l 390 -22 l 194 0 l 194 1071 l 390 1049 z "},"॥":{"ha":1093,"x_min":194,"x_max":899,"o":"m 899 1049 l 899 -22 l 701 0 l 701 1071 l 899 1049 m 390 1049 l 390 -22 l 194 0 l 194 1071 l 390 1049 z "},"०":{"ha":925,"x_min":71,"x_max":854,"o":"m 464 79 q 183 194 294 79 q 71 471 71 310 q 182 747 71 632 q 461 864 293 863 q 742 749 631 864 q 854 471 854 633 q 743 194 854 310 q 464 79 632 79 m 240 471 q 303 305 240 372 q 463 238 367 238 q 622 305 558 238 q 685 471 685 372 q 622 638 685 571 q 463 706 558 706 q 303 638 367 706 q 240 471 240 571 z "},"१":{"ha":567,"x_min":63,"x_max":519,"o":"m 67 464 l 213 579 q 127 638 175 589 q 79 747 79 686 q 139 906 79 842 q 289 971 199 971 q 448 909 389 971 q 507 756 507 847 q 468 617 507 689 q 346 478 429 546 l 247 400 l 519 17 l 335 -28 l 63 397 l 67 464 m 293 818 q 262 798 275 818 q 249 756 249 778 q 265 701 249 728 q 310 668 282 674 q 334 703 324 678 q 344 747 344 728 q 332 796 344 774 q 293 818 319 818 z "},"२":{"ha":731,"x_min":63,"x_max":651,"o":"m 256 331 l 207 332 q 151 348 175 332 q 124 390 128 364 q 181 521 124 456 q 303 586 239 586 q 344 558 324 586 q 374 503 364 529 q 450 569 429 521 q 471 656 471 617 q 426 764 471 717 q 313 811 382 811 q 207 788 257 811 q 129 746 157 764 l 63 886 q 174 944 104 917 q 315 971 244 971 q 570 861 489 971 q 651 649 651 751 q 599 480 651 563 q 435 350 547 397 l 643 17 l 460 -29 l 256 331 z "},"३":{"ha":776,"x_min":71,"x_max":696,"o":"m 393 971 q 607 898 535 971 q 679 731 679 825 q 648 615 679 674 q 550 536 617 557 q 656 465 618 521 q 696 346 694 410 q 617 169 696 242 q 407 86 539 96 l 500 -29 l 371 -121 l 197 113 q 113 174 154 132 q 71 275 71 215 q 98 340 71 315 q 165 364 125 364 q 265 328 215 364 q 329 244 315 293 l 350 244 q 453 272 408 244 q 499 346 499 299 q 457 433 499 396 q 331 469 415 469 l 214 469 l 194 611 l 339 611 q 444 644 407 611 q 482 728 482 676 q 448 789 482 767 q 360 813 414 811 q 238 788 300 814 q 136 731 176 761 l 111 889 q 244 950 174 929 q 393 971 314 971 z "},"४":{"ha":972,"x_min":47,"x_max":925,"o":"m 746 219 q 675 45 746 115 q 486 -25 604 -25 q 297 45 368 -25 q 225 219 225 115 q 269 371 225 292 q 376 533 314 450 q 211 701 300 617 q 47 857 122 786 l 154 993 q 362 792 293 860 q 486 665 431 725 q 609 792 540 725 q 818 993 678 860 l 925 857 q 760 701 850 786 q 596 533 671 617 q 702 371 658 450 q 746 219 746 292 m 404 219 q 428 161 404 183 q 486 139 453 139 q 544 161 521 139 q 568 219 568 183 q 543 299 568 257 q 486 390 518 342 q 429 299 454 342 q 404 219 404 257 z "},"५":{"ha":818,"x_min":111,"x_max":786,"o":"m 439 160 q 508 142 490 143 q 546 140 526 140 q 601 158 585 140 q 617 199 617 176 q 608 263 617 231 q 586 321 600 294 q 535 313 561 315 q 489 310 510 310 q 227 386 343 310 q 111 632 111 463 l 111 944 l 308 944 l 308 632 q 358 506 308 542 q 489 471 407 471 q 483 496 486 483 q 481 522 481 508 q 510 592 482 558 q 585 626 539 626 q 688 590 640 626 q 736 497 736 553 q 732 460 736 478 q 717 424 728 442 q 767 306 747 371 q 786 206 786 240 q 742 49 786 119 q 561 -22 699 -22 q 492 -17 539 -22 q 394 7 444 -12 l 439 160 z "},"६":{"ha":828,"x_min":79,"x_max":781,"o":"m 225 536 q 128 615 160 557 q 96 731 96 674 q 168 898 96 825 q 383 971 240 971 q 533 950 463 971 q 664 889 603 929 l 640 731 q 537 788 599 761 q 414 813 475 814 q 327 789 361 811 q 293 728 293 767 q 331 644 293 676 q 436 611 368 611 l 564 611 l 578 469 l 446 469 q 319 433 361 469 q 276 346 276 396 q 322 272 276 299 q 426 244 367 244 q 449 246 438 244 q 471 249 461 247 l 471 276 q 499 352 471 324 q 574 381 526 381 q 676 347 625 381 q 728 257 728 313 q 716 206 728 233 q 686 157 704 179 q 733 76 707 118 q 781 -1 760 35 l 626 -60 l 539 99 q 470 88 506 89 q 400 86 435 86 q 167 160 256 86 q 79 346 79 235 q 118 465 79 410 q 225 536 157 521 z "},"७":{"ha":1053,"x_min":46,"x_max":990,"o":"m 778 575 q 734 672 764 635 q 651 710 704 710 q 592 685 621 710 q 563 617 563 660 q 590 549 563 574 q 660 524 617 524 q 724 536 692 524 q 778 575 756 549 m 788 403 q 717 374 756 385 q 650 364 679 364 q 457 433 535 364 q 379 606 379 501 q 453 797 379 719 q 644 874 528 874 q 905 748 819 874 q 990 419 990 622 q 869 106 990 238 q 525 -25 747 -25 q 168 113 290 -25 q 46 497 46 250 l 243 496 q 319 240 243 331 q 525 149 396 149 q 712 219 643 149 q 788 403 781 290 z "},"८":{"ha":815,"x_min":71,"x_max":756,"o":"m 261 310 q 301 197 261 243 q 415 150 340 150 q 533 196 479 150 q 588 379 588 242 l 750 332 q 685 101 756 228 q 406 -25 615 -25 q 158 69 246 -25 q 71 304 71 164 q 214 691 71 492 q 482 993 357 890 l 592 858 q 349 581 436 714 q 261 310 261 447 z "},"९":{"ha":699,"x_min":63,"x_max":621,"o":"m 332 964 q 543 888 465 964 q 621 714 621 811 q 547 534 621 606 q 365 460 474 463 q 372 450 368 454 q 379 442 376 446 q 497 255 475 301 q 519 149 519 208 q 459 28 519 75 q 300 -36 399 -18 l 271 103 q 323 124 304 113 q 342 165 342 135 q 302 247 342 186 q 207 386 263 307 q 111 530 160 457 q 63 690 63 603 q 133 877 63 790 q 332 964 203 964 m 342 789 q 275 759 301 789 q 249 682 249 729 q 253 642 249 660 q 264 607 258 625 q 289 602 274 606 q 328 599 304 599 q 406 628 378 599 q 433 697 433 658 q 409 762 433 735 q 342 789 385 789 z "},"॰":{"ha":793,"x_min":56,"x_max":738,"o":"m 400 736 q 639 636 540 736 q 738 394 738 536 q 639 156 738 254 q 399 57 540 57 q 153 156 251 57 q 56 400 56 256 q 154 638 56 540 q 400 736 253 736 m 399 217 q 518 266 467 217 q 569 397 569 315 q 518 524 569 476 q 399 572 467 572 q 276 523 328 572 q 225 397 225 474 q 276 265 225 314 q 399 217 328 217 z "},"ॱ":{"ha":328,"x_min":56,"x_max":272,"o":"m 163 301 q 87 333 118 301 q 56 410 56 364 q 87 486 56 454 q 163 518 118 518 q 241 486 210 518 q 272 410 272 454 q 241 333 272 364 q 163 301 210 301 z "},"ॲ":{"ha":1346,"x_min":86,"x_max":1453,"o":"m 1317 1332 l 1453 1249 q 1303 1092 1393 1132 q 1115 1051 1213 1051 q 927 1092 1017 1051 q 779 1249 838 1133 l 913 1332 q 1007 1233 946 1264 q 1115 1203 1068 1203 q 1219 1231 1163 1203 q 1317 1332 1276 1258 m 1013 0 l 1013 415 l 692 415 q 740 351 724 392 q 757 271 757 311 q 659 63 757 146 q 399 -21 561 -21 q 232 1 315 -21 q 86 58 149 24 l 121 217 q 254 157 190 175 q 386 139 318 139 q 506 172 453 139 q 560 268 560 204 q 515 377 560 336 q 349 418 469 418 l 217 418 l 196 560 l 357 560 q 495 601 450 560 q 540 699 540 642 q 503 776 540 742 q 400 811 465 811 q 268 790 332 811 q 129 718 204 769 l 103 881 q 251 947 172 924 q 418 971 329 971 q 658 889 578 971 q 739 700 739 807 q 719 625 739 664 q 672 560 700 586 l 1013 560 l 1013 790 l 883 790 l 860 944 l 1339 944 l 1361 790 l 1207 790 l 1207 -22 l 1013 0 z "},"ॳ":{"ha":1346,"x_min":86,"x_max":1361,"o":"m 1013 0 l 1013 415 l 692 415 q 740 351 724 392 q 757 271 757 311 q 659 63 757 146 q 399 -21 561 -21 q 232 1 315 -21 q 86 58 149 24 l 121 217 q 254 157 190 175 q 386 139 318 139 q 506 172 453 139 q 560 268 560 204 q 515 377 560 336 q 349 418 469 418 l 217 418 l 196 560 l 357 560 q 495 601 450 560 q 540 699 540 642 q 503 776 540 742 q 400 811 465 811 q 268 790 332 811 q 129 718 204 769 l 103 881 q 251 947 172 924 q 418 971 329 971 q 658 889 578 971 q 739 700 739 807 q 719 625 739 664 q 672 560 700 586 l 1013 560 l 1013 790 l 883 790 l 860 944 l 1015 944 l 1015 1256 l 1204 1233 l 1204 944 l 1339 944 l 1361 790 l 1207 790 l 1207 -22 l 1013 0 z "},"ॴ":{"ha":1808,"x_min":86,"x_max":1824,"o":"m 1013 0 l 1013 415 l 692 415 q 740 351 724 392 q 757 271 757 311 q 659 63 757 146 q 399 -21 561 -21 q 232 1 315 -21 q 86 58 149 24 l 121 217 q 254 157 190 175 q 386 139 318 139 q 506 172 453 139 q 560 268 560 204 q 515 377 560 336 q 349 418 469 418 l 217 418 l 196 560 l 357 560 q 495 601 450 560 q 540 699 540 642 q 503 776 540 742 q 400 811 465 811 q 268 790 332 811 q 129 718 204 769 l 103 881 q 251 947 172 924 q 418 971 329 971 q 658 889 578 971 q 739 700 739 807 q 719 625 739 664 q 672 560 700 586 l 1013 560 l 1013 790 l 883 790 l 860 944 l 1469 944 l 1469 1256 l 1657 1233 l 1657 944 l 1800 944 l 1824 790 l 1671 790 l 1671 -22 l 1474 0 l 1474 790 l 1207 790 l 1207 -22 l 1013 0 z "},"ॹ":{"ha":1133,"x_min":-15,"x_max":1151,"o":"m 801 0 l 801 497 l 640 497 q 655 443 649 472 q 661 382 661 414 q 554 144 661 217 q 322 72 447 72 q 158 103 238 72 q 24 169 79 133 l 58 346 q 191 265 125 294 q 315 235 257 236 q 434 274 390 235 q 478 374 478 314 q 448 461 478 425 q 343 497 418 497 l 257 497 l 235 650 l 801 650 l 801 790 l 8 790 l -15 944 l 1128 944 l 1151 790 l 996 790 l 996 -22 l 801 0 m 163 -186 q 86 -155 118 -186 q 54 -78 54 -124 q 86 -1 54 -33 q 163 31 118 31 q 240 -1 207 31 q 272 -78 272 -33 q 240 -155 272 -124 q 163 -186 207 -186 m 489 -186 q 413 -155 444 -186 q 382 -78 382 -124 q 413 -1 382 -33 q 489 31 444 31 q 567 -1 535 31 q 599 -78 599 -33 q 567 -155 599 -124 q 489 -186 535 -186 m 328 -385 q 251 -353 282 -385 q 219 -274 219 -321 q 251 -199 219 -231 q 328 -167 282 -167 q 404 -199 372 -167 q 436 -274 436 -231 q 404 -353 436 -321 q 328 -385 372 -385 z "},"ॺ":{"ha":925,"x_min":-15,"x_max":940,"o":"m 590 0 l 590 247 q 519 222 560 233 q 413 210 478 210 q 176 297 283 210 q 69 500 69 385 l 106 539 q 162 589 136 549 q 188 685 188 629 q 168 749 188 719 q 121 790 149 779 l 8 790 l -15 944 l 918 944 l 940 790 l 786 790 l 786 -22 l 590 0 m 590 790 l 383 790 l 590 539 l 590 790 m 419 374 q 495 388 458 374 q 556 428 532 401 q 453 559 501 496 q 361 675 406 622 q 336 558 361 613 q 256 464 311 503 q 311 405 274 436 q 419 374 349 374 z "},"ॻ":{"ha":971,"x_min":-15,"x_max":985,"o":"m 636 0 l 636 790 l 374 790 l 374 296 q 353 221 374 249 q 293 193 332 193 q 144 267 214 193 q 82 400 75 340 q 117 444 88 426 q 176 461 146 461 l 176 790 l 8 790 l -15 944 l 963 944 l 985 790 l 832 790 l 832 -22 l 636 0 m 864 -251 l 121 -251 l 99 -99 l 840 -99 l 864 -251 z "},"ॼ":{"ha":1133,"x_min":-15,"x_max":1151,"o":"m 801 0 l 801 497 l 640 497 q 655 443 649 472 q 661 382 661 414 q 554 144 661 217 q 322 72 447 72 q 158 103 238 72 q 24 169 79 133 l 58 346 q 191 265 125 294 q 315 235 257 236 q 434 274 390 235 q 478 374 478 314 q 448 461 478 425 q 343 497 418 497 l 257 497 l 235 650 l 801 650 l 801 790 l 8 790 l -15 944 l 1128 944 l 1151 790 l 996 790 l 996 -22 l 801 0 m 964 -251 l 128 -251 l 106 -99 l 940 -99 l 964 -251 z "},"ॽ":{"ha":775,"x_min":79,"x_max":711,"o":"m 396 971 q 632 883 553 971 q 711 679 711 796 q 644 497 711 588 q 464 354 578 406 l 465 4 l 267 65 l 267 453 q 443 548 376 488 q 510 676 510 608 q 474 773 510 740 q 383 806 439 806 q 248 776 315 806 q 106 694 181 746 l 79 874 q 226 944 147 917 q 396 971 304 971 z "},"ॾ":{"ha":749,"x_min":-15,"x_max":765,"o":"m 765 790 l 624 790 l 624 564 l 310 564 q 263 549 281 564 q 246 513 246 533 q 265 475 246 492 q 311 458 283 458 l 414 458 q 622 403 539 458 q 706 225 706 349 q 622 55 706 131 q 379 -21 538 -21 q 216 -2 299 -21 q 72 51 133 17 l 106 210 q 237 153 175 167 q 368 139 299 139 q 472 165 436 139 q 507 225 507 190 q 489 275 507 254 q 425 296 471 296 l 306 296 q 139 354 215 296 q 63 513 63 413 q 132 672 63 617 q 303 728 201 728 l 449 728 l 449 790 l 8 790 l -15 944 l 740 944 l 765 790 m 689 -251 l 90 -251 l 67 -99 l 665 -99 l 689 -251 z "},"ॿ":{"ha":876,"x_min":-15,"x_max":892,"o":"m 542 0 l 542 125 q 469 92 514 104 q 388 79 424 79 q 149 168 243 79 q 56 386 56 257 q 149 605 56 515 q 388 694 243 694 q 469 682 424 694 q 542 650 514 669 l 542 790 l 8 790 l -15 944 l 869 944 l 892 790 l 738 790 l 738 -22 l 542 0 m 342 526 l 533 310 q 538 315 535 311 q 542 324 540 319 l 542 450 q 485 508 522 481 q 383 535 447 535 q 363 533 374 535 q 342 526 351 532 m 465 253 l 269 475 q 248 435 256 457 q 240 388 240 414 q 284 282 240 324 q 383 240 328 240 q 430 244 408 240 q 465 253 451 247 m 778 -251 l 118 -251 l 94 -99 l 754 -99 l 778 -251 z "}}}
